<?xml version="1.0" encoding="UTF-8" standalone="no"?>
<!DOCTYPE svg PUBLIC "-//W3C//DTD SVG 1.1//EN"
 "http://www.w3.org/Graphics/SVG/1.1/DTD/svg11.dtd">
<!-- Generated by graphviz version 2.47.0 (20210316.0004)
 -->
<!-- Title: dependencies Pages: 1 -->
<svg width="504pt" height="211pt"
 viewBox="0.00 0.00 504.00 211.00" xmlns="http://www.w3.org/2000/svg" xmlns:xlink="http://www.w3.org/1999/xlink">
<g id="graph0" class="graph" transform="scale(1 1) rotate(0) translate(4 207)">
<title>dependencies</title>
<polygon fill="white" stroke="transparent" points="-4,4 -4,-207 500,-207 500,4 -4,4"/>
<text text-anchor="start" x="227.01" y="-42.4" font-family="sans-serif" font-weight="bold" font-size="14.00">Legend</text>
<polygon fill="#ffffb3" stroke="transparent" points="14,-10 14,-30 34,-30 34,-10 14,-10"/>
<text text-anchor="start" x="37.63" y="-15.4" font-family="sans-serif" font-size="14.00"> &#160;Declarations</text>
<polygon fill="#8dd3c7" stroke="transparent" points="127,-10 127,-30 147,-30 147,-10 127,-10"/>
<text text-anchor="start" x="150.73" y="-15.4" font-family="sans-serif" font-size="14.00"> &#160;Module</text>
<polygon fill="#80b1d3" stroke="transparent" points="213,-10 213,-30 233,-30 233,-10 213,-10"/>
<text text-anchor="start" x="236.78" y="-15.4" font-family="sans-serif" font-size="14.00"> &#160;Bootstrap</text>
<polygon fill="#fdb462" stroke="transparent" points="310,-10 310,-30 330,-30 330,-10 310,-10"/>
<text text-anchor="start" x="333.67" y="-15.4" font-family="sans-serif" font-size="14.00"> &#160;Providers</text>
<polygon fill="#fb8072" stroke="transparent" points="406,-10 406,-30 426,-30 426,-10 406,-10"/>
<text text-anchor="start" x="429.73" y="-15.4" font-family="sans-serif" font-size="14.00"> &#160;Exports</text>
<g id="clust1" class="cluster">
<title>cluster_EventsModule</title>
<polygon fill="none" stroke="black" stroke-dasharray="1,5" points="96,-70 96,-195 400,-195 400,-70 96,-70"/>
</g>
<g id="clust6" class="cluster">
<title>cluster_EventsModule_providers</title>
<polygon fill="none" stroke="black" points="104,-78 104,-130 392,-130 392,-78 104,-78"/>
</g>
<!-- EventEffects -->
<g id="node1" class="node">
<title>EventEffects</title>
<ellipse fill="#fdb462" stroke="black" cx="323" cy="-104" rx="60.81" ry="18"/>
<text text-anchor="middle" x="323" y="-99.8" font-family="Times,serif" font-size="14.00">EventEffects</text>
</g>
<!-- EventsModule -->
<g id="node3" class="node">
<title>EventsModule</title>
<polygon fill="#8dd3c7" stroke="black" points="298.65,-187 295.65,-191 274.65,-191 271.65,-187 201.35,-187 201.35,-151 298.65,-151 298.65,-187"/>
<text text-anchor="middle" x="250" y="-164.8" font-family="Times,serif" font-size="14.00">EventsModule</text>
</g>
<!-- EventEffects&#45;&gt;EventsModule -->
<g id="edge1" class="edge">
<title>EventEffects&#45;&gt;EventsModule</title>
<path fill="none" stroke="black" d="M280.46,-117.15C280.46,-117.15 280.46,-140.69 280.46,-140.69"/>
<polygon fill="black" stroke="black" points="276.96,-140.69 280.46,-150.69 283.96,-140.69 276.96,-140.69"/>
</g>
<!-- EventsService -->
<g id="node2" class="node">
<title>EventsService</title>
<ellipse fill="#fdb462" stroke="black" cx="178" cy="-104" rx="66.05" ry="18"/>
<text text-anchor="middle" x="178" y="-99.8" font-family="Times,serif" font-size="14.00">EventsService</text>
</g>
<!-- EventsService&#45;&gt;EventsModule -->
<g id="edge2" class="edge">
<title>EventsService&#45;&gt;EventsModule</title>
<path fill="none" stroke="black" d="M222.72,-117.47C222.72,-117.47 222.72,-140.86 222.72,-140.86"/>
<polygon fill="black" stroke="black" points="219.22,-140.86 222.72,-150.86 226.22,-140.86 219.22,-140.86"/>
</g>
</g>
</svg>
