<?xml version="1.0" encoding="UTF-8" standalone="no"?>
<!DOCTYPE svg PUBLIC "-//W3C//DTD SVG 1.1//EN"
 "http://www.w3.org/Graphics/SVG/1.1/DTD/svg11.dtd">
<!-- Generated by graphviz version 2.47.0 (20210316.0004)
 -->
<!-- Title: dependencies Pages: 1 -->
<svg width="504pt" height="284pt"
 viewBox="0.00 0.00 504.00 284.00" xmlns="http://www.w3.org/2000/svg" xmlns:xlink="http://www.w3.org/1999/xlink">
<g id="graph0" class="graph" transform="scale(1 1) rotate(0) translate(4 280)">
<title>dependencies</title>
<polygon fill="white" stroke="transparent" points="-4,4 -4,-280 500,-280 500,4 -4,4"/>
<text text-anchor="start" x="227.01" y="-42.4" font-family="sans-serif" font-weight="bold" font-size="14.00">Legend</text>
<polygon fill="#ffffb3" stroke="transparent" points="14,-10 14,-30 34,-30 34,-10 14,-10"/>
<text text-anchor="start" x="37.63" y="-15.4" font-family="sans-serif" font-size="14.00"> &#160;Declarations</text>
<polygon fill="#8dd3c7" stroke="transparent" points="127,-10 127,-30 147,-30 147,-10 127,-10"/>
<text text-anchor="start" x="150.73" y="-15.4" font-family="sans-serif" font-size="14.00"> &#160;Module</text>
<polygon fill="#80b1d3" stroke="transparent" points="213,-10 213,-30 233,-30 233,-10 213,-10"/>
<text text-anchor="start" x="236.78" y="-15.4" font-family="sans-serif" font-size="14.00"> &#160;Bootstrap</text>
<polygon fill="#fdb462" stroke="transparent" points="310,-10 310,-30 330,-30 330,-10 310,-10"/>
<text text-anchor="start" x="333.67" y="-15.4" font-family="sans-serif" font-size="14.00"> &#160;Providers</text>
<polygon fill="#fb8072" stroke="transparent" points="406,-10 406,-30 426,-30 426,-10 406,-10"/>
<text text-anchor="start" x="429.73" y="-15.4" font-family="sans-serif" font-size="14.00"> &#160;Exports</text>
<g id="clust1" class="cluster">
<title>cluster_CollageModule</title>
<polygon fill="none" stroke="black" stroke-dasharray="1,5" points="59,-70 59,-268 437,-268 437,-70 59,-70"/>
</g>
<g id="clust4" class="cluster">
<title>cluster_CollageModule_imports</title>
<polygon fill="none" stroke="black" points="215,-78 215,-130 429,-130 429,-78 215,-78"/>
</g>
<g id="clust5" class="cluster">
<title>cluster_CollageModule_exports</title>
<polygon fill="none" stroke="black" points="192,-208 192,-260 336,-260 336,-208 192,-208"/>
</g>
<g id="clust2" class="cluster">
<title>cluster_CollageModule_declarations</title>
<polygon fill="none" stroke="black" points="67,-78 67,-130 207,-130 207,-78 67,-78"/>
</g>
<!-- CollageComponent -->
<g id="node1" class="node">
<title>CollageComponent</title>
<polygon fill="#ffffb3" stroke="black" points="199.38,-122 74.62,-122 74.62,-86 199.38,-86 199.38,-122"/>
<text text-anchor="middle" x="137" y="-99.8" font-family="Times,serif" font-size="14.00">CollageComponent</text>
</g>
<!-- CollageModule -->
<g id="node2" class="node">
<title>CollageModule</title>
<polygon fill="#8dd3c7" stroke="black" points="315.6,-187 312.6,-191 291.6,-191 288.6,-187 212.4,-187 212.4,-151 315.6,-151 315.6,-187"/>
<text text-anchor="middle" x="264" y="-164.8" font-family="Times,serif" font-size="14.00">CollageModule</text>
</g>
<!-- CollageComponent&#45;&gt;CollageModule -->
<g id="edge1" class="edge">
<title>CollageComponent&#45;&gt;CollageModule</title>
<path fill="none" stroke="black" d="M199.39,-104C210.02,-104 217.7,-104 217.7,-104 217.7,-104 217.7,-140.89 217.7,-140.89"/>
<polygon fill="black" stroke="black" points="214.2,-140.89 217.7,-150.89 221.2,-140.89 214.2,-140.89"/>
</g>
<!-- CollageComponent  -->
<g id="node5" class="node">
<title>CollageComponent </title>
<polygon fill="#fb8072" stroke="black" points="328.38,-252 199.62,-252 199.62,-216 328.38,-216 328.38,-252"/>
<text text-anchor="middle" x="264" y="-229.8" font-family="Times,serif" font-size="14.00">CollageComponent </text>
</g>
<!-- CollageModule&#45;&gt;CollageComponent  -->
<g id="edge4" class="edge">
<title>CollageModule&#45;&gt;CollageComponent </title>
<path fill="none" stroke="black" stroke-dasharray="5,2" d="M264,-187.11C264,-187.11 264,-205.99 264,-205.99"/>
<polygon fill="black" stroke="black" points="260.5,-205.99 264,-215.99 267.5,-205.99 260.5,-205.99"/>
</g>
<!-- SharedModule -->
<g id="node3" class="node">
<title>SharedModule</title>
<polygon fill="#8dd3c7" stroke="black" points="421.42,-122 418.42,-126 397.42,-126 394.42,-122 322.58,-122 322.58,-86 421.42,-86 421.42,-122"/>
<text text-anchor="middle" x="372" y="-99.8" font-family="Times,serif" font-size="14.00">SharedModule</text>
</g>
<!-- SharedModule&#45;&gt;CollageModule -->
<g id="edge2" class="edge">
<title>SharedModule&#45;&gt;CollageModule</title>
<path fill="none" stroke="black" d="M322.78,-104C315.45,-104 310.3,-104 310.3,-104 310.3,-104 310.3,-140.89 310.3,-140.89"/>
<polygon fill="black" stroke="black" points="306.8,-140.89 310.3,-150.89 313.8,-140.89 306.8,-140.89"/>
</g>
<!-- TileModule -->
<g id="node4" class="node">
<title>TileModule</title>
<polygon fill="#8dd3c7" stroke="black" points="305.1,-122 302.1,-126 281.1,-126 278.1,-122 222.9,-122 222.9,-86 305.1,-86 305.1,-122"/>
<text text-anchor="middle" x="264" y="-99.8" font-family="Times,serif" font-size="14.00">TileModule</text>
</g>
<!-- TileModule&#45;&gt;CollageModule -->
<g id="edge3" class="edge">
<title>TileModule&#45;&gt;CollageModule</title>
<path fill="none" stroke="black" d="M264,-122.11C264,-122.11 264,-140.99 264,-140.99"/>
<polygon fill="black" stroke="black" points="260.5,-140.99 264,-150.99 267.5,-140.99 260.5,-140.99"/>
</g>
</g>
</svg>
