<?xml version="1.0" encoding="UTF-8" standalone="no"?>
<!DOCTYPE svg PUBLIC "-//W3C//DTD SVG 1.1//EN"
 "http://www.w3.org/Graphics/SVG/1.1/DTD/svg11.dtd">
<!-- Generated by graphviz version 2.47.0 (20210316.0004)
 -->
<!-- Title: dependencies Pages: 1 -->
<svg width="504pt" height="284pt"
 viewBox="0.00 0.00 504.00 284.00" xmlns="http://www.w3.org/2000/svg" xmlns:xlink="http://www.w3.org/1999/xlink">
<g id="graph0" class="graph" transform="scale(1 1) rotate(0) translate(4 280)">
<title>dependencies</title>
<polygon fill="white" stroke="transparent" points="-4,4 -4,-280 500,-280 500,4 -4,4"/>
<text text-anchor="start" x="227.01" y="-42.4" font-family="sans-serif" font-weight="bold" font-size="14.00">Legend</text>
<polygon fill="#ffffb3" stroke="transparent" points="14,-10 14,-30 34,-30 34,-10 14,-10"/>
<text text-anchor="start" x="37.63" y="-15.4" font-family="sans-serif" font-size="14.00"> &#160;Declarations</text>
<polygon fill="#8dd3c7" stroke="transparent" points="127,-10 127,-30 147,-30 147,-10 127,-10"/>
<text text-anchor="start" x="150.73" y="-15.4" font-family="sans-serif" font-size="14.00"> &#160;Module</text>
<polygon fill="#80b1d3" stroke="transparent" points="213,-10 213,-30 233,-30 233,-10 213,-10"/>
<text text-anchor="start" x="236.78" y="-15.4" font-family="sans-serif" font-size="14.00"> &#160;Bootstrap</text>
<polygon fill="#fdb462" stroke="transparent" points="310,-10 310,-30 330,-30 330,-10 310,-10"/>
<text text-anchor="start" x="333.67" y="-15.4" font-family="sans-serif" font-size="14.00"> &#160;Providers</text>
<polygon fill="#fb8072" stroke="transparent" points="406,-10 406,-30 426,-30 426,-10 406,-10"/>
<text text-anchor="start" x="429.73" y="-15.4" font-family="sans-serif" font-size="14.00"> &#160;Exports</text>
<g id="clust1" class="cluster">
<title>cluster_CollageModule</title>
<polygon fill="none" stroke="black" stroke-dasharray="1,5" points="59,-70 59,-268 437,-268 437,-70 59,-70"/>
</g>
<g id="clust5" class="cluster">
<title>cluster_CollageModule_exports</title>
<polygon fill="none" stroke="black" points="152,-208 152,-260 296,-260 296,-208 152,-208"/>
</g>
<g id="clust2" class="cluster">
<title>cluster_CollageModule_declarations</title>
<polygon fill="none" stroke="black" points="289,-78 289,-130 429,-130 429,-78 289,-78"/>
</g>
<g id="clust4" class="cluster">
<title>cluster_CollageModule_imports</title>
<polygon fill="none" stroke="black" points="67,-78 67,-130 281,-130 281,-78 67,-78"/>
</g>
<!-- CollageComponent -->
<g id="node1" class="node">
<title>CollageComponent</title>
<polygon fill="#ffffb3" stroke="black" points="421.38,-122 296.62,-122 296.62,-86 421.38,-86 421.38,-122"/>
<text text-anchor="middle" x="359" y="-99.8" font-family="Times,serif" font-size="14.00">CollageComponent</text>
</g>
<!-- CollageModule -->
<g id="node2" class="node">
<title>CollageModule</title>
<polygon fill="#8dd3c7" stroke="black" points="275.6,-187 272.6,-191 251.6,-191 248.6,-187 172.4,-187 172.4,-151 275.6,-151 275.6,-187"/>
<text text-anchor="middle" x="224" y="-164.8" font-family="Times,serif" font-size="14.00">CollageModule</text>
</g>
<!-- CollageComponent&#45;&gt;CollageModule -->
<g id="edge1" class="edge">
<title>CollageComponent&#45;&gt;CollageModule</title>
<path fill="none" stroke="black" d="M359,-122.11C359,-141.34 359,-169 359,-169 359,-169 285.81,-169 285.81,-169"/>
<polygon fill="black" stroke="black" points="285.81,-165.5 275.81,-169 285.81,-172.5 285.81,-165.5"/>
</g>
<!-- CollageComponent  -->
<g id="node5" class="node">
<title>CollageComponent </title>
<polygon fill="#fb8072" stroke="black" points="288.38,-252 159.62,-252 159.62,-216 288.38,-216 288.38,-252"/>
<text text-anchor="middle" x="224" y="-229.8" font-family="Times,serif" font-size="14.00">CollageComponent </text>
</g>
<!-- CollageModule&#45;&gt;CollageComponent  -->
<g id="edge4" class="edge">
<title>CollageModule&#45;&gt;CollageComponent </title>
<path fill="none" stroke="black" stroke-dasharray="5,2" d="M224,-187.11C224,-187.11 224,-205.99 224,-205.99"/>
<polygon fill="black" stroke="black" points="220.5,-205.99 224,-215.99 227.5,-205.99 220.5,-205.99"/>
</g>
<!-- SharedModule -->
<g id="node3" class="node">
<title>SharedModule</title>
<polygon fill="#8dd3c7" stroke="black" points="273.42,-122 270.42,-126 249.42,-126 246.42,-122 174.58,-122 174.58,-86 273.42,-86 273.42,-122"/>
<text text-anchor="middle" x="224" y="-99.8" font-family="Times,serif" font-size="14.00">SharedModule</text>
</g>
<!-- SharedModule&#45;&gt;CollageModule -->
<g id="edge2" class="edge">
<title>SharedModule&#45;&gt;CollageModule</title>
<path fill="none" stroke="black" d="M224,-122.11C224,-122.11 224,-140.99 224,-140.99"/>
<polygon fill="black" stroke="black" points="220.5,-140.99 224,-150.99 227.5,-140.99 220.5,-140.99"/>
</g>
<!-- TileModule -->
<g id="node4" class="node">
<title>TileModule</title>
<polygon fill="#8dd3c7" stroke="black" points="157.1,-122 154.1,-126 133.1,-126 130.1,-122 74.9,-122 74.9,-86 157.1,-86 157.1,-122"/>
<text text-anchor="middle" x="116" y="-99.8" font-family="Times,serif" font-size="14.00">TileModule</text>
</g>
<!-- TileModule&#45;&gt;CollageModule -->
<g id="edge3" class="edge">
<title>TileModule&#45;&gt;CollageModule</title>
<path fill="none" stroke="black" d="M116,-122.11C116,-141.34 116,-169 116,-169 116,-169 162.21,-169 162.21,-169"/>
<polygon fill="black" stroke="black" points="162.21,-172.5 172.21,-169 162.21,-165.5 162.21,-172.5"/>
</g>
</g>
</svg>
