<?xml version="1.0" encoding="UTF-8" standalone="no"?>
<!DOCTYPE svg PUBLIC "-//W3C//DTD SVG 1.1//EN"
 "http://www.w3.org/Graphics/SVG/1.1/DTD/svg11.dtd">
<!-- Generated by graphviz version 2.47.0 (20210316.0004)
 -->
<!-- Title: dependencies Pages: 1 -->
<svg width="504pt" height="349pt"
 viewBox="0.00 0.00 504.00 349.00" xmlns="http://www.w3.org/2000/svg" xmlns:xlink="http://www.w3.org/1999/xlink">
<g id="graph0" class="graph" transform="scale(1 1) rotate(0) translate(4 345)">
<title>dependencies</title>
<polygon fill="white" stroke="transparent" points="-4,4 -4,-345 500,-345 500,4 -4,4"/>
<text text-anchor="start" x="227.01" y="-42.4" font-family="sans-serif" font-weight="bold" font-size="14.00">Legend</text>
<polygon fill="#ffffb3" stroke="transparent" points="14,-10 14,-30 34,-30 34,-10 14,-10"/>
<text text-anchor="start" x="37.63" y="-15.4" font-family="sans-serif" font-size="14.00"> &#160;Declarations</text>
<polygon fill="#8dd3c7" stroke="transparent" points="127,-10 127,-30 147,-30 147,-10 127,-10"/>
<text text-anchor="start" x="150.73" y="-15.4" font-family="sans-serif" font-size="14.00"> &#160;Module</text>
<polygon fill="#80b1d3" stroke="transparent" points="213,-10 213,-30 233,-30 233,-10 213,-10"/>
<text text-anchor="start" x="236.78" y="-15.4" font-family="sans-serif" font-size="14.00"> &#160;Bootstrap</text>
<polygon fill="#fdb462" stroke="transparent" points="310,-10 310,-30 330,-30 330,-10 310,-10"/>
<text text-anchor="start" x="333.67" y="-15.4" font-family="sans-serif" font-size="14.00"> &#160;Providers</text>
<polygon fill="#fb8072" stroke="transparent" points="406,-10 406,-30 426,-30 426,-10 406,-10"/>
<text text-anchor="start" x="429.73" y="-15.4" font-family="sans-serif" font-size="14.00"> &#160;Exports</text>
<g id="clust1" class="cluster">
<title>cluster_PhoneNumberModule</title>
<polygon fill="none" stroke="black" stroke-dasharray="1,5" points="88,-70 88,-333 408,-333 408,-70 88,-70"/>
</g>
<g id="clust5" class="cluster">
<title>cluster_PhoneNumberModule_exports</title>
<polygon fill="none" stroke="black" points="157,-273 157,-325 339,-325 339,-273 157,-273"/>
</g>
<g id="clust3" class="cluster">
<title>cluster_PhoneNumberModule_PhoneNumberComponent_providers</title>
<polygon fill="none" stroke="black" points="96,-78 96,-195 400,-195 400,-78 96,-78"/>
</g>
<!-- PhoneNumberComponent -->
<g id="node1" class="node">
<title>PhoneNumberComponent</title>
<polygon fill="#ffffb3" stroke="black" points="329.2,-187 166.8,-187 166.8,-151 329.2,-151 329.2,-187"/>
<text text-anchor="middle" x="248" y="-164.8" font-family="Times,serif" font-size="14.00">PhoneNumberComponent</text>
</g>
<!-- PhoneNumberModule -->
<g id="node2" class="node">
<title>PhoneNumberModule</title>
<polygon fill="#8dd3c7" stroke="black" points="318.42,-252 315.42,-256 294.42,-256 291.42,-252 177.58,-252 177.58,-216 318.42,-216 318.42,-252"/>
<text text-anchor="middle" x="248" y="-229.8" font-family="Times,serif" font-size="14.00">PhoneNumberModule</text>
</g>
<!-- PhoneNumberComponent&#45;&gt;PhoneNumberModule -->
<g id="edge1" class="edge">
<title>PhoneNumberComponent&#45;&gt;PhoneNumberModule</title>
<path fill="none" stroke="black" d="M248,-187.11C248,-187.11 248,-205.99 248,-205.99"/>
<polygon fill="black" stroke="black" points="244.5,-205.99 248,-215.99 251.5,-205.99 244.5,-205.99"/>
</g>
<!-- PhoneNumberComponent  -->
<g id="node4" class="node">
<title>PhoneNumberComponent </title>
<polygon fill="#fb8072" stroke="black" points="330.7,-317 165.3,-317 165.3,-281 330.7,-281 330.7,-317"/>
<text text-anchor="middle" x="248" y="-294.8" font-family="Times,serif" font-size="14.00">PhoneNumberComponent </text>
</g>
<!-- PhoneNumberModule&#45;&gt;PhoneNumberComponent  -->
<g id="edge3" class="edge">
<title>PhoneNumberModule&#45;&gt;PhoneNumberComponent </title>
<path fill="none" stroke="black" stroke-dasharray="5,2" d="M248,-252.11C248,-252.11 248,-270.99 248,-270.99"/>
<polygon fill="black" stroke="black" points="244.5,-270.99 248,-280.99 251.5,-270.99 244.5,-270.99"/>
</g>
<!-- PHONE_NUMBER_ACCESSOR -->
<g id="node3" class="node">
<title>PHONE_NUMBER_ACCESSOR</title>
<ellipse fill="#fdb462" stroke="black" cx="248" cy="-104" rx="144.16" ry="18"/>
<text text-anchor="middle" x="248" y="-99.8" font-family="Times,serif" font-size="14.00">PHONE_NUMBER_ACCESSOR</text>
</g>
<!-- PHONE_NUMBER_ACCESSOR&#45;&gt;PhoneNumberComponent -->
<g id="edge2" class="edge">
<title>PHONE_NUMBER_ACCESSOR&#45;&gt;PhoneNumberComponent</title>
<path fill="none" stroke="black" d="M248,-122.11C248,-122.11 248,-140.99 248,-140.99"/>
<polygon fill="black" stroke="black" points="244.5,-140.99 248,-150.99 251.5,-140.99 244.5,-140.99"/>
</g>
</g>
</svg>
