<?xml version="1.0" encoding="UTF-8" standalone="no"?>
<!DOCTYPE svg PUBLIC "-//W3C//DTD SVG 1.1//EN"
 "http://www.w3.org/Graphics/SVG/1.1/DTD/svg11.dtd">
<!-- Generated by graphviz version 2.47.0 (20210316.0004)
 -->
<!-- Title: dependencies Pages: 1 -->
<svg width="504pt" height="284pt"
 viewBox="0.00 0.00 504.00 284.00" xmlns="http://www.w3.org/2000/svg" xmlns:xlink="http://www.w3.org/1999/xlink">
<g id="graph0" class="graph" transform="scale(1 1) rotate(0) translate(4 280)">
<title>dependencies</title>
<polygon fill="white" stroke="transparent" points="-4,4 -4,-280 500,-280 500,4 -4,4"/>
<text text-anchor="start" x="227.01" y="-42.4" font-family="sans-serif" font-weight="bold" font-size="14.00">Legend</text>
<polygon fill="#ffffb3" stroke="transparent" points="14,-10 14,-30 34,-30 34,-10 14,-10"/>
<text text-anchor="start" x="37.63" y="-15.4" font-family="sans-serif" font-size="14.00"> &#160;Declarations</text>
<polygon fill="#8dd3c7" stroke="transparent" points="127,-10 127,-30 147,-30 147,-10 127,-10"/>
<text text-anchor="start" x="150.73" y="-15.4" font-family="sans-serif" font-size="14.00"> &#160;Module</text>
<polygon fill="#80b1d3" stroke="transparent" points="213,-10 213,-30 233,-30 233,-10 213,-10"/>
<text text-anchor="start" x="236.78" y="-15.4" font-family="sans-serif" font-size="14.00"> &#160;Bootstrap</text>
<polygon fill="#fdb462" stroke="transparent" points="310,-10 310,-30 330,-30 330,-10 310,-10"/>
<text text-anchor="start" x="333.67" y="-15.4" font-family="sans-serif" font-size="14.00"> &#160;Providers</text>
<polygon fill="#fb8072" stroke="transparent" points="406,-10 406,-30 426,-30 426,-10 406,-10"/>
<text text-anchor="start" x="429.73" y="-15.4" font-family="sans-serif" font-size="14.00"> &#160;Exports</text>
<g id="clust1" class="cluster">
<title>cluster_TimerModule</title>
<polygon fill="none" stroke="black" stroke-dasharray="1,5" points="66.5,-70 66.5,-268 429.5,-268 429.5,-70 66.5,-70"/>
</g>
<g id="clust6" class="cluster">
<title>cluster_TimerModule_exports</title>
<polygon fill="none" stroke="black" points="134.5,-208 134.5,-260 366.5,-260 366.5,-208 134.5,-208"/>
</g>
<g id="clust2" class="cluster">
<title>cluster_TimerModule_declarations</title>
<polygon fill="none" stroke="black" points="196.5,-78 196.5,-130 421.5,-130 421.5,-78 196.5,-78"/>
</g>
<g id="clust5" class="cluster">
<title>cluster_TimerModule_imports</title>
<polygon fill="none" stroke="black" points="74.5,-78 74.5,-130 188.5,-130 188.5,-78 74.5,-78"/>
</g>
<!-- TimerComponent -->
<g id="node1" class="node">
<title>TimerComponent</title>
<polygon fill="#ffffb3" stroke="black" points="413.04,-122 297.96,-122 297.96,-86 413.04,-86 413.04,-122"/>
<text text-anchor="middle" x="355.5" y="-99.8" font-family="Times,serif" font-size="14.00">TimerComponent</text>
</g>
<!-- TimerModule -->
<g id="node3" class="node">
<title>TimerModule</title>
<polygon fill="#8dd3c7" stroke="black" points="289.26,-187 286.26,-191 265.26,-191 262.26,-187 195.74,-187 195.74,-151 289.26,-151 289.26,-187"/>
<text text-anchor="middle" x="242.5" y="-164.8" font-family="Times,serif" font-size="14.00">TimerModule</text>
</g>
<!-- TimerComponent&#45;&gt;TimerModule -->
<g id="edge1" class="edge">
<title>TimerComponent&#45;&gt;TimerModule</title>
<path fill="none" stroke="black" d="M297.7,-104C290.01,-104 284.71,-104 284.71,-104 284.71,-104 284.71,-140.89 284.71,-140.89"/>
<polygon fill="black" stroke="black" points="281.21,-140.89 284.71,-150.89 288.21,-140.89 281.21,-140.89"/>
</g>
<!-- TimerPipe -->
<g id="node2" class="node">
<title>TimerPipe</title>
<polygon fill="#ffffb3" stroke="black" points="280.1,-122 204.9,-122 204.9,-86 280.1,-86 280.1,-122"/>
<text text-anchor="middle" x="242.5" y="-99.8" font-family="Times,serif" font-size="14.00">TimerPipe</text>
</g>
<!-- TimerPipe&#45;&gt;TimerModule -->
<g id="edge2" class="edge">
<title>TimerPipe&#45;&gt;TimerModule</title>
<path fill="none" stroke="black" d="M242.5,-122.11C242.5,-122.11 242.5,-140.99 242.5,-140.99"/>
<polygon fill="black" stroke="black" points="239,-140.99 242.5,-150.99 246,-140.99 239,-140.99"/>
</g>
<!-- TimerComponent  -->
<g id="node5" class="node">
<title>TimerComponent </title>
<polygon fill="#fb8072" stroke="black" points="358.04,-252 238.96,-252 238.96,-216 358.04,-216 358.04,-252"/>
<text text-anchor="middle" x="298.5" y="-229.8" font-family="Times,serif" font-size="14.00">TimerComponent </text>
</g>
<!-- TimerModule&#45;&gt;TimerComponent  -->
<g id="edge4" class="edge">
<title>TimerModule&#45;&gt;TimerComponent </title>
<path fill="none" stroke="black" stroke-dasharray="5,2" d="M264.18,-187.11C264.18,-187.11 264.18,-205.99 264.18,-205.99"/>
<polygon fill="black" stroke="black" points="260.68,-205.99 264.18,-215.99 267.68,-205.99 260.68,-205.99"/>
</g>
<!-- TimerPipe  -->
<g id="node6" class="node">
<title>TimerPipe </title>
<polygon fill="#fb8072" stroke="black" points="220.6,-252 142.4,-252 142.4,-216 220.6,-216 220.6,-252"/>
<text text-anchor="middle" x="181.5" y="-229.8" font-family="Times,serif" font-size="14.00">TimerPipe </text>
</g>
<!-- TimerModule&#45;&gt;TimerPipe  -->
<g id="edge5" class="edge">
<title>TimerModule&#45;&gt;TimerPipe </title>
<path fill="none" stroke="black" stroke-dasharray="5,2" d="M208.21,-187.11C208.21,-187.11 208.21,-205.99 208.21,-205.99"/>
<polygon fill="black" stroke="black" points="204.71,-205.99 208.21,-215.99 211.71,-205.99 204.71,-205.99"/>
</g>
<!-- SharedModule -->
<g id="node4" class="node">
<title>SharedModule</title>
<polygon fill="#8dd3c7" stroke="black" points="180.92,-122 177.92,-126 156.92,-126 153.92,-122 82.08,-122 82.08,-86 180.92,-86 180.92,-122"/>
<text text-anchor="middle" x="131.5" y="-99.8" font-family="Times,serif" font-size="14.00">SharedModule</text>
</g>
<!-- SharedModule&#45;&gt;TimerModule -->
<g id="edge3" class="edge">
<title>SharedModule&#45;&gt;TimerModule</title>
<path fill="none" stroke="black" d="M180.76,-104C191.78,-104 200.29,-104 200.29,-104 200.29,-104 200.29,-140.89 200.29,-140.89"/>
<polygon fill="black" stroke="black" points="196.79,-140.89 200.29,-150.89 203.79,-140.89 196.79,-140.89"/>
</g>
</g>
</svg>
