<?xml version="1.0" encoding="UTF-8" standalone="no"?>
<!DOCTYPE svg PUBLIC "-//W3C//DTD SVG 1.1//EN"
 "http://www.w3.org/Graphics/SVG/1.1/DTD/svg11.dtd">
<!-- Generated by graphviz version 2.47.0 (20210316.0004)
 -->
<!-- Title: dependencies Pages: 1 -->
<svg width="845pt" height="284pt"
 viewBox="0.00 0.00 845.00 284.00" xmlns="http://www.w3.org/2000/svg" xmlns:xlink="http://www.w3.org/1999/xlink">
<g id="graph0" class="graph" transform="scale(1 1) rotate(0) translate(4 280)">
<title>dependencies</title>
<polygon fill="white" stroke="transparent" points="-4,4 -4,-280 841,-280 841,4 -4,4"/>
<text text-anchor="start" x="397.51" y="-42.4" font-family="sans-serif" font-weight="bold" font-size="14.00">Legend</text>
<polygon fill="#ffffb3" stroke="transparent" points="184.5,-10 184.5,-30 204.5,-30 204.5,-10 184.5,-10"/>
<text text-anchor="start" x="208.13" y="-15.4" font-family="sans-serif" font-size="14.00"> &#160;Declarations</text>
<polygon fill="#8dd3c7" stroke="transparent" points="297.5,-10 297.5,-30 317.5,-30 317.5,-10 297.5,-10"/>
<text text-anchor="start" x="321.23" y="-15.4" font-family="sans-serif" font-size="14.00"> &#160;Module</text>
<polygon fill="#80b1d3" stroke="transparent" points="383.5,-10 383.5,-30 403.5,-30 403.5,-10 383.5,-10"/>
<text text-anchor="start" x="407.28" y="-15.4" font-family="sans-serif" font-size="14.00"> &#160;Bootstrap</text>
<polygon fill="#fdb462" stroke="transparent" points="480.5,-10 480.5,-30 500.5,-30 500.5,-10 480.5,-10"/>
<text text-anchor="start" x="504.17" y="-15.4" font-family="sans-serif" font-size="14.00"> &#160;Providers</text>
<polygon fill="#fb8072" stroke="transparent" points="576.5,-10 576.5,-30 596.5,-30 596.5,-10 576.5,-10"/>
<text text-anchor="start" x="600.23" y="-15.4" font-family="sans-serif" font-size="14.00"> &#160;Exports</text>
<g id="clust1" class="cluster">
<title>cluster_DialogModule</title>
<polygon fill="none" stroke="black" stroke-dasharray="1,5" points="8,-70 8,-268 829,-268 829,-70 8,-70"/>
</g>
<g id="clust2" class="cluster">
<title>cluster_DialogModule_declarations</title>
<polygon fill="none" stroke="black" points="138,-78 138,-130 821,-130 821,-78 138,-78"/>
</g>
<g id="clust8" class="cluster">
<title>cluster_DialogModule_exports</title>
<polygon fill="none" stroke="black" points="70,-208 70,-260 767,-260 767,-208 70,-208"/>
</g>
<g id="clust7" class="cluster">
<title>cluster_DialogModule_imports</title>
<polygon fill="none" stroke="black" points="16,-78 16,-130 130,-130 130,-78 16,-78"/>
</g>
<!-- AutoLogoutComponent -->
<g id="node1" class="node">
<title>AutoLogoutComponent</title>
<polygon fill="#ffffb3" stroke="black" points="812.77,-122 663.23,-122 663.23,-86 812.77,-86 812.77,-122"/>
<text text-anchor="middle" x="738" y="-99.8" font-family="Times,serif" font-size="14.00">AutoLogoutComponent</text>
</g>
<!-- DialogModule -->
<g id="node5" class="node">
<title>DialogModule</title>
<polygon fill="#8dd3c7" stroke="black" points="450.65,-187 447.65,-191 426.65,-191 423.65,-187 353.35,-187 353.35,-151 450.65,-151 450.65,-187"/>
<text text-anchor="middle" x="402" y="-164.8" font-family="Times,serif" font-size="14.00">DialogModule</text>
</g>
<!-- AutoLogoutComponent&#45;&gt;DialogModule -->
<g id="edge1" class="edge">
<title>AutoLogoutComponent&#45;&gt;DialogModule</title>
<path fill="none" stroke="black" d="M710.88,-122.11C710.88,-141.34 710.88,-169 710.88,-169 710.88,-169 460.94,-169 460.94,-169"/>
<polygon fill="black" stroke="black" points="460.94,-165.5 450.94,-169 460.94,-172.5 460.94,-165.5"/>
</g>
<!-- ConfirmDeleteComponent -->
<g id="node2" class="node">
<title>ConfirmDeleteComponent</title>
<polygon fill="#ffffb3" stroke="black" points="644.8,-122 479.2,-122 479.2,-86 644.8,-86 644.8,-122"/>
<text text-anchor="middle" x="562" y="-99.8" font-family="Times,serif" font-size="14.00">ConfirmDeleteComponent</text>
</g>
<!-- ConfirmDeleteComponent&#45;&gt;DialogModule -->
<g id="edge2" class="edge">
<title>ConfirmDeleteComponent&#45;&gt;DialogModule</title>
<path fill="none" stroke="black" d="M533.38,-122.03C533.38,-138.4 533.38,-160 533.38,-160 533.38,-160 460.92,-160 460.92,-160"/>
<polygon fill="black" stroke="black" points="460.92,-156.5 450.92,-160 460.92,-163.5 460.92,-156.5"/>
</g>
<!-- DialogComponent -->
<g id="node3" class="node">
<title>DialogComponent</title>
<polygon fill="#ffffb3" stroke="black" points="461.94,-122 342.06,-122 342.06,-86 461.94,-86 461.94,-122"/>
<text text-anchor="middle" x="402" y="-99.8" font-family="Times,serif" font-size="14.00">DialogComponent</text>
</g>
<!-- DialogComponent&#45;&gt;DialogModule -->
<g id="edge3" class="edge">
<title>DialogComponent&#45;&gt;DialogModule</title>
<path fill="none" stroke="black" d="M402,-122.11C402,-122.11 402,-140.99 402,-140.99"/>
<polygon fill="black" stroke="black" points="398.5,-140.99 402,-150.99 405.5,-140.99 398.5,-140.99"/>
</g>
<!-- UnsavedChangesComponent -->
<g id="node4" class="node">
<title>UnsavedChangesComponent</title>
<polygon fill="#ffffb3" stroke="black" points="324.02,-122 145.98,-122 145.98,-86 324.02,-86 324.02,-122"/>
<text text-anchor="middle" x="235" y="-99.8" font-family="Times,serif" font-size="14.00">UnsavedChangesComponent</text>
</g>
<!-- UnsavedChangesComponent&#45;&gt;DialogModule -->
<g id="edge4" class="edge">
<title>UnsavedChangesComponent&#45;&gt;DialogModule</title>
<path fill="none" stroke="black" d="M300.9,-122.03C300.9,-138.4 300.9,-160 300.9,-160 300.9,-160 343.23,-160 343.23,-160"/>
<polygon fill="black" stroke="black" points="343.23,-163.5 353.23,-160 343.23,-156.5 343.23,-163.5"/>
</g>
<!-- AutoLogoutComponent  -->
<g id="node7" class="node">
<title>AutoLogoutComponent </title>
<polygon fill="#fb8072" stroke="black" points="758.77,-252 605.23,-252 605.23,-216 758.77,-216 758.77,-252"/>
<text text-anchor="middle" x="682" y="-229.8" font-family="Times,serif" font-size="14.00">AutoLogoutComponent </text>
</g>
<!-- DialogModule&#45;&gt;AutoLogoutComponent  -->
<g id="edge6" class="edge">
<title>DialogModule&#45;&gt;AutoLogoutComponent </title>
<path fill="none" stroke="black" stroke-dasharray="5,2" d="M450.66,-178C516.28,-178 625.01,-178 625.01,-178 625.01,-178 625.01,-205.97 625.01,-205.97"/>
<polygon fill="black" stroke="black" points="621.51,-205.97 625.01,-215.97 628.51,-205.97 621.51,-205.97"/>
</g>
<!-- ConfirmDeleteComponent  -->
<g id="node8" class="node">
<title>ConfirmDeleteComponent </title>
<polygon fill="#fb8072" stroke="black" points="587.3,-252 418.7,-252 418.7,-216 587.3,-216 587.3,-252"/>
<text text-anchor="middle" x="503" y="-229.8" font-family="Times,serif" font-size="14.00">ConfirmDeleteComponent </text>
</g>
<!-- DialogModule&#45;&gt;ConfirmDeleteComponent  -->
<g id="edge7" class="edge">
<title>DialogModule&#45;&gt;ConfirmDeleteComponent </title>
<path fill="none" stroke="black" stroke-dasharray="5,2" d="M434.71,-187.11C434.71,-187.11 434.71,-205.99 434.71,-205.99"/>
<polygon fill="black" stroke="black" points="431.21,-205.99 434.71,-215.99 438.21,-205.99 431.21,-205.99"/>
</g>
<!-- DialogComponent  -->
<g id="node9" class="node">
<title>DialogComponent </title>
<polygon fill="#fb8072" stroke="black" points="400.43,-252 277.57,-252 277.57,-216 400.43,-216 400.43,-252"/>
<text text-anchor="middle" x="339" y="-229.8" font-family="Times,serif" font-size="14.00">DialogComponent </text>
</g>
<!-- DialogModule&#45;&gt;DialogComponent  -->
<g id="edge8" class="edge">
<title>DialogModule&#45;&gt;DialogComponent </title>
<path fill="none" stroke="black" stroke-dasharray="5,2" d="M376.82,-187.11C376.82,-187.11 376.82,-205.99 376.82,-205.99"/>
<polygon fill="black" stroke="black" points="373.32,-205.99 376.82,-215.99 380.32,-205.99 373.32,-205.99"/>
</g>
<!-- UnsavedChangesComponent  -->
<g id="node10" class="node">
<title>UnsavedChangesComponent </title>
<polygon fill="#fb8072" stroke="black" points="260.02,-252 77.98,-252 77.98,-216 260.02,-216 260.02,-252"/>
<text text-anchor="middle" x="169" y="-229.8" font-family="Times,serif" font-size="14.00">UnsavedChangesComponent </text>
</g>
<!-- DialogModule&#45;&gt;UnsavedChangesComponent  -->
<g id="edge9" class="edge">
<title>DialogModule&#45;&gt;UnsavedChangesComponent </title>
<path fill="none" stroke="black" stroke-dasharray="5,2" d="M353.29,-178C294.34,-178 202.88,-178 202.88,-178 202.88,-178 202.88,-205.97 202.88,-205.97"/>
<polygon fill="black" stroke="black" points="199.38,-205.97 202.88,-215.97 206.38,-205.97 199.38,-205.97"/>
</g>
<!-- SharedModule -->
<g id="node6" class="node">
<title>SharedModule</title>
<polygon fill="#8dd3c7" stroke="black" points="122.42,-122 119.42,-126 98.42,-126 95.42,-122 23.58,-122 23.58,-86 122.42,-86 122.42,-122"/>
<text text-anchor="middle" x="73" y="-99.8" font-family="Times,serif" font-size="14.00">SharedModule</text>
</g>
<!-- SharedModule&#45;&gt;DialogModule -->
<g id="edge5" class="edge">
<title>SharedModule&#45;&gt;DialogModule</title>
<path fill="none" stroke="black" d="M100.1,-122.11C100.1,-141.34 100.1,-169 100.1,-169 100.1,-169 343.16,-169 343.16,-169"/>
<polygon fill="black" stroke="black" points="343.16,-172.5 353.16,-169 343.16,-165.5 343.16,-172.5"/>
</g>
</g>
</svg>
