<?xml version="1.0" encoding="UTF-8" standalone="no"?>
<!DOCTYPE svg PUBLIC "-//W3C//DTD SVG 1.1//EN"
 "http://www.w3.org/Graphics/SVG/1.1/DTD/svg11.dtd">
<!-- Generated by graphviz version 2.47.0 (20210316.0004)
 -->
<!-- Title: dependencies Pages: 1 -->
<svg width="845pt" height="284pt"
 viewBox="0.00 0.00 845.00 284.00" xmlns="http://www.w3.org/2000/svg" xmlns:xlink="http://www.w3.org/1999/xlink">
<g id="graph0" class="graph" transform="scale(1 1) rotate(0) translate(4 280)">
<title>dependencies</title>
<polygon fill="white" stroke="transparent" points="-4,4 -4,-280 841,-280 841,4 -4,4"/>
<text text-anchor="start" x="397.51" y="-42.4" font-family="sans-serif" font-weight="bold" font-size="14.00">Legend</text>
<polygon fill="#ffffb3" stroke="transparent" points="184.5,-10 184.5,-30 204.5,-30 204.5,-10 184.5,-10"/>
<text text-anchor="start" x="208.13" y="-15.4" font-family="sans-serif" font-size="14.00"> &#160;Declarations</text>
<polygon fill="#8dd3c7" stroke="transparent" points="297.5,-10 297.5,-30 317.5,-30 317.5,-10 297.5,-10"/>
<text text-anchor="start" x="321.23" y="-15.4" font-family="sans-serif" font-size="14.00"> &#160;Module</text>
<polygon fill="#80b1d3" stroke="transparent" points="383.5,-10 383.5,-30 403.5,-30 403.5,-10 383.5,-10"/>
<text text-anchor="start" x="407.28" y="-15.4" font-family="sans-serif" font-size="14.00"> &#160;Bootstrap</text>
<polygon fill="#fdb462" stroke="transparent" points="480.5,-10 480.5,-30 500.5,-30 500.5,-10 480.5,-10"/>
<text text-anchor="start" x="504.17" y="-15.4" font-family="sans-serif" font-size="14.00"> &#160;Providers</text>
<polygon fill="#fb8072" stroke="transparent" points="576.5,-10 576.5,-30 596.5,-30 596.5,-10 576.5,-10"/>
<text text-anchor="start" x="600.23" y="-15.4" font-family="sans-serif" font-size="14.00"> &#160;Exports</text>
<g id="clust1" class="cluster">
<title>cluster_DialogModule</title>
<polygon fill="none" stroke="black" stroke-dasharray="1,5" points="8,-70 8,-268 829,-268 829,-70 8,-70"/>
</g>
<g id="clust7" class="cluster">
<title>cluster_DialogModule_imports</title>
<polygon fill="none" stroke="black" points="707,-78 707,-130 821,-130 821,-78 707,-78"/>
</g>
<g id="clust2" class="cluster">
<title>cluster_DialogModule_declarations</title>
<polygon fill="none" stroke="black" points="16,-78 16,-130 699,-130 699,-78 16,-78"/>
</g>
<g id="clust8" class="cluster">
<title>cluster_DialogModule_exports</title>
<polygon fill="none" stroke="black" points="70,-208 70,-260 767,-260 767,-208 70,-208"/>
</g>
<!-- AutoLogoutComponent -->
<g id="node1" class="node">
<title>AutoLogoutComponent</title>
<polygon fill="#ffffb3" stroke="black" points="690.77,-122 541.23,-122 541.23,-86 690.77,-86 690.77,-122"/>
<text text-anchor="middle" x="616" y="-99.8" font-family="Times,serif" font-size="14.00">AutoLogoutComponent</text>
</g>
<!-- DialogModule -->
<g id="node5" class="node">
<title>DialogModule</title>
<polygon fill="#8dd3c7" stroke="black" points="488.65,-187 485.65,-191 464.65,-191 461.65,-187 391.35,-187 391.35,-151 488.65,-151 488.65,-187"/>
<text text-anchor="middle" x="440" y="-164.8" font-family="Times,serif" font-size="14.00">DialogModule</text>
</g>
<!-- AutoLogoutComponent&#45;&gt;DialogModule -->
<g id="edge1" class="edge">
<title>AutoLogoutComponent&#45;&gt;DialogModule</title>
<path fill="none" stroke="black" d="M564.26,-122.03C564.26,-138.4 564.26,-160 564.26,-160 564.26,-160 498.75,-160 498.75,-160"/>
<polygon fill="black" stroke="black" points="498.75,-156.5 488.75,-160 498.75,-163.5 498.75,-156.5"/>
</g>
<!-- ConfirmDeleteComponent -->
<g id="node2" class="node">
<title>ConfirmDeleteComponent</title>
<polygon fill="#ffffb3" stroke="black" points="522.8,-122 357.2,-122 357.2,-86 522.8,-86 522.8,-122"/>
<text text-anchor="middle" x="440" y="-99.8" font-family="Times,serif" font-size="14.00">ConfirmDeleteComponent</text>
</g>
<!-- ConfirmDeleteComponent&#45;&gt;DialogModule -->
<g id="edge2" class="edge">
<title>ConfirmDeleteComponent&#45;&gt;DialogModule</title>
<path fill="none" stroke="black" d="M440,-122.11C440,-122.11 440,-140.99 440,-140.99"/>
<polygon fill="black" stroke="black" points="436.5,-140.99 440,-150.99 443.5,-140.99 436.5,-140.99"/>
</g>
<!-- DialogComponent -->
<g id="node3" class="node">
<title>DialogComponent</title>
<polygon fill="#ffffb3" stroke="black" points="339.94,-122 220.06,-122 220.06,-86 339.94,-86 339.94,-122"/>
<text text-anchor="middle" x="280" y="-99.8" font-family="Times,serif" font-size="14.00">DialogComponent</text>
</g>
<!-- DialogComponent&#45;&gt;DialogModule -->
<g id="edge3" class="edge">
<title>DialogComponent&#45;&gt;DialogModule</title>
<path fill="none" stroke="black" d="M308.62,-122.03C308.62,-138.4 308.62,-160 308.62,-160 308.62,-160 381.08,-160 381.08,-160"/>
<polygon fill="black" stroke="black" points="381.08,-163.5 391.08,-160 381.08,-156.5 381.08,-163.5"/>
</g>
<!-- UnsavedChangesComponent -->
<g id="node4" class="node">
<title>UnsavedChangesComponent</title>
<polygon fill="#ffffb3" stroke="black" points="202.02,-122 23.98,-122 23.98,-86 202.02,-86 202.02,-122"/>
<text text-anchor="middle" x="113" y="-99.8" font-family="Times,serif" font-size="14.00">UnsavedChangesComponent</text>
</g>
<!-- UnsavedChangesComponent&#45;&gt;DialogModule -->
<g id="edge4" class="edge">
<title>UnsavedChangesComponent&#45;&gt;DialogModule</title>
<path fill="none" stroke="black" d="M140.12,-122.11C140.12,-141.34 140.12,-169 140.12,-169 140.12,-169 381.15,-169 381.15,-169"/>
<polygon fill="black" stroke="black" points="381.15,-172.5 391.15,-169 381.15,-165.5 381.15,-172.5"/>
</g>
<!-- AutoLogoutComponent  -->
<g id="node7" class="node">
<title>AutoLogoutComponent </title>
<polygon fill="#fb8072" stroke="black" points="758.77,-252 605.23,-252 605.23,-216 758.77,-216 758.77,-252"/>
<text text-anchor="middle" x="682" y="-229.8" font-family="Times,serif" font-size="14.00">AutoLogoutComponent </text>
</g>
<!-- DialogModule&#45;&gt;AutoLogoutComponent  -->
<g id="edge6" class="edge">
<title>DialogModule&#45;&gt;AutoLogoutComponent </title>
<path fill="none" stroke="black" stroke-dasharray="5,2" d="M488.8,-178C550.31,-178 648.12,-178 648.12,-178 648.12,-178 648.12,-205.97 648.12,-205.97"/>
<polygon fill="black" stroke="black" points="644.63,-205.97 648.12,-215.97 651.63,-205.97 644.63,-205.97"/>
</g>
<!-- ConfirmDeleteComponent  -->
<g id="node8" class="node">
<title>ConfirmDeleteComponent </title>
<polygon fill="#fb8072" stroke="black" points="587.3,-252 418.7,-252 418.7,-216 587.3,-216 587.3,-252"/>
<text text-anchor="middle" x="503" y="-229.8" font-family="Times,serif" font-size="14.00">ConfirmDeleteComponent </text>
</g>
<!-- DialogModule&#45;&gt;ConfirmDeleteComponent  -->
<g id="edge7" class="edge">
<title>DialogModule&#45;&gt;ConfirmDeleteComponent </title>
<path fill="none" stroke="black" stroke-dasharray="5,2" d="M453.71,-187.11C453.71,-187.11 453.71,-205.99 453.71,-205.99"/>
<polygon fill="black" stroke="black" points="450.21,-205.99 453.71,-215.99 457.21,-205.99 450.21,-205.99"/>
</g>
<!-- DialogComponent  -->
<g id="node9" class="node">
<title>DialogComponent </title>
<polygon fill="#fb8072" stroke="black" points="400.43,-252 277.57,-252 277.57,-216 400.43,-216 400.43,-252"/>
<text text-anchor="middle" x="339" y="-229.8" font-family="Times,serif" font-size="14.00">DialogComponent </text>
</g>
<!-- DialogModule&#45;&gt;DialogComponent  -->
<g id="edge8" class="edge">
<title>DialogModule&#45;&gt;DialogComponent </title>
<path fill="none" stroke="black" stroke-dasharray="5,2" d="M395.82,-187.11C395.82,-187.11 395.82,-205.99 395.82,-205.99"/>
<polygon fill="black" stroke="black" points="392.32,-205.99 395.82,-215.99 399.32,-205.99 392.32,-205.99"/>
</g>
<!-- UnsavedChangesComponent  -->
<g id="node10" class="node">
<title>UnsavedChangesComponent </title>
<polygon fill="#fb8072" stroke="black" points="260.02,-252 77.98,-252 77.98,-216 260.02,-216 260.02,-252"/>
<text text-anchor="middle" x="169" y="-229.8" font-family="Times,serif" font-size="14.00">UnsavedChangesComponent </text>
</g>
<!-- DialogModule&#45;&gt;UnsavedChangesComponent  -->
<g id="edge9" class="edge">
<title>DialogModule&#45;&gt;UnsavedChangesComponent </title>
<path fill="none" stroke="black" stroke-dasharray="5,2" d="M391.11,-178C331.94,-178 240.15,-178 240.15,-178 240.15,-178 240.15,-205.97 240.15,-205.97"/>
<polygon fill="black" stroke="black" points="236.65,-205.97 240.15,-215.97 243.65,-205.97 236.65,-205.97"/>
</g>
<!-- SharedModule -->
<g id="node6" class="node">
<title>SharedModule</title>
<polygon fill="#8dd3c7" stroke="black" points="813.42,-122 810.42,-126 789.42,-126 786.42,-122 714.58,-122 714.58,-86 813.42,-86 813.42,-122"/>
<text text-anchor="middle" x="764" y="-99.8" font-family="Times,serif" font-size="14.00">SharedModule</text>
</g>
<!-- SharedModule&#45;&gt;DialogModule -->
<g id="edge5" class="edge">
<title>SharedModule&#45;&gt;DialogModule</title>
<path fill="none" stroke="black" d="M736.71,-122.11C736.71,-141.34 736.71,-169 736.71,-169 736.71,-169 498.66,-169 498.66,-169"/>
<polygon fill="black" stroke="black" points="498.66,-165.5 488.66,-169 498.66,-172.5 498.66,-165.5"/>
</g>
</g>
</svg>
