<?xml version="1.0" encoding="UTF-8" standalone="no"?>
<!DOCTYPE svg PUBLIC "-//W3C//DTD SVG 1.1//EN"
 "http://www.w3.org/Graphics/SVG/1.1/DTD/svg11.dtd">
<!-- Generated by graphviz version 2.47.0 (20210316.0004)
 -->
<!-- Title: dependencies Pages: 1 -->
<svg width="706pt" height="284pt"
 viewBox="0.00 0.00 706.00 284.00" xmlns="http://www.w3.org/2000/svg" xmlns:xlink="http://www.w3.org/1999/xlink">
<g id="graph0" class="graph" transform="scale(1 1) rotate(0) translate(4 280)">
<title>dependencies</title>
<polygon fill="white" stroke="transparent" points="-4,4 -4,-280 702,-280 702,4 -4,4"/>
<text text-anchor="start" x="328.01" y="-42.4" font-family="sans-serif" font-weight="bold" font-size="14.00">Legend</text>
<polygon fill="#ffffb3" stroke="transparent" points="115,-10 115,-30 135,-30 135,-10 115,-10"/>
<text text-anchor="start" x="138.63" y="-15.4" font-family="sans-serif" font-size="14.00"> &#160;Declarations</text>
<polygon fill="#8dd3c7" stroke="transparent" points="228,-10 228,-30 248,-30 248,-10 228,-10"/>
<text text-anchor="start" x="251.73" y="-15.4" font-family="sans-serif" font-size="14.00"> &#160;Module</text>
<polygon fill="#80b1d3" stroke="transparent" points="314,-10 314,-30 334,-30 334,-10 314,-10"/>
<text text-anchor="start" x="337.78" y="-15.4" font-family="sans-serif" font-size="14.00"> &#160;Bootstrap</text>
<polygon fill="#fdb462" stroke="transparent" points="411,-10 411,-30 431,-30 431,-10 411,-10"/>
<text text-anchor="start" x="434.67" y="-15.4" font-family="sans-serif" font-size="14.00"> &#160;Providers</text>
<polygon fill="#fb8072" stroke="transparent" points="507,-10 507,-30 527,-30 527,-10 507,-10"/>
<text text-anchor="start" x="530.73" y="-15.4" font-family="sans-serif" font-size="14.00"> &#160;Exports</text>
<g id="clust1" class="cluster">
<title>cluster_PipesModule</title>
<polygon fill="none" stroke="black" stroke-dasharray="1,5" points="8,-70 8,-268 690,-268 690,-70 8,-70"/>
</g>
<g id="clust10" class="cluster">
<title>cluster_PipesModule_exports</title>
<polygon fill="none" stroke="black" points="16,-208 16,-260 682,-260 682,-208 16,-208"/>
</g>
<g id="clust2" class="cluster">
<title>cluster_PipesModule_declarations</title>
<polygon fill="none" stroke="black" points="29,-78 29,-130 673,-130 673,-78 29,-78"/>
</g>
<!-- ListPipe -->
<g id="node1" class="node">
<title>ListPipe</title>
<polygon fill="#ffffb3" stroke="black" points="665.17,-122 602.83,-122 602.83,-86 665.17,-86 665.17,-122"/>
<text text-anchor="middle" x="634" y="-99.8" font-family="Times,serif" font-size="14.00">ListPipe</text>
</g>
<!-- PipesModule -->
<g id="node7" class="node">
<title>PipesModule</title>
<polygon fill="#8dd3c7" stroke="black" points="343.88,-187 340.88,-191 319.88,-191 316.88,-187 254.12,-187 254.12,-151 343.88,-151 343.88,-187"/>
<text text-anchor="middle" x="299" y="-164.8" font-family="Times,serif" font-size="14.00">PipesModule</text>
</g>
<!-- ListPipe&#45;&gt;PipesModule -->
<g id="edge1" class="edge">
<title>ListPipe&#45;&gt;PipesModule</title>
<path fill="none" stroke="black" d="M646.19,-122.22C646.19,-140.83 646.19,-167 646.19,-167 646.19,-167 354.03,-167 354.03,-167"/>
<polygon fill="black" stroke="black" points="354.03,-163.5 344.03,-167 354.03,-170.5 354.03,-163.5"/>
</g>
<!-- PadLeftPipe -->
<g id="node2" class="node">
<title>PadLeftPipe</title>
<polygon fill="#ffffb3" stroke="black" points="584.7,-122 499.3,-122 499.3,-86 584.7,-86 584.7,-122"/>
<text text-anchor="middle" x="542" y="-99.8" font-family="Times,serif" font-size="14.00">PadLeftPipe</text>
</g>
<!-- PadLeftPipe&#45;&gt;PipesModule -->
<g id="edge2" class="edge">
<title>PadLeftPipe&#45;&gt;PipesModule</title>
<path fill="none" stroke="black" d="M556.95,-122.03C556.95,-139.06 556.95,-162 556.95,-162 556.95,-162 353.93,-162 353.93,-162"/>
<polygon fill="black" stroke="black" points="353.93,-158.5 343.93,-162 353.93,-165.5 353.93,-158.5"/>
</g>
<!-- PhoneNumberPipe -->
<g id="node3" class="node">
<title>PhoneNumberPipe</title>
<polygon fill="#ffffb3" stroke="black" points="481.76,-122 360.24,-122 360.24,-86 481.76,-86 481.76,-122"/>
<text text-anchor="middle" x="421" y="-99.8" font-family="Times,serif" font-size="14.00">PhoneNumberPipe</text>
</g>
<!-- PhoneNumberPipe&#45;&gt;PipesModule -->
<g id="edge3" class="edge">
<title>PhoneNumberPipe&#45;&gt;PipesModule</title>
<path fill="none" stroke="black" d="M441.29,-122.24C441.29,-137.57 441.29,-157 441.29,-157 441.29,-157 354.02,-157 354.02,-157"/>
<polygon fill="black" stroke="black" points="354.02,-153.5 344.02,-157 354.02,-160.5 354.02,-153.5"/>
</g>
<!-- SafeHtmlPipe -->
<g id="node4" class="node">
<title>SafeHtmlPipe</title>
<polygon fill="#ffffb3" stroke="black" points="342.04,-122 247.96,-122 247.96,-86 342.04,-86 342.04,-122"/>
<text text-anchor="middle" x="295" y="-99.8" font-family="Times,serif" font-size="14.00">SafeHtmlPipe</text>
</g>
<!-- SafeHtmlPipe&#45;&gt;PipesModule -->
<g id="edge4" class="edge">
<title>SafeHtmlPipe&#45;&gt;PipesModule</title>
<path fill="none" stroke="black" d="M298.16,-122.11C298.16,-122.11 298.16,-140.99 298.16,-140.99"/>
<polygon fill="black" stroke="black" points="294.66,-140.99 298.16,-150.99 301.66,-140.99 294.66,-140.99"/>
</g>
<!-- TimeAgoPipe -->
<g id="node5" class="node">
<title>TimeAgoPipe</title>
<polygon fill="#ffffb3" stroke="black" points="229.04,-122 134.96,-122 134.96,-86 229.04,-86 229.04,-122"/>
<text text-anchor="middle" x="182" y="-99.8" font-family="Times,serif" font-size="14.00">TimeAgoPipe</text>
</g>
<!-- TimeAgoPipe&#45;&gt;PipesModule -->
<g id="edge5" class="edge">
<title>TimeAgoPipe&#45;&gt;PipesModule</title>
<path fill="none" stroke="black" d="M194.26,-122.01C194.26,-138.05 194.26,-159 194.26,-159 194.26,-159 243.97,-159 243.97,-159"/>
<polygon fill="black" stroke="black" points="243.97,-162.5 253.97,-159 243.97,-155.5 243.97,-162.5"/>
</g>
<!-- YesNoPipe -->
<g id="node6" class="node">
<title>YesNoPipe</title>
<polygon fill="#ffffb3" stroke="black" points="116.76,-122 37.24,-122 37.24,-86 116.76,-86 116.76,-122"/>
<text text-anchor="middle" x="77" y="-99.8" font-family="Times,serif" font-size="14.00">YesNoPipe</text>
</g>
<!-- YesNoPipe&#45;&gt;PipesModule -->
<g id="edge6" class="edge">
<title>YesNoPipe&#45;&gt;PipesModule</title>
<path fill="none" stroke="black" d="M112.26,-122.27C112.26,-140.56 112.26,-166 112.26,-166 112.26,-166 243.79,-166 243.79,-166"/>
<polygon fill="black" stroke="black" points="243.79,-169.5 253.79,-166 243.79,-162.5 243.79,-169.5"/>
</g>
<!-- ListPipe  -->
<g id="node8" class="node">
<title>ListPipe </title>
<polygon fill="#fb8072" stroke="black" points="674.17,-252 607.83,-252 607.83,-216 674.17,-216 674.17,-252"/>
<text text-anchor="middle" x="641" y="-229.8" font-family="Times,serif" font-size="14.00">ListPipe </text>
</g>
<!-- PipesModule&#45;&gt;ListPipe  -->
<g id="edge7" class="edge">
<title>PipesModule&#45;&gt;ListPipe </title>
<path fill="none" stroke="black" stroke-dasharray="5,2" d="M343.93,-172C433.77,-172 627.06,-172 627.06,-172 627.06,-172 627.06,-205.73 627.06,-205.73"/>
<polygon fill="black" stroke="black" points="623.56,-205.73 627.06,-215.73 630.56,-205.73 623.56,-205.73"/>
</g>
<!-- PadLeftPipe  -->
<g id="node9" class="node">
<title>PadLeftPipe </title>
<polygon fill="#fb8072" stroke="black" points="590.2,-252 501.8,-252 501.8,-216 590.2,-216 590.2,-252"/>
<text text-anchor="middle" x="546" y="-229.8" font-family="Times,serif" font-size="14.00">PadLeftPipe </text>
</g>
<!-- PipesModule&#45;&gt;PadLeftPipe  -->
<g id="edge8" class="edge">
<title>PipesModule&#45;&gt;PadLeftPipe </title>
<path fill="none" stroke="black" stroke-dasharray="5,2" d="M343.95,-177C410.97,-177 529.3,-177 529.3,-177 529.3,-177 529.3,-205.96 529.3,-205.96"/>
<polygon fill="black" stroke="black" points="525.8,-205.96 529.3,-215.96 532.8,-205.96 525.8,-205.96"/>
</g>
<!-- PhoneNumberPipe  -->
<g id="node10" class="node">
<title>PhoneNumberPipe </title>
<polygon fill="#fb8072" stroke="black" points="483.76,-252 358.24,-252 358.24,-216 483.76,-216 483.76,-252"/>
<text text-anchor="middle" x="421" y="-229.8" font-family="Times,serif" font-size="14.00">PhoneNumberPipe </text>
</g>
<!-- PipesModule&#45;&gt;PhoneNumberPipe  -->
<g id="edge9" class="edge">
<title>PipesModule&#45;&gt;PhoneNumberPipe </title>
<path fill="none" stroke="black" stroke-dasharray="5,2" d="M343.91,-182C371.15,-182 400.71,-182 400.71,-182 400.71,-182 400.71,-205.81 400.71,-205.81"/>
<polygon fill="black" stroke="black" points="397.21,-205.81 400.71,-215.81 404.21,-205.81 397.21,-205.81"/>
</g>
<!-- SafeHtmlPipe  -->
<g id="node11" class="node">
<title>SafeHtmlPipe </title>
<polygon fill="#fb8072" stroke="black" points="340.04,-252 241.96,-252 241.96,-216 340.04,-216 340.04,-252"/>
<text text-anchor="middle" x="291" y="-229.8" font-family="Times,serif" font-size="14.00">SafeHtmlPipe </text>
</g>
<!-- PipesModule&#45;&gt;SafeHtmlPipe  -->
<g id="edge10" class="edge">
<title>PipesModule&#45;&gt;SafeHtmlPipe </title>
<path fill="none" stroke="black" stroke-dasharray="5,2" d="M297.04,-187.11C297.04,-187.11 297.04,-205.99 297.04,-205.99"/>
<polygon fill="black" stroke="black" points="293.54,-205.99 297.04,-215.99 300.54,-205.99 293.54,-205.99"/>
</g>
<!-- TimeAgoPipe  -->
<g id="node12" class="node">
<title>TimeAgoPipe </title>
<polygon fill="#fb8072" stroke="black" points="224.04,-252 125.96,-252 125.96,-216 224.04,-216 224.04,-252"/>
<text text-anchor="middle" x="175" y="-229.8" font-family="Times,serif" font-size="14.00">TimeAgoPipe </text>
</g>
<!-- PipesModule&#45;&gt;TimeAgoPipe  -->
<g id="edge11" class="edge">
<title>PipesModule&#45;&gt;TimeAgoPipe </title>
<path fill="none" stroke="black" stroke-dasharray="5,2" d="M253.84,-180C214.76,-180 164.49,-180 164.49,-180 164.49,-180 164.49,-205.72 164.49,-205.72"/>
<polygon fill="black" stroke="black" points="160.99,-205.72 164.49,-215.72 167.99,-205.72 160.99,-205.72"/>
</g>
<!-- YesNoPipe  -->
<g id="node13" class="node">
<title>YesNoPipe </title>
<polygon fill="#fb8072" stroke="black" points="107.76,-252 24.24,-252 24.24,-216 107.76,-216 107.76,-252"/>
<text text-anchor="middle" x="66" y="-229.8" font-family="Times,serif" font-size="14.00">YesNoPipe </text>
</g>
<!-- PipesModule&#45;&gt;YesNoPipe  -->
<g id="edge12" class="edge">
<title>PipesModule&#45;&gt;YesNoPipe </title>
<path fill="none" stroke="black" stroke-dasharray="5,2" d="M253.96,-173C187.86,-173 72.38,-173 72.38,-173 72.38,-173 72.38,-205.7 72.38,-205.7"/>
<polygon fill="black" stroke="black" points="68.88,-205.7 72.38,-215.7 75.88,-205.7 68.88,-205.7"/>
</g>
</g>
</svg>
