<?xml version="1.0" encoding="UTF-8" standalone="no"?>
<!DOCTYPE svg PUBLIC "-//W3C//DTD SVG 1.1//EN"
 "http://www.w3.org/Graphics/SVG/1.1/DTD/svg11.dtd">
<!-- Generated by graphviz version 2.47.0 (20210316.0004)
 -->
<!-- Title: dependencies Pages: 1 -->
<svg width="504pt" height="284pt"
 viewBox="0.00 0.00 504.00 284.00" xmlns="http://www.w3.org/2000/svg" xmlns:xlink="http://www.w3.org/1999/xlink">
<g id="graph0" class="graph" transform="scale(1 1) rotate(0) translate(4 280)">
<title>dependencies</title>
<polygon fill="white" stroke="transparent" points="-4,4 -4,-280 500,-280 500,4 -4,4"/>
<text text-anchor="start" x="227.01" y="-42.4" font-family="sans-serif" font-weight="bold" font-size="14.00">Legend</text>
<polygon fill="#ffffb3" stroke="transparent" points="14,-10 14,-30 34,-30 34,-10 14,-10"/>
<text text-anchor="start" x="37.63" y="-15.4" font-family="sans-serif" font-size="14.00"> &#160;Declarations</text>
<polygon fill="#8dd3c7" stroke="transparent" points="127,-10 127,-30 147,-30 147,-10 127,-10"/>
<text text-anchor="start" x="150.73" y="-15.4" font-family="sans-serif" font-size="14.00"> &#160;Module</text>
<polygon fill="#80b1d3" stroke="transparent" points="213,-10 213,-30 233,-30 233,-10 213,-10"/>
<text text-anchor="start" x="236.78" y="-15.4" font-family="sans-serif" font-size="14.00"> &#160;Bootstrap</text>
<polygon fill="#fdb462" stroke="transparent" points="310,-10 310,-30 330,-30 330,-10 310,-10"/>
<text text-anchor="start" x="333.67" y="-15.4" font-family="sans-serif" font-size="14.00"> &#160;Providers</text>
<polygon fill="#fb8072" stroke="transparent" points="406,-10 406,-30 426,-30 426,-10 406,-10"/>
<text text-anchor="start" x="429.73" y="-15.4" font-family="sans-serif" font-size="14.00"> &#160;Exports</text>
<g id="clust1" class="cluster">
<title>cluster_WallpaperModule</title>
<polygon fill="none" stroke="black" stroke-dasharray="1,5" points="40,-70 40,-268 456,-268 456,-70 40,-70"/>
</g>
<g id="clust5" class="cluster">
<title>cluster_WallpaperModule_exports</title>
<polygon fill="none" stroke="black" points="144,-208 144,-260 304,-260 304,-208 144,-208"/>
</g>
<g id="clust2" class="cluster">
<title>cluster_WallpaperModule_declarations</title>
<polygon fill="none" stroke="black" points="292,-78 292,-130 448,-130 448,-78 292,-78"/>
</g>
<g id="clust4" class="cluster">
<title>cluster_WallpaperModule_imports</title>
<polygon fill="none" stroke="black" points="48,-78 48,-130 284,-130 284,-78 48,-78"/>
</g>
<!-- WallpaperComponent -->
<g id="node1" class="node">
<title>WallpaperComponent</title>
<polygon fill="#ffffb3" stroke="black" points="439.63,-122 300.37,-122 300.37,-86 439.63,-86 439.63,-122"/>
<text text-anchor="middle" x="370" y="-99.8" font-family="Times,serif" font-size="14.00">WallpaperComponent</text>
</g>
<!-- WallpaperModule -->
<g id="node2" class="node">
<title>WallpaperModule</title>
<polygon fill="#8dd3c7" stroke="black" points="282.85,-187 279.85,-191 258.85,-191 255.85,-187 165.15,-187 165.15,-151 282.85,-151 282.85,-187"/>
<text text-anchor="middle" x="224" y="-164.8" font-family="Times,serif" font-size="14.00">WallpaperModule</text>
</g>
<!-- WallpaperComponent&#45;&gt;WallpaperModule -->
<g id="edge1" class="edge">
<title>WallpaperComponent&#45;&gt;WallpaperModule</title>
<path fill="none" stroke="black" d="M300.29,-104C288.1,-104 279.24,-104 279.24,-104 279.24,-104 279.24,-140.89 279.24,-140.89"/>
<polygon fill="black" stroke="black" points="275.74,-140.89 279.24,-150.89 282.74,-140.89 275.74,-140.89"/>
</g>
<!-- WallpaperComponent  -->
<g id="node5" class="node">
<title>WallpaperComponent </title>
<polygon fill="#fb8072" stroke="black" points="295.63,-252 152.37,-252 152.37,-216 295.63,-216 295.63,-252"/>
<text text-anchor="middle" x="224" y="-229.8" font-family="Times,serif" font-size="14.00">WallpaperComponent </text>
</g>
<!-- WallpaperModule&#45;&gt;WallpaperComponent  -->
<g id="edge4" class="edge">
<title>WallpaperModule&#45;&gt;WallpaperComponent </title>
<path fill="none" stroke="black" stroke-dasharray="5,2" d="M224,-187.11C224,-187.11 224,-205.99 224,-205.99"/>
<polygon fill="black" stroke="black" points="220.5,-205.99 224,-215.99 227.5,-205.99 220.5,-205.99"/>
</g>
<!-- CollageModule -->
<g id="node3" class="node">
<title>CollageModule</title>
<polygon fill="#8dd3c7" stroke="black" points="275.6,-122 272.6,-126 251.6,-126 248.6,-122 172.4,-122 172.4,-86 275.6,-86 275.6,-122"/>
<text text-anchor="middle" x="224" y="-99.8" font-family="Times,serif" font-size="14.00">CollageModule</text>
</g>
<!-- CollageModule&#45;&gt;WallpaperModule -->
<g id="edge2" class="edge">
<title>CollageModule&#45;&gt;WallpaperModule</title>
<path fill="none" stroke="black" d="M224,-122.11C224,-122.11 224,-140.99 224,-140.99"/>
<polygon fill="black" stroke="black" points="220.5,-140.99 224,-150.99 227.5,-140.99 220.5,-140.99"/>
</g>
<!-- SharedModule -->
<g id="node4" class="node">
<title>SharedModule</title>
<polygon fill="#8dd3c7" stroke="black" points="154.42,-122 151.42,-126 130.42,-126 127.42,-122 55.58,-122 55.58,-86 154.42,-86 154.42,-122"/>
<text text-anchor="middle" x="105" y="-99.8" font-family="Times,serif" font-size="14.00">SharedModule</text>
</g>
<!-- SharedModule&#45;&gt;WallpaperModule -->
<g id="edge3" class="edge">
<title>SharedModule&#45;&gt;WallpaperModule</title>
<path fill="none" stroke="black" d="M154.29,-104C162.69,-104 168.76,-104 168.76,-104 168.76,-104 168.76,-140.89 168.76,-140.89"/>
<polygon fill="black" stroke="black" points="165.26,-140.89 168.76,-150.89 172.26,-140.89 165.26,-140.89"/>
</g>
</g>
</svg>
