<?xml version="1.0" encoding="UTF-8" standalone="no"?>
<!DOCTYPE svg PUBLIC "-//W3C//DTD SVG 1.1//EN"
 "http://www.w3.org/Graphics/SVG/1.1/DTD/svg11.dtd">
<!-- Generated by graphviz version 2.47.0 (20210316.0004)
 -->
<!-- Title: dependencies Pages: 1 -->
<svg width="504pt" height="284pt"
 viewBox="0.00 0.00 504.00 284.00" xmlns="http://www.w3.org/2000/svg" xmlns:xlink="http://www.w3.org/1999/xlink">
<g id="graph0" class="graph" transform="scale(1 1) rotate(0) translate(4 280)">
<title>dependencies</title>
<polygon fill="white" stroke="transparent" points="-4,4 -4,-280 500,-280 500,4 -4,4"/>
<text text-anchor="start" x="227.01" y="-42.4" font-family="sans-serif" font-weight="bold" font-size="14.00">Legend</text>
<polygon fill="#ffffb3" stroke="transparent" points="14,-10 14,-30 34,-30 34,-10 14,-10"/>
<text text-anchor="start" x="37.63" y="-15.4" font-family="sans-serif" font-size="14.00"> &#160;Declarations</text>
<polygon fill="#8dd3c7" stroke="transparent" points="127,-10 127,-30 147,-30 147,-10 127,-10"/>
<text text-anchor="start" x="150.73" y="-15.4" font-family="sans-serif" font-size="14.00"> &#160;Module</text>
<polygon fill="#80b1d3" stroke="transparent" points="213,-10 213,-30 233,-30 233,-10 213,-10"/>
<text text-anchor="start" x="236.78" y="-15.4" font-family="sans-serif" font-size="14.00"> &#160;Bootstrap</text>
<polygon fill="#fdb462" stroke="transparent" points="310,-10 310,-30 330,-30 330,-10 310,-10"/>
<text text-anchor="start" x="333.67" y="-15.4" font-family="sans-serif" font-size="14.00"> &#160;Providers</text>
<polygon fill="#fb8072" stroke="transparent" points="406,-10 406,-30 426,-30 426,-10 406,-10"/>
<text text-anchor="start" x="429.73" y="-15.4" font-family="sans-serif" font-size="14.00"> &#160;Exports</text>
<g id="clust1" class="cluster">
<title>cluster_WallpaperModule</title>
<polygon fill="none" stroke="black" stroke-dasharray="1,5" points="40,-70 40,-268 456,-268 456,-70 40,-70"/>
</g>
<g id="clust4" class="cluster">
<title>cluster_WallpaperModule_imports</title>
<polygon fill="none" stroke="black" points="212,-78 212,-130 448,-130 448,-78 212,-78"/>
</g>
<g id="clust5" class="cluster">
<title>cluster_WallpaperModule_exports</title>
<polygon fill="none" stroke="black" points="189,-208 189,-260 349,-260 349,-208 189,-208"/>
</g>
<g id="clust2" class="cluster">
<title>cluster_WallpaperModule_declarations</title>
<polygon fill="none" stroke="black" points="48,-78 48,-130 204,-130 204,-78 48,-78"/>
</g>
<!-- WallpaperComponent -->
<g id="node1" class="node">
<title>WallpaperComponent</title>
<polygon fill="#ffffb3" stroke="black" points="195.63,-122 56.37,-122 56.37,-86 195.63,-86 195.63,-122"/>
<text text-anchor="middle" x="126" y="-99.8" font-family="Times,serif" font-size="14.00">WallpaperComponent</text>
</g>
<!-- WallpaperModule -->
<g id="node2" class="node">
<title>WallpaperModule</title>
<polygon fill="#8dd3c7" stroke="black" points="327.85,-187 324.85,-191 303.85,-191 300.85,-187 210.15,-187 210.15,-151 327.85,-151 327.85,-187"/>
<text text-anchor="middle" x="269" y="-164.8" font-family="Times,serif" font-size="14.00">WallpaperModule</text>
</g>
<!-- WallpaperComponent&#45;&gt;WallpaperModule -->
<g id="edge1" class="edge">
<title>WallpaperComponent&#45;&gt;WallpaperModule</title>
<path fill="none" stroke="black" d="M195.64,-104C206.89,-104 214.93,-104 214.93,-104 214.93,-104 214.93,-140.89 214.93,-140.89"/>
<polygon fill="black" stroke="black" points="211.43,-140.89 214.93,-150.89 218.43,-140.89 211.43,-140.89"/>
</g>
<!-- WallpaperComponent  -->
<g id="node5" class="node">
<title>WallpaperComponent </title>
<polygon fill="#fb8072" stroke="black" points="340.63,-252 197.37,-252 197.37,-216 340.63,-216 340.63,-252"/>
<text text-anchor="middle" x="269" y="-229.8" font-family="Times,serif" font-size="14.00">WallpaperComponent </text>
</g>
<!-- WallpaperModule&#45;&gt;WallpaperComponent  -->
<g id="edge4" class="edge">
<title>WallpaperModule&#45;&gt;WallpaperComponent </title>
<path fill="none" stroke="black" stroke-dasharray="5,2" d="M269,-187.11C269,-187.11 269,-205.99 269,-205.99"/>
<polygon fill="black" stroke="black" points="265.5,-205.99 269,-215.99 272.5,-205.99 265.5,-205.99"/>
</g>
<!-- CollageModule -->
<g id="node3" class="node">
<title>CollageModule</title>
<polygon fill="#8dd3c7" stroke="black" points="439.6,-122 436.6,-126 415.6,-126 412.6,-122 336.4,-122 336.4,-86 439.6,-86 439.6,-122"/>
<text text-anchor="middle" x="388" y="-99.8" font-family="Times,serif" font-size="14.00">CollageModule</text>
</g>
<!-- CollageModule&#45;&gt;WallpaperModule -->
<g id="edge2" class="edge">
<title>CollageModule&#45;&gt;WallpaperModule</title>
<path fill="none" stroke="black" d="M336.21,-104C328.49,-104 323.07,-104 323.07,-104 323.07,-104 323.07,-140.89 323.07,-140.89"/>
<polygon fill="black" stroke="black" points="319.57,-140.89 323.07,-150.89 326.57,-140.89 319.57,-140.89"/>
</g>
<!-- SharedModule -->
<g id="node4" class="node">
<title>SharedModule</title>
<polygon fill="#8dd3c7" stroke="black" points="318.42,-122 315.42,-126 294.42,-126 291.42,-122 219.58,-122 219.58,-86 318.42,-86 318.42,-122"/>
<text text-anchor="middle" x="269" y="-99.8" font-family="Times,serif" font-size="14.00">SharedModule</text>
</g>
<!-- SharedModule&#45;&gt;WallpaperModule -->
<g id="edge3" class="edge">
<title>SharedModule&#45;&gt;WallpaperModule</title>
<path fill="none" stroke="black" d="M269,-122.11C269,-122.11 269,-140.99 269,-140.99"/>
<polygon fill="black" stroke="black" points="265.5,-140.99 269,-150.99 272.5,-140.99 265.5,-140.99"/>
</g>
</g>
</svg>
