<?xml version="1.0" encoding="UTF-8" standalone="no"?>
<!DOCTYPE svg PUBLIC "-//W3C//DTD SVG 1.1//EN"
 "http://www.w3.org/Graphics/SVG/1.1/DTD/svg11.dtd">
<!-- Generated by graphviz version 2.47.0 (20210316.0004)
 -->
<!-- Title: dependencies Pages: 1 -->
<svg width="768pt" height="284pt"
 viewBox="0.00 0.00 768.00 284.00" xmlns="http://www.w3.org/2000/svg" xmlns:xlink="http://www.w3.org/1999/xlink">
<g id="graph0" class="graph" transform="scale(1 1) rotate(0) translate(4 280)">
<title>dependencies</title>
<polygon fill="white" stroke="transparent" points="-4,4 -4,-280 764,-280 764,4 -4,4"/>
<text text-anchor="start" x="359.01" y="-42.4" font-family="sans-serif" font-weight="bold" font-size="14.00">Legend</text>
<polygon fill="#ffffb3" stroke="transparent" points="146,-10 146,-30 166,-30 166,-10 146,-10"/>
<text text-anchor="start" x="169.63" y="-15.4" font-family="sans-serif" font-size="14.00"> &#160;Declarations</text>
<polygon fill="#8dd3c7" stroke="transparent" points="259,-10 259,-30 279,-30 279,-10 259,-10"/>
<text text-anchor="start" x="282.73" y="-15.4" font-family="sans-serif" font-size="14.00"> &#160;Module</text>
<polygon fill="#80b1d3" stroke="transparent" points="345,-10 345,-30 365,-30 365,-10 345,-10"/>
<text text-anchor="start" x="368.78" y="-15.4" font-family="sans-serif" font-size="14.00"> &#160;Bootstrap</text>
<polygon fill="#fdb462" stroke="transparent" points="442,-10 442,-30 462,-30 462,-10 442,-10"/>
<text text-anchor="start" x="465.67" y="-15.4" font-family="sans-serif" font-size="14.00"> &#160;Providers</text>
<polygon fill="#fb8072" stroke="transparent" points="538,-10 538,-30 558,-30 558,-10 538,-10"/>
<text text-anchor="start" x="561.73" y="-15.4" font-family="sans-serif" font-size="14.00"> &#160;Exports</text>
<g id="clust1" class="cluster">
<title>cluster_GridModule</title>
<polygon fill="none" stroke="black" stroke-dasharray="1,5" points="8,-70 8,-268 752,-268 752,-70 8,-70"/>
</g>
<g id="clust2" class="cluster">
<title>cluster_GridModule_declarations</title>
<polygon fill="none" stroke="black" points="138,-78 138,-130 744,-130 744,-78 138,-78"/>
</g>
<g id="clust7" class="cluster">
<title>cluster_GridModule_imports</title>
<polygon fill="none" stroke="black" points="16,-78 16,-130 130,-130 130,-78 16,-78"/>
</g>
<g id="clust8" class="cluster">
<title>cluster_GridModule_exports</title>
<polygon fill="none" stroke="black" points="133,-208 133,-260 601,-260 601,-208 133,-208"/>
</g>
<!-- GridCellComponent -->
<g id="node1" class="node">
<title>GridCellComponent</title>
<polygon fill="#ffffb3" stroke="black" points="736.32,-122 605.68,-122 605.68,-86 736.32,-86 736.32,-122"/>
<text text-anchor="middle" x="671" y="-99.8" font-family="Times,serif" font-size="14.00">GridCellComponent</text>
</g>
<!-- GridModule -->
<g id="node5" class="node">
<title>GridModule</title>
<polygon fill="#8dd3c7" stroke="black" points="406.71,-187 403.71,-191 382.71,-191 379.71,-187 321.29,-187 321.29,-151 406.71,-151 406.71,-187"/>
<text text-anchor="middle" x="364" y="-164.8" font-family="Times,serif" font-size="14.00">GridModule</text>
</g>
<!-- GridCellComponent&#45;&gt;GridModule -->
<g id="edge1" class="edge">
<title>GridCellComponent&#45;&gt;GridModule</title>
<path fill="none" stroke="black" d="M671,-122.11C671,-141.34 671,-169 671,-169 671,-169 416.69,-169 416.69,-169"/>
<polygon fill="black" stroke="black" points="416.69,-165.5 406.69,-169 416.69,-172.5 416.69,-165.5"/>
</g>
<!-- GridColumnComponent -->
<g id="node2" class="node">
<title>GridColumnComponent</title>
<polygon fill="#ffffb3" stroke="black" points="588.11,-122 435.89,-122 435.89,-86 588.11,-86 588.11,-122"/>
<text text-anchor="middle" x="512" y="-99.8" font-family="Times,serif" font-size="14.00">GridColumnComponent</text>
</g>
<!-- GridColumnComponent&#45;&gt;GridModule -->
<g id="edge2" class="edge">
<title>GridColumnComponent&#45;&gt;GridModule</title>
<path fill="none" stroke="black" d="M537.77,-122.03C537.77,-138.4 537.77,-160 537.77,-160 537.77,-160 416.95,-160 416.95,-160"/>
<polygon fill="black" stroke="black" points="416.95,-156.5 406.95,-160 416.95,-163.5 416.95,-156.5"/>
</g>
<!-- GridComponent -->
<g id="node3" class="node">
<title>GridComponent</title>
<polygon fill="#ffffb3" stroke="black" points="417.49,-122 310.51,-122 310.51,-86 417.49,-86 417.49,-122"/>
<text text-anchor="middle" x="364" y="-99.8" font-family="Times,serif" font-size="14.00">GridComponent</text>
</g>
<!-- GridComponent&#45;&gt;GridModule -->
<g id="edge3" class="edge">
<title>GridComponent&#45;&gt;GridModule</title>
<path fill="none" stroke="black" d="M364,-122.11C364,-122.11 364,-140.99 364,-140.99"/>
<polygon fill="black" stroke="black" points="360.5,-140.99 364,-150.99 367.5,-140.99 360.5,-140.99"/>
</g>
<!-- SimpleGridComponent -->
<g id="node4" class="node">
<title>SimpleGridComponent</title>
<polygon fill="#ffffb3" stroke="black" points="292.16,-122 145.84,-122 145.84,-86 292.16,-86 292.16,-122"/>
<text text-anchor="middle" x="219" y="-99.8" font-family="Times,serif" font-size="14.00">SimpleGridComponent</text>
</g>
<!-- SimpleGridComponent&#45;&gt;GridModule -->
<g id="edge4" class="edge">
<title>SimpleGridComponent&#45;&gt;GridModule</title>
<path fill="none" stroke="black" d="M242.61,-122.03C242.61,-138.4 242.61,-160 242.61,-160 242.61,-160 311.2,-160 311.2,-160"/>
<polygon fill="black" stroke="black" points="311.2,-163.5 321.2,-160 311.2,-156.5 311.2,-163.5"/>
</g>
<!-- GridColumnComponent  -->
<g id="node7" class="node">
<title>GridColumnComponent </title>
<polygon fill="#fb8072" stroke="black" points="592.61,-252 437.39,-252 437.39,-216 592.61,-216 592.61,-252"/>
<text text-anchor="middle" x="515" y="-229.8" font-family="Times,serif" font-size="14.00">GridColumnComponent </text>
</g>
<!-- GridModule&#45;&gt;GridColumnComponent  -->
<g id="edge6" class="edge">
<title>GridModule&#45;&gt;GridColumnComponent </title>
<path fill="none" stroke="black" stroke-dasharray="5,2" d="M406.84,-178C442.51,-178 487.48,-178 487.48,-178 487.48,-178 487.48,-205.97 487.48,-205.97"/>
<polygon fill="black" stroke="black" points="483.98,-205.97 487.48,-215.97 490.98,-205.97 483.98,-205.97"/>
</g>
<!-- GridComponent  -->
<g id="node8" class="node">
<title>GridComponent </title>
<polygon fill="#fb8072" stroke="black" points="419.49,-252 308.51,-252 308.51,-216 419.49,-216 419.49,-252"/>
<text text-anchor="middle" x="364" y="-229.8" font-family="Times,serif" font-size="14.00">GridComponent </text>
</g>
<!-- GridModule&#45;&gt;GridComponent  -->
<g id="edge7" class="edge">
<title>GridModule&#45;&gt;GridComponent </title>
<path fill="none" stroke="black" stroke-dasharray="5,2" d="M364,-187.11C364,-187.11 364,-205.99 364,-205.99"/>
<polygon fill="black" stroke="black" points="360.5,-205.99 364,-215.99 367.5,-205.99 360.5,-205.99"/>
</g>
<!-- SimpleGridComponent  -->
<g id="node9" class="node">
<title>SimpleGridComponent </title>
<polygon fill="#fb8072" stroke="black" points="291.16,-252 140.84,-252 140.84,-216 291.16,-216 291.16,-252"/>
<text text-anchor="middle" x="216" y="-229.8" font-family="Times,serif" font-size="14.00">SimpleGridComponent </text>
</g>
<!-- GridModule&#45;&gt;SimpleGridComponent  -->
<g id="edge8" class="edge">
<title>GridModule&#45;&gt;SimpleGridComponent </title>
<path fill="none" stroke="black" stroke-dasharray="5,2" d="M321.14,-178C270.82,-178 194.14,-178 194.14,-178 194.14,-178 194.14,-205.97 194.14,-205.97"/>
<polygon fill="black" stroke="black" points="190.64,-205.97 194.14,-215.97 197.64,-205.97 190.64,-205.97"/>
</g>
<!-- SharedModule -->
<g id="node6" class="node">
<title>SharedModule</title>
<polygon fill="#8dd3c7" stroke="black" points="122.42,-122 119.42,-126 98.42,-126 95.42,-122 23.58,-122 23.58,-86 122.42,-86 122.42,-122"/>
<text text-anchor="middle" x="73" y="-99.8" font-family="Times,serif" font-size="14.00">SharedModule</text>
</g>
<!-- SharedModule&#45;&gt;GridModule -->
<g id="edge5" class="edge">
<title>SharedModule&#45;&gt;GridModule</title>
<path fill="none" stroke="black" d="M73,-122.11C73,-141.34 73,-169 73,-169 73,-169 311.37,-169 311.37,-169"/>
<polygon fill="black" stroke="black" points="311.37,-172.5 321.37,-169 311.37,-165.5 311.37,-172.5"/>
</g>
</g>
</svg>
