<?xml version="1.0" encoding="UTF-8" standalone="no"?>
<!DOCTYPE svg PUBLIC "-//W3C//DTD SVG 1.1//EN"
 "http://www.w3.org/Graphics/SVG/1.1/DTD/svg11.dtd">
<!-- Generated by graphviz version 2.47.0 (20210316.0004)
 -->
<!-- Title: dependencies Pages: 1 -->
<svg width="1205pt" height="349pt"
 viewBox="0.00 0.00 1205.00 349.00" xmlns="http://www.w3.org/2000/svg" xmlns:xlink="http://www.w3.org/1999/xlink">
<g id="graph0" class="graph" transform="scale(1 1) rotate(0) translate(4 345)">
<title>dependencies</title>
<polygon fill="white" stroke="transparent" points="-4,4 -4,-345 1201,-345 1201,4 -4,4"/>
<text text-anchor="start" x="577.51" y="-42.4" font-family="sans-serif" font-weight="bold" font-size="14.00">Legend</text>
<polygon fill="#ffffb3" stroke="transparent" points="364.5,-10 364.5,-30 384.5,-30 384.5,-10 364.5,-10"/>
<text text-anchor="start" x="388.13" y="-15.4" font-family="sans-serif" font-size="14.00"> &#160;Declarations</text>
<polygon fill="#8dd3c7" stroke="transparent" points="477.5,-10 477.5,-30 497.5,-30 497.5,-10 477.5,-10"/>
<text text-anchor="start" x="501.23" y="-15.4" font-family="sans-serif" font-size="14.00"> &#160;Module</text>
<polygon fill="#80b1d3" stroke="transparent" points="563.5,-10 563.5,-30 583.5,-30 583.5,-10 563.5,-10"/>
<text text-anchor="start" x="587.28" y="-15.4" font-family="sans-serif" font-size="14.00"> &#160;Bootstrap</text>
<polygon fill="#fdb462" stroke="transparent" points="660.5,-10 660.5,-30 680.5,-30 680.5,-10 660.5,-10"/>
<text text-anchor="start" x="684.17" y="-15.4" font-family="sans-serif" font-size="14.00"> &#160;Providers</text>
<polygon fill="#fb8072" stroke="transparent" points="756.5,-10 756.5,-30 776.5,-30 776.5,-10 756.5,-10"/>
<text text-anchor="start" x="780.23" y="-15.4" font-family="sans-serif" font-size="14.00"> &#160;Exports</text>
<g id="clust1" class="cluster">
<title>cluster_FileUploadModule</title>
<polygon fill="none" stroke="black" stroke-dasharray="1,5" points="8,-70 8,-333 1189,-333 1189,-70 8,-70"/>
</g>
<g id="clust2" class="cluster">
<title>cluster_FileUploadModule_declarations</title>
<polygon fill="none" stroke="black" points="252,-143 252,-195 1181,-195 1181,-143 252,-143"/>
</g>
<g id="clust10" class="cluster">
<title>cluster_FileUploadModule_exports</title>
<polygon fill="none" stroke="black" points="170,-273 170,-325 966,-325 966,-273 170,-273"/>
</g>
<g id="clust5" class="cluster">
<title>cluster_FileUploadModule_FileUploadComponent_providers</title>
<polygon fill="none" stroke="black" points="632,-78 632,-130 908,-130 908,-78 632,-78"/>
</g>
<g id="clust9" class="cluster">
<title>cluster_FileUploadModule_imports</title>
<polygon fill="none" stroke="black" points="16,-143 16,-195 244,-195 244,-143 16,-143"/>
</g>
<!-- FileControlComponent -->
<g id="node1" class="node">
<title>FileControlComponent</title>
<polygon fill="#ffffb3" stroke="black" points="1172.89,-187 1027.11,-187 1027.11,-151 1172.89,-151 1172.89,-187"/>
<text text-anchor="middle" x="1100" y="-164.8" font-family="Times,serif" font-size="14.00">FileControlComponent</text>
</g>
<!-- FileUploadModule -->
<g id="node7" class="node">
<title>FileUploadModule</title>
<polygon fill="#8dd3c7" stroke="black" points="607.04,-252 604.04,-256 583.04,-256 580.04,-252 484.96,-252 484.96,-216 607.04,-216 607.04,-252"/>
<text text-anchor="middle" x="546" y="-229.8" font-family="Times,serif" font-size="14.00">FileUploadModule</text>
</g>
<!-- FileControlComponent&#45;&gt;FileUploadModule -->
<g id="edge1" class="edge">
<title>FileControlComponent&#45;&gt;FileUploadModule</title>
<path fill="none" stroke="black" d="M1100,-187.11C1100,-206.34 1100,-234 1100,-234 1100,-234 617.14,-234 617.14,-234"/>
<polygon fill="black" stroke="black" points="617.14,-230.5 607.14,-234 617.14,-237.5 617.14,-230.5"/>
</g>
<!-- FilePreviewComponent -->
<g id="node2" class="node">
<title>FilePreviewComponent</title>
<polygon fill="#ffffb3" stroke="black" points="1009.48,-187 860.52,-187 860.52,-151 1009.48,-151 1009.48,-187"/>
<text text-anchor="middle" x="935" y="-164.8" font-family="Times,serif" font-size="14.00">FilePreviewComponent</text>
</g>
<!-- FilePreviewComponent&#45;&gt;FileUploadModule -->
<g id="edge2" class="edge">
<title>FilePreviewComponent&#45;&gt;FileUploadModule</title>
<path fill="none" stroke="black" d="M909.1,-187.02C909.1,-204.37 909.1,-228 909.1,-228 909.1,-228 617.18,-228 617.18,-228"/>
<polygon fill="black" stroke="black" points="617.18,-224.5 607.18,-228 617.18,-231.5 617.18,-224.5"/>
</g>
<!-- FileUploadComponent -->
<g id="node3" class="node">
<title>FileUploadComponent</title>
<polygon fill="#ffffb3" stroke="black" points="842.32,-187 697.68,-187 697.68,-151 842.32,-151 842.32,-187"/>
<text text-anchor="middle" x="770" y="-164.8" font-family="Times,serif" font-size="14.00">FileUploadComponent</text>
</g>
<!-- FileUploadComponent&#45;&gt;FileUploadModule -->
<g id="edge3" class="edge">
<title>FileUploadComponent&#45;&gt;FileUploadModule</title>
<path fill="none" stroke="black" d="M744.04,-187.24C744.04,-202.57 744.04,-222 744.04,-222 744.04,-222 617.3,-222 617.3,-222"/>
<polygon fill="black" stroke="black" points="617.3,-218.5 607.3,-222 617.3,-225.5 617.3,-218.5"/>
</g>
<!-- UploadComponent -->
<g id="node4" class="node">
<title>UploadComponent</title>
<polygon fill="#ffffb3" stroke="black" points="680.05,-187 557.95,-187 557.95,-151 680.05,-151 680.05,-187"/>
<text text-anchor="middle" x="619" y="-164.8" font-family="Times,serif" font-size="14.00">UploadComponent</text>
</g>
<!-- UploadComponent&#45;&gt;FileUploadModule -->
<g id="edge5" class="edge">
<title>UploadComponent&#45;&gt;FileUploadModule</title>
<path fill="none" stroke="black" d="M582.5,-187.11C582.5,-187.11 582.5,-205.99 582.5,-205.99"/>
<polygon fill="black" stroke="black" points="579,-205.99 582.5,-215.99 586,-205.99 579,-205.99"/>
</g>
<!-- UploaderComponent -->
<g id="node5" class="node">
<title>UploaderComponent</title>
<polygon fill="#ffffb3" stroke="black" points="539.92,-187 406.08,-187 406.08,-151 539.92,-151 539.92,-187"/>
<text text-anchor="middle" x="473" y="-164.8" font-family="Times,serif" font-size="14.00">UploaderComponent</text>
</g>
<!-- UploaderComponent&#45;&gt;FileUploadModule -->
<g id="edge6" class="edge">
<title>UploaderComponent&#45;&gt;FileUploadModule</title>
<path fill="none" stroke="black" d="M512.22,-187.11C512.22,-187.11 512.22,-205.99 512.22,-205.99"/>
<polygon fill="black" stroke="black" points="508.72,-205.99 512.22,-215.99 515.72,-205.99 508.72,-205.99"/>
</g>
<!-- UploadsComponent -->
<g id="node6" class="node">
<title>UploadsComponent</title>
<polygon fill="#ffffb3" stroke="black" points="387.99,-187 260.01,-187 260.01,-151 387.99,-151 387.99,-187"/>
<text text-anchor="middle" x="324" y="-164.8" font-family="Times,serif" font-size="14.00">UploadsComponent</text>
</g>
<!-- UploadsComponent&#45;&gt;FileUploadModule -->
<g id="edge7" class="edge">
<title>UploadsComponent&#45;&gt;FileUploadModule</title>
<path fill="none" stroke="black" d="M357.99,-187.24C357.99,-202.57 357.99,-222 357.99,-222 357.99,-222 474.96,-222 474.96,-222"/>
<polygon fill="black" stroke="black" points="474.96,-225.5 484.96,-222 474.96,-218.5 474.96,-225.5"/>
</g>
<!-- FileControlComponent  -->
<g id="node11" class="node">
<title>FileControlComponent </title>
<polygon fill="#fb8072" stroke="black" points="957.89,-317 808.11,-317 808.11,-281 957.89,-281 957.89,-317"/>
<text text-anchor="middle" x="883" y="-294.8" font-family="Times,serif" font-size="14.00">FileControlComponent </text>
</g>
<!-- FileUploadModule&#45;&gt;FileControlComponent  -->
<g id="edge10" class="edge">
<title>FileUploadModule&#45;&gt;FileControlComponent </title>
<path fill="none" stroke="black" stroke-dasharray="5,2" d="M607.28,-240C689.48,-240 825.23,-240 825.23,-240 825.23,-240 825.23,-270.98 825.23,-270.98"/>
<polygon fill="black" stroke="black" points="821.73,-270.98 825.23,-280.98 828.73,-270.98 821.73,-270.98"/>
</g>
<!-- FilePreviewComponent  -->
<g id="node12" class="node">
<title>FilePreviewComponent </title>
<polygon fill="#fb8072" stroke="black" points="790.48,-317 637.52,-317 637.52,-281 790.48,-281 790.48,-317"/>
<text text-anchor="middle" x="714" y="-294.8" font-family="Times,serif" font-size="14.00">FilePreviewComponent </text>
</g>
<!-- FileUploadModule&#45;&gt;FilePreviewComponent  -->
<g id="edge11" class="edge">
<title>FileUploadModule&#45;&gt;FilePreviewComponent </title>
<path fill="none" stroke="black" stroke-dasharray="5,2" d="M607.14,-246C633.77,-246 659.02,-246 659.02,-246 659.02,-246 659.02,-270.76 659.02,-270.76"/>
<polygon fill="black" stroke="black" points="655.52,-270.76 659.02,-280.76 662.52,-270.76 655.52,-270.76"/>
</g>
<!-- FileUploadComponent  -->
<g id="node13" class="node">
<title>FileUploadComponent </title>
<polygon fill="#fb8072" stroke="black" points="619.82,-317 472.18,-317 472.18,-281 619.82,-281 619.82,-317"/>
<text text-anchor="middle" x="546" y="-294.8" font-family="Times,serif" font-size="14.00">FileUploadComponent </text>
</g>
<!-- FileUploadModule&#45;&gt;FileUploadComponent  -->
<g id="edge12" class="edge">
<title>FileUploadModule&#45;&gt;FileUploadComponent </title>
<path fill="none" stroke="black" stroke-dasharray="5,2" d="M546,-252.11C546,-252.11 546,-270.99 546,-270.99"/>
<polygon fill="black" stroke="black" points="542.5,-270.99 546,-280.99 549.5,-270.99 542.5,-270.99"/>
</g>
<!-- UploadComponent  -->
<g id="node14" class="node">
<title>UploadComponent </title>
<polygon fill="#fb8072" stroke="black" points="454.04,-317 327.96,-317 327.96,-281 454.04,-281 454.04,-317"/>
<text text-anchor="middle" x="391" y="-294.8" font-family="Times,serif" font-size="14.00">UploadComponent </text>
</g>
<!-- FileUploadModule&#45;&gt;UploadComponent  -->
<g id="edge13" class="edge">
<title>FileUploadModule&#45;&gt;UploadComponent </title>
<path fill="none" stroke="black" stroke-dasharray="5,2" d="M484.69,-246C456.9,-246 430.16,-246 430.16,-246 430.16,-246 430.16,-270.76 430.16,-270.76"/>
<polygon fill="black" stroke="black" points="426.66,-270.76 430.16,-280.76 433.66,-270.76 426.66,-270.76"/>
</g>
<!-- UploadsComponent  -->
<g id="node15" class="node">
<title>UploadsComponent </title>
<polygon fill="#fb8072" stroke="black" points="309.99,-317 178.01,-317 178.01,-281 309.99,-281 309.99,-317"/>
<text text-anchor="middle" x="244" y="-294.8" font-family="Times,serif" font-size="14.00">UploadsComponent </text>
</g>
<!-- FileUploadModule&#45;&gt;UploadsComponent  -->
<g id="edge14" class="edge">
<title>FileUploadModule&#45;&gt;UploadsComponent </title>
<path fill="none" stroke="black" stroke-dasharray="5,2" d="M484.78,-240C407.6,-240 284.88,-240 284.88,-240 284.88,-240 284.88,-270.98 284.88,-270.98"/>
<polygon fill="black" stroke="black" points="281.38,-270.98 284.88,-280.98 288.38,-270.98 281.38,-270.98"/>
</g>
<!-- FILE_UPLOAD_ACCESSOR -->
<g id="node8" class="node">
<title>FILE_UPLOAD_ACCESSOR</title>
<ellipse fill="#fdb462" stroke="black" cx="770" cy="-104" rx="130.26" ry="18"/>
<text text-anchor="middle" x="770" y="-99.8" font-family="Times,serif" font-size="14.00">FILE_UPLOAD_ACCESSOR</text>
</g>
<!-- FILE_UPLOAD_ACCESSOR&#45;&gt;FileUploadComponent -->
<g id="edge4" class="edge">
<title>FILE_UPLOAD_ACCESSOR&#45;&gt;FileUploadComponent</title>
<path fill="none" stroke="black" d="M770,-122.11C770,-122.11 770,-140.99 770,-140.99"/>
<polygon fill="black" stroke="black" points="766.5,-140.99 770,-150.99 773.5,-140.99 766.5,-140.99"/>
</g>
<!-- FormsModule -->
<g id="node9" class="node">
<title>FormsModule</title>
<polygon fill="#8dd3c7" stroke="black" points="235.83,-187 232.83,-191 211.83,-191 208.83,-187 140.17,-187 140.17,-151 235.83,-151 235.83,-187"/>
<text text-anchor="middle" x="188" y="-164.8" font-family="Times,serif" font-size="14.00">FormsModule</text>
</g>
<!-- FormsModule&#45;&gt;FileUploadModule -->
<g id="edge8" class="edge">
<title>FormsModule&#45;&gt;FileUploadModule</title>
<path fill="none" stroke="black" d="M206.96,-187.02C206.96,-204.37 206.96,-228 206.96,-228 206.96,-228 474.6,-228 474.6,-228"/>
<polygon fill="black" stroke="black" points="474.6,-231.5 484.6,-228 474.6,-224.5 474.6,-231.5"/>
</g>
<!-- SharedModule -->
<g id="node10" class="node">
<title>SharedModule</title>
<polygon fill="#8dd3c7" stroke="black" points="122.42,-187 119.42,-191 98.42,-191 95.42,-187 23.58,-187 23.58,-151 122.42,-151 122.42,-187"/>
<text text-anchor="middle" x="73" y="-164.8" font-family="Times,serif" font-size="14.00">SharedModule</text>
</g>
<!-- SharedModule&#45;&gt;FileUploadModule -->
<g id="edge9" class="edge">
<title>SharedModule&#45;&gt;FileUploadModule</title>
<path fill="none" stroke="black" d="M73,-187.11C73,-206.34 73,-234 73,-234 73,-234 474.65,-234 474.65,-234"/>
<polygon fill="black" stroke="black" points="474.65,-237.5 484.65,-234 474.65,-230.5 474.65,-237.5"/>
</g>
</g>
</svg>
