<?xml version="1.0" encoding="UTF-8" standalone="no"?>
<!DOCTYPE svg PUBLIC "-//W3C//DTD SVG 1.1//EN"
 "http://www.w3.org/Graphics/SVG/1.1/DTD/svg11.dtd">
<!-- Generated by graphviz version 2.47.0 (20210316.0004)
 -->
<!-- Title: dependencies Pages: 1 -->
<svg width="1327pt" height="349pt"
 viewBox="0.00 0.00 1327.00 349.00" xmlns="http://www.w3.org/2000/svg" xmlns:xlink="http://www.w3.org/1999/xlink">
<g id="graph0" class="graph" transform="scale(1 1) rotate(0) translate(4 345)">
<title>dependencies</title>
<polygon fill="white" stroke="transparent" points="-4,4 -4,-345 1323,-345 1323,4 -4,4"/>
<text text-anchor="start" x="638.51" y="-42.4" font-family="sans-serif" font-weight="bold" font-size="14.00">Legend</text>
<polygon fill="#ffffb3" stroke="transparent" points="425.5,-10 425.5,-30 445.5,-30 445.5,-10 425.5,-10"/>
<text text-anchor="start" x="449.13" y="-15.4" font-family="sans-serif" font-size="14.00"> &#160;Declarations</text>
<polygon fill="#8dd3c7" stroke="transparent" points="538.5,-10 538.5,-30 558.5,-30 558.5,-10 538.5,-10"/>
<text text-anchor="start" x="562.23" y="-15.4" font-family="sans-serif" font-size="14.00"> &#160;Module</text>
<polygon fill="#80b1d3" stroke="transparent" points="624.5,-10 624.5,-30 644.5,-30 644.5,-10 624.5,-10"/>
<text text-anchor="start" x="648.28" y="-15.4" font-family="sans-serif" font-size="14.00"> &#160;Bootstrap</text>
<polygon fill="#fdb462" stroke="transparent" points="721.5,-10 721.5,-30 741.5,-30 741.5,-10 721.5,-10"/>
<text text-anchor="start" x="745.17" y="-15.4" font-family="sans-serif" font-size="14.00"> &#160;Providers</text>
<polygon fill="#fb8072" stroke="transparent" points="817.5,-10 817.5,-30 837.5,-30 837.5,-10 817.5,-10"/>
<text text-anchor="start" x="841.23" y="-15.4" font-family="sans-serif" font-size="14.00"> &#160;Exports</text>
<g id="clust1" class="cluster">
<title>cluster_FileUploadModule</title>
<polygon fill="none" stroke="black" stroke-dasharray="1,5" points="8,-70 8,-333 1311,-333 1311,-70 8,-70"/>
</g>
<g id="clust10" class="cluster">
<title>cluster_FileUploadModule_exports</title>
<polygon fill="none" stroke="black" points="243,-273 243,-325 1039,-325 1039,-273 243,-273"/>
</g>
<g id="clust5" class="cluster">
<title>cluster_FileUploadModule_FileUploadComponent_providers</title>
<polygon fill="none" stroke="black" points="1027,-78 1027,-195 1303,-195 1303,-78 1027,-78"/>
</g>
<g id="clust9" class="cluster">
<title>cluster_FileUploadModule_imports</title>
<polygon fill="none" stroke="black" points="791,-143 791,-195 1019,-195 1019,-143 791,-143"/>
</g>
<g id="clust2" class="cluster">
<title>cluster_FileUploadModule_declarations</title>
<polygon fill="none" stroke="black" points="16,-143 16,-195 783,-195 783,-143 16,-143"/>
</g>
<!-- FileControlComponent -->
<g id="node1" class="node">
<title>FileControlComponent</title>
<polygon fill="#ffffb3" stroke="black" points="774.89,-187 629.11,-187 629.11,-151 774.89,-151 774.89,-187"/>
<text text-anchor="middle" x="702" y="-164.8" font-family="Times,serif" font-size="14.00">FileControlComponent</text>
</g>
<!-- FileUploadModule -->
<g id="node7" class="node">
<title>FileUploadModule</title>
<polygon fill="#8dd3c7" stroke="black" points="680.04,-252 677.04,-256 656.04,-256 653.04,-252 557.96,-252 557.96,-216 680.04,-216 680.04,-252"/>
<text text-anchor="middle" x="619" y="-229.8" font-family="Times,serif" font-size="14.00">FileUploadModule</text>
</g>
<!-- FileControlComponent&#45;&gt;FileUploadModule -->
<g id="edge1" class="edge">
<title>FileControlComponent&#45;&gt;FileUploadModule</title>
<path fill="none" stroke="black" d="M654.66,-187.11C654.66,-187.11 654.66,-205.99 654.66,-205.99"/>
<polygon fill="black" stroke="black" points="651.16,-205.99 654.66,-215.99 658.16,-205.99 651.16,-205.99"/>
</g>
<!-- FilePreviewComponent -->
<g id="node2" class="node">
<title>FilePreviewComponent</title>
<polygon fill="#ffffb3" stroke="black" points="611.48,-187 462.52,-187 462.52,-151 611.48,-151 611.48,-187"/>
<text text-anchor="middle" x="537" y="-164.8" font-family="Times,serif" font-size="14.00">FilePreviewComponent</text>
</g>
<!-- FilePreviewComponent&#45;&gt;FileUploadModule -->
<g id="edge2" class="edge">
<title>FilePreviewComponent&#45;&gt;FileUploadModule</title>
<path fill="none" stroke="black" d="M584.61,-187.11C584.61,-187.11 584.61,-205.99 584.61,-205.99"/>
<polygon fill="black" stroke="black" points="581.11,-205.99 584.61,-215.99 588.11,-205.99 581.11,-205.99"/>
</g>
<!-- FileUploadComponent -->
<g id="node3" class="node">
<title>FileUploadComponent</title>
<polygon fill="#ffffb3" stroke="black" points="1208.32,-187 1063.68,-187 1063.68,-151 1208.32,-151 1208.32,-187"/>
<text text-anchor="middle" x="1136" y="-164.8" font-family="Times,serif" font-size="14.00">FileUploadComponent</text>
</g>
<!-- FileUploadComponent&#45;&gt;FileUploadModule -->
<g id="edge3" class="edge">
<title>FileUploadComponent&#45;&gt;FileUploadModule</title>
<path fill="none" stroke="black" d="M1136,-187.11C1136,-206.34 1136,-234 1136,-234 1136,-234 690.08,-234 690.08,-234"/>
<polygon fill="black" stroke="black" points="690.08,-230.5 680.08,-234 690.08,-237.5 690.08,-230.5"/>
</g>
<!-- UploadComponent -->
<g id="node4" class="node">
<title>UploadComponent</title>
<polygon fill="#ffffb3" stroke="black" points="444.05,-187 321.95,-187 321.95,-151 444.05,-151 444.05,-187"/>
<text text-anchor="middle" x="383" y="-164.8" font-family="Times,serif" font-size="14.00">UploadComponent</text>
</g>
<!-- UploadComponent&#45;&gt;FileUploadModule -->
<g id="edge5" class="edge">
<title>UploadComponent&#45;&gt;FileUploadModule</title>
<path fill="none" stroke="black" d="M422.62,-187.24C422.62,-202.57 422.62,-222 422.62,-222 422.62,-222 547.94,-222 547.94,-222"/>
<polygon fill="black" stroke="black" points="547.94,-225.5 557.94,-222 547.94,-218.5 547.94,-225.5"/>
</g>
<!-- UploaderComponent -->
<g id="node5" class="node">
<title>UploaderComponent</title>
<polygon fill="#ffffb3" stroke="black" points="303.92,-187 170.08,-187 170.08,-151 303.92,-151 303.92,-187"/>
<text text-anchor="middle" x="237" y="-164.8" font-family="Times,serif" font-size="14.00">UploaderComponent</text>
</g>
<!-- UploaderComponent&#45;&gt;FileUploadModule -->
<g id="edge6" class="edge">
<title>UploaderComponent&#45;&gt;FileUploadModule</title>
<path fill="none" stroke="black" d="M277.48,-187.02C277.48,-204.37 277.48,-228 277.48,-228 277.48,-228 547.94,-228 547.94,-228"/>
<polygon fill="black" stroke="black" points="547.94,-231.5 557.94,-228 547.94,-224.5 547.94,-231.5"/>
</g>
<!-- UploadsComponent -->
<g id="node6" class="node">
<title>UploadsComponent</title>
<polygon fill="#ffffb3" stroke="black" points="151.99,-187 24.01,-187 24.01,-151 151.99,-151 151.99,-187"/>
<text text-anchor="middle" x="88" y="-164.8" font-family="Times,serif" font-size="14.00">UploadsComponent</text>
</g>
<!-- UploadsComponent&#45;&gt;FileUploadModule -->
<g id="edge7" class="edge">
<title>UploadsComponent&#45;&gt;FileUploadModule</title>
<path fill="none" stroke="black" d="M88,-187.11C88,-206.34 88,-234 88,-234 88,-234 547.83,-234 547.83,-234"/>
<polygon fill="black" stroke="black" points="547.83,-237.5 557.83,-234 547.83,-230.5 547.83,-237.5"/>
</g>
<!-- FileControlComponent  -->
<g id="node11" class="node">
<title>FileControlComponent </title>
<polygon fill="#fb8072" stroke="black" points="1030.89,-317 881.11,-317 881.11,-281 1030.89,-281 1030.89,-317"/>
<text text-anchor="middle" x="956" y="-294.8" font-family="Times,serif" font-size="14.00">FileControlComponent </text>
</g>
<!-- FileUploadModule&#45;&gt;FileControlComponent  -->
<g id="edge10" class="edge">
<title>FileUploadModule&#45;&gt;FileControlComponent </title>
<path fill="none" stroke="black" stroke-dasharray="5,2" d="M680.33,-240C760.06,-240 889.26,-240 889.26,-240 889.26,-240 889.26,-270.98 889.26,-270.98"/>
<polygon fill="black" stroke="black" points="885.76,-270.98 889.26,-280.98 892.76,-270.98 885.76,-270.98"/>
</g>
<!-- FilePreviewComponent  -->
<g id="node12" class="node">
<title>FilePreviewComponent </title>
<polygon fill="#fb8072" stroke="black" points="863.48,-317 710.52,-317 710.52,-281 863.48,-281 863.48,-317"/>
<text text-anchor="middle" x="787" y="-294.8" font-family="Times,serif" font-size="14.00">FilePreviewComponent </text>
</g>
<!-- FileUploadModule&#45;&gt;FilePreviewComponent  -->
<g id="edge11" class="edge">
<title>FileUploadModule&#45;&gt;FilePreviewComponent </title>
<path fill="none" stroke="black" stroke-dasharray="5,2" d="M680.2,-246C711.4,-246 742.85,-246 742.85,-246 742.85,-246 742.85,-270.76 742.85,-270.76"/>
<polygon fill="black" stroke="black" points="739.35,-270.76 742.85,-280.76 746.35,-270.76 739.35,-270.76"/>
</g>
<!-- FileUploadComponent  -->
<g id="node13" class="node">
<title>FileUploadComponent </title>
<polygon fill="#fb8072" stroke="black" points="692.82,-317 545.18,-317 545.18,-281 692.82,-281 692.82,-317"/>
<text text-anchor="middle" x="619" y="-294.8" font-family="Times,serif" font-size="14.00">FileUploadComponent </text>
</g>
<!-- FileUploadModule&#45;&gt;FileUploadComponent  -->
<g id="edge12" class="edge">
<title>FileUploadModule&#45;&gt;FileUploadComponent </title>
<path fill="none" stroke="black" stroke-dasharray="5,2" d="M619,-252.11C619,-252.11 619,-270.99 619,-270.99"/>
<polygon fill="black" stroke="black" points="615.5,-270.99 619,-280.99 622.5,-270.99 615.5,-270.99"/>
</g>
<!-- UploadComponent  -->
<g id="node14" class="node">
<title>UploadComponent </title>
<polygon fill="#fb8072" stroke="black" points="527.04,-317 400.96,-317 400.96,-281 527.04,-281 527.04,-317"/>
<text text-anchor="middle" x="464" y="-294.8" font-family="Times,serif" font-size="14.00">UploadComponent </text>
</g>
<!-- FileUploadModule&#45;&gt;UploadComponent  -->
<g id="edge13" class="edge">
<title>FileUploadModule&#45;&gt;UploadComponent </title>
<path fill="none" stroke="black" stroke-dasharray="5,2" d="M557.61,-246C526.31,-246 494.77,-246 494.77,-246 494.77,-246 494.77,-270.76 494.77,-270.76"/>
<polygon fill="black" stroke="black" points="491.27,-270.76 494.77,-280.76 498.27,-270.76 491.27,-270.76"/>
</g>
<!-- UploadsComponent  -->
<g id="node15" class="node">
<title>UploadsComponent </title>
<polygon fill="#fb8072" stroke="black" points="382.99,-317 251.01,-317 251.01,-281 382.99,-281 382.99,-317"/>
<text text-anchor="middle" x="317" y="-294.8" font-family="Times,serif" font-size="14.00">UploadsComponent </text>
</g>
<!-- FileUploadModule&#45;&gt;UploadsComponent  -->
<g id="edge14" class="edge">
<title>FileUploadModule&#45;&gt;UploadsComponent </title>
<path fill="none" stroke="black" stroke-dasharray="5,2" d="M557.8,-240C479.04,-240 352.24,-240 352.24,-240 352.24,-240 352.24,-270.98 352.24,-270.98"/>
<polygon fill="black" stroke="black" points="348.74,-270.98 352.24,-280.98 355.74,-270.98 348.74,-270.98"/>
</g>
<!-- FILE_UPLOAD_ACCESSOR -->
<g id="node8" class="node">
<title>FILE_UPLOAD_ACCESSOR</title>
<ellipse fill="#fdb462" stroke="black" cx="1165" cy="-104" rx="130.26" ry="18"/>
<text text-anchor="middle" x="1165" y="-99.8" font-family="Times,serif" font-size="14.00">FILE_UPLOAD_ACCESSOR</text>
</g>
<!-- FILE_UPLOAD_ACCESSOR&#45;&gt;FileUploadComponent -->
<g id="edge4" class="edge">
<title>FILE_UPLOAD_ACCESSOR&#45;&gt;FileUploadComponent</title>
<path fill="none" stroke="black" d="M1136,-121.76C1136,-121.76 1136,-140.81 1136,-140.81"/>
<polygon fill="black" stroke="black" points="1132.5,-140.81 1136,-150.81 1139.5,-140.81 1132.5,-140.81"/>
</g>
<!-- FormsModule -->
<g id="node9" class="node">
<title>FormsModule</title>
<polygon fill="#8dd3c7" stroke="black" points="1010.83,-187 1007.83,-191 986.83,-191 983.83,-187 915.17,-187 915.17,-151 1010.83,-151 1010.83,-187"/>
<text text-anchor="middle" x="963" y="-164.8" font-family="Times,serif" font-size="14.00">FormsModule</text>
</g>
<!-- FormsModule&#45;&gt;FileUploadModule -->
<g id="edge8" class="edge">
<title>FormsModule&#45;&gt;FileUploadModule</title>
<path fill="none" stroke="black" d="M963,-187.02C963,-204.37 963,-228 963,-228 963,-228 690.1,-228 690.1,-228"/>
<polygon fill="black" stroke="black" points="690.1,-224.5 680.1,-228 690.1,-231.5 690.1,-224.5"/>
</g>
<!-- SharedModule -->
<g id="node10" class="node">
<title>SharedModule</title>
<polygon fill="#8dd3c7" stroke="black" points="897.42,-187 894.42,-191 873.42,-191 870.42,-187 798.58,-187 798.58,-151 897.42,-151 897.42,-187"/>
<text text-anchor="middle" x="848" y="-164.8" font-family="Times,serif" font-size="14.00">SharedModule</text>
</g>
<!-- SharedModule&#45;&gt;FileUploadModule -->
<g id="edge9" class="edge">
<title>SharedModule&#45;&gt;FileUploadModule</title>
<path fill="none" stroke="black" d="M831.01,-187.24C831.01,-202.57 831.01,-222 831.01,-222 831.01,-222 690.32,-222 690.32,-222"/>
<polygon fill="black" stroke="black" points="690.32,-218.5 680.32,-222 690.32,-225.5 690.32,-218.5"/>
</g>
</g>
</svg>
