<?xml version="1.0" encoding="UTF-8" standalone="no"?>
<!DOCTYPE svg PUBLIC "-//W3C//DTD SVG 1.1//EN"
 "http://www.w3.org/Graphics/SVG/1.1/DTD/svg11.dtd">
<!-- Generated by graphviz version 2.47.0 (20210316.0004)
 -->
<!-- Title: dependencies Pages: 1 -->
<svg width="1679pt" height="284pt"
 viewBox="0.00 0.00 1679.00 284.00" xmlns="http://www.w3.org/2000/svg" xmlns:xlink="http://www.w3.org/1999/xlink">
<g id="graph0" class="graph" transform="scale(1 1) rotate(0) translate(4 280)">
<title>dependencies</title>
<polygon fill="white" stroke="transparent" points="-4,4 -4,-280 1675,-280 1675,4 -4,4"/>
<text text-anchor="start" x="814.51" y="-42.4" font-family="sans-serif" font-weight="bold" font-size="14.00">Legend</text>
<polygon fill="#ffffb3" stroke="transparent" points="601.5,-10 601.5,-30 621.5,-30 621.5,-10 601.5,-10"/>
<text text-anchor="start" x="625.13" y="-15.4" font-family="sans-serif" font-size="14.00"> &#160;Declarations</text>
<polygon fill="#8dd3c7" stroke="transparent" points="714.5,-10 714.5,-30 734.5,-30 734.5,-10 714.5,-10"/>
<text text-anchor="start" x="738.23" y="-15.4" font-family="sans-serif" font-size="14.00"> &#160;Module</text>
<polygon fill="#80b1d3" stroke="transparent" points="800.5,-10 800.5,-30 820.5,-30 820.5,-10 800.5,-10"/>
<text text-anchor="start" x="824.28" y="-15.4" font-family="sans-serif" font-size="14.00"> &#160;Bootstrap</text>
<polygon fill="#fdb462" stroke="transparent" points="897.5,-10 897.5,-30 917.5,-30 917.5,-10 897.5,-10"/>
<text text-anchor="start" x="921.17" y="-15.4" font-family="sans-serif" font-size="14.00"> &#160;Providers</text>
<polygon fill="#fb8072" stroke="transparent" points="993.5,-10 993.5,-30 1013.5,-30 1013.5,-10 993.5,-10"/>
<text text-anchor="start" x="1017.23" y="-15.4" font-family="sans-serif" font-size="14.00"> &#160;Exports</text>
<g id="clust1" class="cluster">
<title>cluster_LibraryModule</title>
<polygon fill="none" stroke="black" stroke-dasharray="1,5" points="8,-70 8,-268 1663,-268 1663,-70 8,-70"/>
</g>
<g id="clust5" class="cluster">
<title>cluster_LibraryModule_exports</title>
<polygon fill="none" stroke="black" points="16,-208 16,-260 1655,-260 1655,-208 16,-208"/>
</g>
<g id="clust4" class="cluster">
<title>cluster_LibraryModule_imports</title>
<polygon fill="none" stroke="black" points="220,-78 220,-130 1583,-130 1583,-78 220,-78"/>
</g>
<g id="clust2" class="cluster">
<title>cluster_LibraryModule_declarations</title>
<polygon fill="none" stroke="black" points="72,-78 72,-130 212,-130 212,-78 72,-78"/>
</g>
<!-- LibraryComponent -->
<g id="node1" class="node">
<title>LibraryComponent</title>
<polygon fill="#ffffb3" stroke="black" points="203.81,-122 80.19,-122 80.19,-86 203.81,-86 203.81,-122"/>
<text text-anchor="middle" x="142" y="-99.8" font-family="Times,serif" font-size="14.00">LibraryComponent</text>
</g>
<!-- LibraryModule -->
<g id="node2" class="node">
<title>LibraryModule</title>
<polygon fill="#8dd3c7" stroke="black" points="863.53,-187 860.53,-191 839.53,-191 836.53,-187 762.47,-187 762.47,-151 863.53,-151 863.53,-187"/>
<text text-anchor="middle" x="813" y="-164.8" font-family="Times,serif" font-size="14.00">LibraryModule</text>
</g>
<!-- LibraryComponent&#45;&gt;LibraryModule -->
<g id="edge1" class="edge">
<title>LibraryComponent&#45;&gt;LibraryModule</title>
<path fill="none" stroke="black" d="M171.68,-122.27C171.68,-140.56 171.68,-166 171.68,-166 171.68,-166 752.41,-166 752.41,-166"/>
<polygon fill="black" stroke="black" points="752.41,-169.5 762.41,-166 752.41,-162.5 752.41,-169.5"/>
</g>
<!-- AccordionModule  -->
<g id="node14" class="node">
<title>AccordionModule </title>
<polygon fill="#fb8072" stroke="black" points="1647.14,-252 1524.86,-252 1524.86,-216 1647.14,-216 1647.14,-252"/>
<text text-anchor="middle" x="1586" y="-229.8" font-family="Times,serif" font-size="14.00">AccordionModule </text>
</g>
<!-- LibraryModule&#45;&gt;AccordionModule  -->
<g id="edge13" class="edge">
<title>LibraryModule&#45;&gt;AccordionModule </title>
<path fill="none" stroke="black" stroke-dasharray="5,2" d="M863.67,-169C1030.2,-169 1550.12,-169 1550.12,-169 1550.12,-169 1550.12,-205.89 1550.12,-205.89"/>
<polygon fill="black" stroke="black" points="1546.63,-205.89 1550.12,-215.89 1553.63,-205.89 1546.63,-205.89"/>
</g>
<!-- AddressModule  -->
<g id="node15" class="node">
<title>AddressModule </title>
<polygon fill="#fb8072" stroke="black" points="1506.42,-252 1397.58,-252 1397.58,-216 1506.42,-216 1506.42,-252"/>
<text text-anchor="middle" x="1452" y="-229.8" font-family="Times,serif" font-size="14.00">AddressModule </text>
</g>
<!-- LibraryModule&#45;&gt;AddressModule  -->
<g id="edge14" class="edge">
<title>LibraryModule&#45;&gt;AddressModule </title>
<path fill="none" stroke="black" stroke-dasharray="5,2" d="M863.55,-172C1008.99,-172 1418.12,-172 1418.12,-172 1418.12,-172 1418.12,-205.73 1418.12,-205.73"/>
<polygon fill="black" stroke="black" points="1414.63,-205.73 1418.12,-215.73 1421.63,-205.73 1414.63,-205.73"/>
</g>
<!-- AuditModule  -->
<g id="node16" class="node">
<title>AuditModule </title>
<polygon fill="#fb8072" stroke="black" points="1379.44,-252 1284.56,-252 1284.56,-216 1379.44,-216 1379.44,-252"/>
<text text-anchor="middle" x="1332" y="-229.8" font-family="Times,serif" font-size="14.00">AuditModule </text>
</g>
<!-- LibraryModule&#45;&gt;AuditModule  -->
<g id="edge15" class="edge">
<title>LibraryModule&#45;&gt;AuditModule </title>
<path fill="none" stroke="black" stroke-dasharray="5,2" d="M863.75,-175C988.52,-175 1300.12,-175 1300.12,-175 1300.12,-175 1300.12,-205.98 1300.12,-205.98"/>
<polygon fill="black" stroke="black" points="1296.63,-205.98 1300.12,-215.98 1303.63,-205.98 1296.63,-205.98"/>
</g>
<!-- CollageModule  -->
<g id="node17" class="node">
<title>CollageModule </title>
<polygon fill="#fb8072" stroke="black" points="1266.1,-252 1159.9,-252 1159.9,-216 1266.1,-216 1266.1,-252"/>
<text text-anchor="middle" x="1213" y="-229.8" font-family="Times,serif" font-size="14.00">CollageModule </text>
</g>
<!-- LibraryModule&#45;&gt;CollageModule  -->
<g id="edge16" class="edge">
<title>LibraryModule&#45;&gt;CollageModule </title>
<path fill="none" stroke="black" stroke-dasharray="5,2" d="M863.68,-178C965.02,-178 1183.04,-178 1183.04,-178 1183.04,-178 1183.04,-205.97 1183.04,-205.97"/>
<polygon fill="black" stroke="black" points="1179.54,-205.97 1183.04,-215.97 1186.54,-205.97 1179.54,-205.97"/>
</g>
<!-- ContainerModule  -->
<g id="node18" class="node">
<title>ContainerModule </title>
<polygon fill="#fb8072" stroke="black" points="1142.26,-252 1023.74,-252 1023.74,-216 1142.26,-216 1142.26,-252"/>
<text text-anchor="middle" x="1083" y="-229.8" font-family="Times,serif" font-size="14.00">ContainerModule </text>
</g>
<!-- LibraryModule&#45;&gt;ContainerModule  -->
<g id="edge17" class="edge">
<title>LibraryModule&#45;&gt;ContainerModule </title>
<path fill="none" stroke="black" stroke-dasharray="5,2" d="M863.56,-181C932.81,-181 1048.67,-181 1048.67,-181 1048.67,-181 1048.67,-205.76 1048.67,-205.76"/>
<polygon fill="black" stroke="black" points="1045.17,-205.76 1048.67,-215.76 1052.17,-205.76 1045.17,-205.76"/>
</g>
<!-- DatepickerModule  -->
<g id="node19" class="node">
<title>DatepickerModule </title>
<polygon fill="#fb8072" stroke="black" points="1006.46,-252 881.54,-252 881.54,-216 1006.46,-216 1006.46,-252"/>
<text text-anchor="middle" x="944" y="-229.8" font-family="Times,serif" font-size="14.00">DatepickerModule </text>
</g>
<!-- LibraryModule&#45;&gt;DatepickerModule  -->
<g id="edge18" class="edge">
<title>LibraryModule&#45;&gt;DatepickerModule </title>
<path fill="none" stroke="black" stroke-dasharray="5,2" d="M863.72,-184C886.48,-184 908.3,-184 908.3,-184 908.3,-184 908.3,-205.95 908.3,-205.95"/>
<polygon fill="black" stroke="black" points="904.8,-205.95 908.3,-215.95 911.8,-205.95 904.8,-205.95"/>
</g>
<!-- DialogModule  -->
<g id="node20" class="node">
<title>DialogModule </title>
<polygon fill="#fb8072" stroke="black" points="863.65,-252 762.35,-252 762.35,-216 863.65,-216 863.65,-252"/>
<text text-anchor="middle" x="813" y="-229.8" font-family="Times,serif" font-size="14.00">DialogModule </text>
</g>
<!-- LibraryModule&#45;&gt;DialogModule  -->
<g id="edge19" class="edge">
<title>LibraryModule&#45;&gt;DialogModule </title>
<path fill="none" stroke="black" stroke-dasharray="5,2" d="M813,-187.11C813,-187.11 813,-205.99 813,-205.99"/>
<polygon fill="black" stroke="black" points="809.5,-205.99 813,-215.99 816.5,-205.99 809.5,-205.99"/>
</g>
<!-- FileUploadModule  -->
<g id="node21" class="node">
<title>FileUploadModule </title>
<polygon fill="#fb8072" stroke="black" points="744.04,-252 617.96,-252 617.96,-216 744.04,-216 744.04,-252"/>
<text text-anchor="middle" x="681" y="-229.8" font-family="Times,serif" font-size="14.00">FileUploadModule </text>
</g>
<!-- LibraryModule&#45;&gt;FileUploadModule  -->
<g id="edge20" class="edge">
<title>LibraryModule&#45;&gt;FileUploadModule </title>
<path fill="none" stroke="black" stroke-dasharray="5,2" d="M762.35,-184C740.73,-184 720.38,-184 720.38,-184 720.38,-184 720.38,-205.95 720.38,-205.95"/>
<polygon fill="black" stroke="black" points="716.88,-205.95 720.38,-215.95 723.88,-205.95 716.88,-205.95"/>
</g>
<!-- LibraryComponent  -->
<g id="node22" class="node">
<title>LibraryComponent </title>
<polygon fill="#fb8072" stroke="black" points="600.31,-252 473.69,-252 473.69,-216 600.31,-216 600.31,-252"/>
<text text-anchor="middle" x="537" y="-229.8" font-family="Times,serif" font-size="14.00">LibraryComponent </text>
</g>
<!-- LibraryModule&#45;&gt;LibraryComponent  -->
<g id="edge21" class="edge">
<title>LibraryModule&#45;&gt;LibraryComponent </title>
<path fill="none" stroke="black" stroke-dasharray="5,2" d="M762.22,-181C694.11,-181 581.62,-181 581.62,-181 581.62,-181 581.62,-205.76 581.62,-205.76"/>
<polygon fill="black" stroke="black" points="578.12,-205.76 581.62,-215.76 585.12,-205.76 578.12,-205.76"/>
</g>
<!-- SharedModule  -->
<g id="node23" class="node">
<title>SharedModule </title>
<polygon fill="#fb8072" stroke="black" points="455.92,-252 354.08,-252 354.08,-216 455.92,-216 455.92,-252"/>
<text text-anchor="middle" x="405" y="-229.8" font-family="Times,serif" font-size="14.00">SharedModule </text>
</g>
<!-- LibraryModule&#45;&gt;SharedModule  -->
<g id="edge22" class="edge">
<title>LibraryModule&#45;&gt;SharedModule </title>
<path fill="none" stroke="black" stroke-dasharray="5,2" d="M762.34,-178C662.81,-178 451.38,-178 451.38,-178 451.38,-178 451.38,-205.97 451.38,-205.97"/>
<polygon fill="black" stroke="black" points="447.88,-205.97 451.38,-215.97 454.88,-205.97 447.88,-205.97"/>
</g>
<!-- TileModule  -->
<g id="node24" class="node">
<title>TileModule </title>
<polygon fill="#fb8072" stroke="black" points="335.6,-252 250.4,-252 250.4,-216 335.6,-216 335.6,-252"/>
<text text-anchor="middle" x="293" y="-229.8" font-family="Times,serif" font-size="14.00">TileModule </text>
</g>
<!-- LibraryModule&#45;&gt;TileModule  -->
<g id="edge23" class="edge">
<title>LibraryModule&#45;&gt;TileModule </title>
<path fill="none" stroke="black" stroke-dasharray="5,2" d="M762.1,-175C637.79,-175 328.84,-175 328.84,-175 328.84,-175 328.84,-205.98 328.84,-205.98"/>
<polygon fill="black" stroke="black" points="325.34,-205.98 328.84,-215.98 332.34,-205.98 325.34,-205.98"/>
</g>
<!-- TimeModule  -->
<g id="node25" class="node">
<title>TimeModule </title>
<polygon fill="#fb8072" stroke="black" points="232.1,-252 139.9,-252 139.9,-216 232.1,-216 232.1,-252"/>
<text text-anchor="middle" x="186" y="-229.8" font-family="Times,serif" font-size="14.00">TimeModule </text>
</g>
<!-- LibraryModule&#45;&gt;TimeModule  -->
<g id="edge24" class="edge">
<title>LibraryModule&#45;&gt;TimeModule </title>
<path fill="none" stroke="black" stroke-dasharray="5,2" d="M762.35,-172C618.17,-172 215.89,-172 215.89,-172 215.89,-172 215.89,-205.73 215.89,-205.73"/>
<polygon fill="black" stroke="black" points="212.39,-205.73 215.89,-215.73 219.39,-205.73 212.39,-205.73"/>
</g>
<!-- TimerModule  -->
<g id="node26" class="node">
<title>TimerModule </title>
<polygon fill="#fb8072" stroke="black" points="121.76,-252 24.24,-252 24.24,-216 121.76,-216 121.76,-252"/>
<text text-anchor="middle" x="73" y="-229.8" font-family="Times,serif" font-size="14.00">TimerModule </text>
</g>
<!-- LibraryModule&#45;&gt;TimerModule  -->
<g id="edge25" class="edge">
<title>LibraryModule&#45;&gt;TimerModule </title>
<path fill="none" stroke="black" stroke-dasharray="5,2" d="M762.36,-169C599.7,-169 100.99,-169 100.99,-169 100.99,-169 100.99,-205.89 100.99,-205.89"/>
<polygon fill="black" stroke="black" points="97.49,-205.89 100.99,-215.89 104.49,-205.89 97.49,-205.89"/>
</g>
<!-- AccordionModule -->
<g id="node3" class="node">
<title>AccordionModule</title>
<polygon fill="#8dd3c7" stroke="black" points="1575.14,-122 1572.14,-126 1551.14,-126 1548.14,-122 1456.86,-122 1456.86,-86 1575.14,-86 1575.14,-122"/>
<text text-anchor="middle" x="1516" y="-99.8" font-family="Times,serif" font-size="14.00">AccordionModule</text>
</g>
<!-- AccordionModule&#45;&gt;LibraryModule -->
<g id="edge2" class="edge">
<title>AccordionModule&#45;&gt;LibraryModule</title>
<path fill="none" stroke="black" d="M1481.57,-122.27C1481.57,-140.56 1481.57,-166 1481.57,-166 1481.57,-166 873.8,-166 873.8,-166"/>
<polygon fill="black" stroke="black" points="873.8,-162.5 863.8,-166 873.8,-169.5 873.8,-162.5"/>
</g>
<!-- AddressModule -->
<g id="node4" class="node">
<title>AddressModule</title>
<polygon fill="#8dd3c7" stroke="black" points="1438.92,-122 1435.92,-126 1414.92,-126 1411.92,-122 1333.08,-122 1333.08,-86 1438.92,-86 1438.92,-122"/>
<text text-anchor="middle" x="1386" y="-99.8" font-family="Times,serif" font-size="14.00">AddressModule</text>
</g>
<!-- AddressModule&#45;&gt;LibraryModule -->
<g id="edge3" class="edge">
<title>AddressModule&#45;&gt;LibraryModule</title>
<path fill="none" stroke="black" d="M1356.38,-122.02C1356.38,-139.37 1356.38,-163 1356.38,-163 1356.38,-163 873.63,-163 873.63,-163"/>
<polygon fill="black" stroke="black" points="873.63,-159.5 863.63,-163 873.63,-166.5 873.63,-159.5"/>
</g>
<!-- AuditModule -->
<g id="node5" class="node">
<title>AuditModule</title>
<polygon fill="#8dd3c7" stroke="black" points="1315.94,-122 1312.94,-126 1291.94,-126 1288.94,-122 1224.06,-122 1224.06,-86 1315.94,-86 1315.94,-122"/>
<text text-anchor="middle" x="1270" y="-99.8" font-family="Times,serif" font-size="14.00">AuditModule</text>
</g>
<!-- AuditModule&#45;&gt;LibraryModule -->
<g id="edge4" class="edge">
<title>AuditModule&#45;&gt;LibraryModule</title>
<path fill="none" stroke="black" d="M1245.29,-122.03C1245.29,-138.4 1245.29,-160 1245.29,-160 1245.29,-160 873.86,-160 873.86,-160"/>
<polygon fill="black" stroke="black" points="873.86,-156.5 863.86,-160 873.86,-163.5 873.86,-156.5"/>
</g>
<!-- ContainerModule -->
<g id="node6" class="node">
<title>ContainerModule</title>
<polygon fill="#8dd3c7" stroke="black" points="1206.26,-122 1203.26,-126 1182.26,-126 1179.26,-122 1091.74,-122 1091.74,-86 1206.26,-86 1206.26,-122"/>
<text text-anchor="middle" x="1149" y="-99.8" font-family="Times,serif" font-size="14.00">ContainerModule</text>
</g>
<!-- ContainerModule&#45;&gt;LibraryModule -->
<g id="edge5" class="edge">
<title>ContainerModule&#45;&gt;LibraryModule</title>
<path fill="none" stroke="black" d="M1116.88,-122.24C1116.88,-137.57 1116.88,-157 1116.88,-157 1116.88,-157 873.86,-157 873.86,-157"/>
<polygon fill="black" stroke="black" points="873.86,-153.5 863.86,-157 873.86,-160.5 873.86,-153.5"/>
</g>
<!-- DatepickerModule -->
<g id="node7" class="node">
<title>DatepickerModule</title>
<polygon fill="#8dd3c7" stroke="black" points="1073.46,-122 1070.46,-126 1049.46,-126 1046.46,-122 952.54,-122 952.54,-86 1073.46,-86 1073.46,-122"/>
<text text-anchor="middle" x="1013" y="-99.8" font-family="Times,serif" font-size="14.00">DatepickerModule</text>
</g>
<!-- DatepickerModule&#45;&gt;LibraryModule -->
<g id="edge6" class="edge">
<title>DatepickerModule&#45;&gt;LibraryModule</title>
<path fill="none" stroke="black" d="M979.38,-122.05C979.38,-136.37 979.38,-154 979.38,-154 979.38,-154 873.82,-154 873.82,-154"/>
<polygon fill="black" stroke="black" points="873.82,-150.5 863.82,-154 873.82,-157.5 873.82,-150.5"/>
</g>
<!-- DialogModule -->
<g id="node8" class="node">
<title>DialogModule</title>
<polygon fill="#8dd3c7" stroke="black" points="934.65,-122 931.65,-126 910.65,-126 907.65,-122 837.35,-122 837.35,-86 934.65,-86 934.65,-122"/>
<text text-anchor="middle" x="886" y="-99.8" font-family="Times,serif" font-size="14.00">DialogModule</text>
</g>
<!-- DialogModule&#45;&gt;LibraryModule -->
<g id="edge7" class="edge">
<title>DialogModule&#45;&gt;LibraryModule</title>
<path fill="none" stroke="black" d="M850.47,-122.11C850.47,-122.11 850.47,-140.99 850.47,-140.99"/>
<polygon fill="black" stroke="black" points="846.97,-140.99 850.47,-150.99 853.97,-140.99 846.97,-140.99"/>
</g>
<!-- FileUploadModule -->
<g id="node9" class="node">
<title>FileUploadModule</title>
<polygon fill="#8dd3c7" stroke="black" points="819.04,-122 816.04,-126 795.04,-126 792.04,-122 696.96,-122 696.96,-86 819.04,-86 819.04,-122"/>
<text text-anchor="middle" x="758" y="-99.8" font-family="Times,serif" font-size="14.00">FileUploadModule</text>
</g>
<!-- FileUploadModule&#45;&gt;LibraryModule -->
<g id="edge8" class="edge">
<title>FileUploadModule&#45;&gt;LibraryModule</title>
<path fill="none" stroke="black" d="M790.75,-122.11C790.75,-122.11 790.75,-140.99 790.75,-140.99"/>
<polygon fill="black" stroke="black" points="787.25,-140.99 790.75,-150.99 794.25,-140.99 787.25,-140.99"/>
</g>
<!-- NotFoundModule -->
<g id="node10" class="node">
<title>NotFoundModule</title>
<polygon fill="#8dd3c7" stroke="black" points="679.33,-122 676.33,-126 655.33,-126 652.33,-122 562.67,-122 562.67,-86 679.33,-86 679.33,-122"/>
<text text-anchor="middle" x="621" y="-99.8" font-family="Times,serif" font-size="14.00">NotFoundModule</text>
</g>
<!-- NotFoundModule&#45;&gt;LibraryModule -->
<g id="edge9" class="edge">
<title>NotFoundModule&#45;&gt;LibraryModule</title>
<path fill="none" stroke="black" d="M648.57,-122.05C648.57,-136.37 648.57,-154 648.57,-154 648.57,-154 752.32,-154 752.32,-154"/>
<polygon fill="black" stroke="black" points="752.32,-157.5 762.32,-154 752.32,-150.5 752.32,-157.5"/>
</g>
<!-- SharedModule -->
<g id="node11" class="node">
<title>SharedModule</title>
<polygon fill="#8dd3c7" stroke="black" points="545.42,-122 542.42,-126 521.42,-126 518.42,-122 446.58,-122 446.58,-86 545.42,-86 545.42,-122"/>
<text text-anchor="middle" x="496" y="-99.8" font-family="Times,serif" font-size="14.00">SharedModule</text>
</g>
<!-- SharedModule&#45;&gt;LibraryModule -->
<g id="edge10" class="edge">
<title>SharedModule&#45;&gt;LibraryModule</title>
<path fill="none" stroke="black" d="M509.4,-122.24C509.4,-137.57 509.4,-157 509.4,-157 509.4,-157 752.18,-157 752.18,-157"/>
<polygon fill="black" stroke="black" points="752.18,-160.5 762.18,-157 752.18,-153.5 752.18,-160.5"/>
</g>
<!-- TimeModule -->
<g id="node12" class="node">
<title>TimeModule</title>
<polygon fill="#8dd3c7" stroke="black" points="428.6,-122 425.6,-126 404.6,-126 401.6,-122 339.4,-122 339.4,-86 428.6,-86 428.6,-122"/>
<text text-anchor="middle" x="384" y="-99.8" font-family="Times,serif" font-size="14.00">TimeModule</text>
</g>
<!-- TimeModule&#45;&gt;LibraryModule -->
<g id="edge11" class="edge">
<title>TimeModule&#45;&gt;LibraryModule</title>
<path fill="none" stroke="black" d="M391.29,-122.03C391.29,-138.4 391.29,-160 391.29,-160 391.29,-160 752.13,-160 752.13,-160"/>
<polygon fill="black" stroke="black" points="752.13,-163.5 762.13,-160 752.13,-156.5 752.13,-163.5"/>
</g>
<!-- TimerModule -->
<g id="node13" class="node">
<title>TimerModule</title>
<polygon fill="#8dd3c7" stroke="black" points="321.76,-122 318.76,-126 297.76,-126 294.76,-122 228.24,-122 228.24,-86 321.76,-86 321.76,-122"/>
<text text-anchor="middle" x="275" y="-99.8" font-family="Times,serif" font-size="14.00">TimerModule</text>
</g>
<!-- TimerModule&#45;&gt;LibraryModule -->
<g id="edge12" class="edge">
<title>TimerModule&#45;&gt;LibraryModule</title>
<path fill="none" stroke="black" d="M286.04,-122.02C286.04,-139.37 286.04,-163 286.04,-163 286.04,-163 751.99,-163 751.99,-163"/>
<polygon fill="black" stroke="black" points="751.99,-166.5 761.99,-163 751.99,-159.5 751.99,-166.5"/>
</g>
</g>
</svg>
