<?xml version="1.0" encoding="UTF-8" standalone="no"?>
<!DOCTYPE svg PUBLIC "-//W3C//DTD SVG 1.1//EN"
 "http://www.w3.org/Graphics/SVG/1.1/DTD/svg11.dtd">
<!-- Generated by graphviz version 2.47.0 (20210316.0004)
 -->
<!-- Title: dependencies Pages: 1 -->
<svg width="1679pt" height="284pt"
 viewBox="0.00 0.00 1679.00 284.00" xmlns="http://www.w3.org/2000/svg" xmlns:xlink="http://www.w3.org/1999/xlink">
<g id="graph0" class="graph" transform="scale(1 1) rotate(0) translate(4 280)">
<title>dependencies</title>
<polygon fill="white" stroke="transparent" points="-4,4 -4,-280 1675,-280 1675,4 -4,4"/>
<text text-anchor="start" x="814.51" y="-42.4" font-family="sans-serif" font-weight="bold" font-size="14.00">Legend</text>
<polygon fill="#ffffb3" stroke="transparent" points="601.5,-10 601.5,-30 621.5,-30 621.5,-10 601.5,-10"/>
<text text-anchor="start" x="625.13" y="-15.4" font-family="sans-serif" font-size="14.00"> &#160;Declarations</text>
<polygon fill="#8dd3c7" stroke="transparent" points="714.5,-10 714.5,-30 734.5,-30 734.5,-10 714.5,-10"/>
<text text-anchor="start" x="738.23" y="-15.4" font-family="sans-serif" font-size="14.00"> &#160;Module</text>
<polygon fill="#80b1d3" stroke="transparent" points="800.5,-10 800.5,-30 820.5,-30 820.5,-10 800.5,-10"/>
<text text-anchor="start" x="824.28" y="-15.4" font-family="sans-serif" font-size="14.00"> &#160;Bootstrap</text>
<polygon fill="#fdb462" stroke="transparent" points="897.5,-10 897.5,-30 917.5,-30 917.5,-10 897.5,-10"/>
<text text-anchor="start" x="921.17" y="-15.4" font-family="sans-serif" font-size="14.00"> &#160;Providers</text>
<polygon fill="#fb8072" stroke="transparent" points="993.5,-10 993.5,-30 1013.5,-30 1013.5,-10 993.5,-10"/>
<text text-anchor="start" x="1017.23" y="-15.4" font-family="sans-serif" font-size="14.00"> &#160;Exports</text>
<g id="clust1" class="cluster">
<title>cluster_LibraryModule</title>
<polygon fill="none" stroke="black" stroke-dasharray="1,5" points="8,-70 8,-268 1663,-268 1663,-70 8,-70"/>
</g>
<g id="clust5" class="cluster">
<title>cluster_LibraryModule_exports</title>
<polygon fill="none" stroke="black" points="16,-208 16,-260 1655,-260 1655,-208 16,-208"/>
</g>
<g id="clust2" class="cluster">
<title>cluster_LibraryModule_declarations</title>
<polygon fill="none" stroke="black" points="1453,-78 1453,-130 1593,-130 1593,-78 1453,-78"/>
</g>
<g id="clust4" class="cluster">
<title>cluster_LibraryModule_imports</title>
<polygon fill="none" stroke="black" points="82,-78 82,-130 1445,-130 1445,-78 82,-78"/>
</g>
<!-- LibraryComponent -->
<g id="node1" class="node">
<title>LibraryComponent</title>
<polygon fill="#ffffb3" stroke="black" points="1584.81,-122 1461.19,-122 1461.19,-86 1584.81,-86 1584.81,-122"/>
<text text-anchor="middle" x="1523" y="-99.8" font-family="Times,serif" font-size="14.00">LibraryComponent</text>
</g>
<!-- LibraryModule -->
<g id="node2" class="node">
<title>LibraryModule</title>
<polygon fill="#8dd3c7" stroke="black" points="863.53,-187 860.53,-191 839.53,-191 836.53,-187 762.47,-187 762.47,-151 863.53,-151 863.53,-187"/>
<text text-anchor="middle" x="813" y="-164.8" font-family="Times,serif" font-size="14.00">LibraryModule</text>
</g>
<!-- LibraryComponent&#45;&gt;LibraryModule -->
<g id="edge1" class="edge">
<title>LibraryComponent&#45;&gt;LibraryModule</title>
<path fill="none" stroke="black" d="M1483.9,-122.27C1483.9,-140.56 1483.9,-166 1483.9,-166 1483.9,-166 873.7,-166 873.7,-166"/>
<polygon fill="black" stroke="black" points="873.7,-162.5 863.7,-166 873.7,-169.5 873.7,-162.5"/>
</g>
<!-- AccordionModule  -->
<g id="node14" class="node">
<title>AccordionModule </title>
<polygon fill="#fb8072" stroke="black" points="1647.14,-252 1524.86,-252 1524.86,-216 1647.14,-216 1647.14,-252"/>
<text text-anchor="middle" x="1586" y="-229.8" font-family="Times,serif" font-size="14.00">AccordionModule </text>
</g>
<!-- LibraryModule&#45;&gt;AccordionModule  -->
<g id="edge13" class="edge">
<title>LibraryModule&#45;&gt;AccordionModule </title>
<path fill="none" stroke="black" stroke-dasharray="5,2" d="M863.69,-169C1030.97,-169 1554.79,-169 1554.79,-169 1554.79,-169 1554.79,-205.89 1554.79,-205.89"/>
<polygon fill="black" stroke="black" points="1551.29,-205.89 1554.79,-215.89 1558.29,-205.89 1551.29,-205.89"/>
</g>
<!-- AddressModule  -->
<g id="node15" class="node">
<title>AddressModule </title>
<polygon fill="#fb8072" stroke="black" points="1506.42,-252 1397.58,-252 1397.58,-216 1506.42,-216 1506.42,-252"/>
<text text-anchor="middle" x="1452" y="-229.8" font-family="Times,serif" font-size="14.00">AddressModule </text>
</g>
<!-- LibraryModule&#45;&gt;AddressModule  -->
<g id="edge14" class="edge">
<title>LibraryModule&#45;&gt;AddressModule </title>
<path fill="none" stroke="black" stroke-dasharray="5,2" d="M863.75,-172C1009.25,-172 1417.43,-172 1417.43,-172 1417.43,-172 1417.43,-205.73 1417.43,-205.73"/>
<polygon fill="black" stroke="black" points="1413.93,-205.73 1417.43,-215.73 1420.93,-205.73 1413.93,-205.73"/>
</g>
<!-- AuditModule  -->
<g id="node16" class="node">
<title>AuditModule </title>
<polygon fill="#fb8072" stroke="black" points="1379.44,-252 1284.56,-252 1284.56,-216 1379.44,-216 1379.44,-252"/>
<text text-anchor="middle" x="1332" y="-229.8" font-family="Times,serif" font-size="14.00">AuditModule </text>
</g>
<!-- LibraryModule&#45;&gt;AuditModule  -->
<g id="edge15" class="edge">
<title>LibraryModule&#45;&gt;AuditModule </title>
<path fill="none" stroke="black" stroke-dasharray="5,2" d="M863.87,-175C987.31,-175 1292.62,-175 1292.62,-175 1292.62,-175 1292.62,-205.98 1292.62,-205.98"/>
<polygon fill="black" stroke="black" points="1289.12,-205.98 1292.62,-215.98 1296.12,-205.98 1289.12,-205.98"/>
</g>
<!-- CollageModule  -->
<g id="node17" class="node">
<title>CollageModule </title>
<polygon fill="#fb8072" stroke="black" points="1266.1,-252 1159.9,-252 1159.9,-216 1266.1,-216 1266.1,-252"/>
<text text-anchor="middle" x="1213" y="-229.8" font-family="Times,serif" font-size="14.00">CollageModule </text>
</g>
<!-- LibraryModule&#45;&gt;CollageModule  -->
<g id="edge16" class="edge">
<title>LibraryModule&#45;&gt;CollageModule </title>
<path fill="none" stroke="black" stroke-dasharray="5,2" d="M863.59,-178C961.79,-178 1168.71,-178 1168.71,-178 1168.71,-178 1168.71,-205.97 1168.71,-205.97"/>
<polygon fill="black" stroke="black" points="1165.21,-205.97 1168.71,-215.97 1172.21,-205.97 1165.21,-205.97"/>
</g>
<!-- ContainerModule  -->
<g id="node18" class="node">
<title>ContainerModule </title>
<polygon fill="#fb8072" stroke="black" points="1142.26,-252 1023.74,-252 1023.74,-216 1142.26,-216 1142.26,-252"/>
<text text-anchor="middle" x="1083" y="-229.8" font-family="Times,serif" font-size="14.00">ContainerModule </text>
</g>
<!-- LibraryModule&#45;&gt;ContainerModule  -->
<g id="edge17" class="edge">
<title>LibraryModule&#45;&gt;ContainerModule </title>
<path fill="none" stroke="black" stroke-dasharray="5,2" d="M863.58,-181C932.15,-181 1046.12,-181 1046.12,-181 1046.12,-181 1046.12,-205.76 1046.12,-205.76"/>
<polygon fill="black" stroke="black" points="1042.63,-205.76 1046.12,-215.76 1049.63,-205.76 1042.63,-205.76"/>
</g>
<!-- DatepickerModule  -->
<g id="node19" class="node">
<title>DatepickerModule </title>
<polygon fill="#fb8072" stroke="black" points="1006.46,-252 881.54,-252 881.54,-216 1006.46,-216 1006.46,-252"/>
<text text-anchor="middle" x="944" y="-229.8" font-family="Times,serif" font-size="14.00">DatepickerModule </text>
</g>
<!-- LibraryModule&#45;&gt;DatepickerModule  -->
<g id="edge18" class="edge">
<title>LibraryModule&#45;&gt;DatepickerModule </title>
<path fill="none" stroke="black" stroke-dasharray="5,2" d="M863.61,-184C886.55,-184 908.62,-184 908.62,-184 908.62,-184 908.62,-205.95 908.62,-205.95"/>
<polygon fill="black" stroke="black" points="905.13,-205.95 908.62,-215.95 912.13,-205.95 905.13,-205.95"/>
</g>
<!-- DialogModule  -->
<g id="node20" class="node">
<title>DialogModule </title>
<polygon fill="#fb8072" stroke="black" points="863.65,-252 762.35,-252 762.35,-216 863.65,-216 863.65,-252"/>
<text text-anchor="middle" x="813" y="-229.8" font-family="Times,serif" font-size="14.00">DialogModule </text>
</g>
<!-- LibraryModule&#45;&gt;DialogModule  -->
<g id="edge19" class="edge">
<title>LibraryModule&#45;&gt;DialogModule </title>
<path fill="none" stroke="black" stroke-dasharray="5,2" d="M813,-187.11C813,-187.11 813,-205.99 813,-205.99"/>
<polygon fill="black" stroke="black" points="809.5,-205.99 813,-215.99 816.5,-205.99 809.5,-205.99"/>
</g>
<!-- FileUploadModule  -->
<g id="node21" class="node">
<title>FileUploadModule </title>
<polygon fill="#fb8072" stroke="black" points="744.04,-252 617.96,-252 617.96,-216 744.04,-216 744.04,-252"/>
<text text-anchor="middle" x="681" y="-229.8" font-family="Times,serif" font-size="14.00">FileUploadModule </text>
</g>
<!-- LibraryModule&#45;&gt;FileUploadModule  -->
<g id="edge20" class="edge">
<title>LibraryModule&#45;&gt;FileUploadModule </title>
<path fill="none" stroke="black" stroke-dasharray="5,2" d="M762.22,-184C741.18,-184 721.6,-184 721.6,-184 721.6,-184 721.6,-205.95 721.6,-205.95"/>
<polygon fill="black" stroke="black" points="718.1,-205.95 721.6,-215.95 725.1,-205.95 718.1,-205.95"/>
</g>
<!-- LibraryComponent  -->
<g id="node22" class="node">
<title>LibraryComponent </title>
<polygon fill="#fb8072" stroke="black" points="600.31,-252 473.69,-252 473.69,-216 600.31,-216 600.31,-252"/>
<text text-anchor="middle" x="537" y="-229.8" font-family="Times,serif" font-size="14.00">LibraryComponent </text>
</g>
<!-- LibraryModule&#45;&gt;LibraryComponent  -->
<g id="edge21" class="edge">
<title>LibraryModule&#45;&gt;LibraryComponent </title>
<path fill="none" stroke="black" stroke-dasharray="5,2" d="M762.35,-181C693.69,-181 579.57,-181 579.57,-181 579.57,-181 579.57,-205.76 579.57,-205.76"/>
<polygon fill="black" stroke="black" points="576.07,-205.76 579.57,-215.76 583.07,-205.76 576.07,-205.76"/>
</g>
<!-- SharedModule  -->
<g id="node23" class="node">
<title>SharedModule </title>
<polygon fill="#fb8072" stroke="black" points="455.92,-252 354.08,-252 354.08,-216 455.92,-216 455.92,-252"/>
<text text-anchor="middle" x="405" y="-229.8" font-family="Times,serif" font-size="14.00">SharedModule </text>
</g>
<!-- LibraryModule&#45;&gt;SharedModule  -->
<g id="edge22" class="edge">
<title>LibraryModule&#45;&gt;SharedModule </title>
<path fill="none" stroke="black" stroke-dasharray="5,2" d="M762.36,-178C660.49,-178 440.4,-178 440.4,-178 440.4,-178 440.4,-205.97 440.4,-205.97"/>
<polygon fill="black" stroke="black" points="436.9,-205.97 440.4,-215.97 443.9,-205.97 436.9,-205.97"/>
</g>
<!-- TileModule  -->
<g id="node24" class="node">
<title>TileModule </title>
<polygon fill="#fb8072" stroke="black" points="335.6,-252 250.4,-252 250.4,-216 335.6,-216 335.6,-252"/>
<text text-anchor="middle" x="293" y="-229.8" font-family="Times,serif" font-size="14.00">TileModule </text>
</g>
<!-- LibraryModule&#45;&gt;TileModule  -->
<g id="edge23" class="edge">
<title>LibraryModule&#45;&gt;TileModule </title>
<path fill="none" stroke="black" stroke-dasharray="5,2" d="M762.33,-175C636.96,-175 322.29,-175 322.29,-175 322.29,-175 322.29,-205.98 322.29,-205.98"/>
<polygon fill="black" stroke="black" points="318.79,-205.98 322.29,-215.98 325.79,-205.98 318.79,-205.98"/>
</g>
<!-- TimeModule  -->
<g id="node25" class="node">
<title>TimeModule </title>
<polygon fill="#fb8072" stroke="black" points="232.1,-252 139.9,-252 139.9,-216 232.1,-216 232.1,-252"/>
<text text-anchor="middle" x="186" y="-229.8" font-family="Times,serif" font-size="14.00">TimeModule </text>
</g>
<!-- LibraryModule&#45;&gt;TimeModule  -->
<g id="edge24" class="edge">
<title>LibraryModule&#45;&gt;TimeModule </title>
<path fill="none" stroke="black" stroke-dasharray="5,2" d="M762.43,-172C618.49,-172 216.88,-172 216.88,-172 216.88,-172 216.88,-205.73 216.88,-205.73"/>
<polygon fill="black" stroke="black" points="213.38,-205.73 216.88,-215.73 220.38,-205.73 213.38,-205.73"/>
</g>
<!-- TimerModule  -->
<g id="node26" class="node">
<title>TimerModule </title>
<polygon fill="#fb8072" stroke="black" points="121.76,-252 24.24,-252 24.24,-216 121.76,-216 121.76,-252"/>
<text text-anchor="middle" x="73" y="-229.8" font-family="Times,serif" font-size="14.00">TimerModule </text>
</g>
<!-- LibraryModule&#45;&gt;TimerModule  -->
<g id="edge25" class="edge">
<title>LibraryModule&#45;&gt;TimerModule </title>
<path fill="none" stroke="black" stroke-dasharray="5,2" d="M762.43,-169C600.59,-169 105.88,-169 105.88,-169 105.88,-169 105.88,-205.89 105.88,-205.89"/>
<polygon fill="black" stroke="black" points="102.38,-205.89 105.88,-215.89 109.38,-205.89 102.38,-205.89"/>
</g>
<!-- AccordionModule -->
<g id="node3" class="node">
<title>AccordionModule</title>
<polygon fill="#8dd3c7" stroke="black" points="1437.14,-122 1434.14,-126 1413.14,-126 1410.14,-122 1318.86,-122 1318.86,-86 1437.14,-86 1437.14,-122"/>
<text text-anchor="middle" x="1378" y="-99.8" font-family="Times,serif" font-size="14.00">AccordionModule</text>
</g>
<!-- AccordionModule&#45;&gt;LibraryModule -->
<g id="edge2" class="edge">
<title>AccordionModule&#45;&gt;LibraryModule</title>
<path fill="none" stroke="black" d="M1349.08,-122.02C1349.08,-139.37 1349.08,-163 1349.08,-163 1349.08,-163 873.92,-163 873.92,-163"/>
<polygon fill="black" stroke="black" points="873.92,-159.5 863.92,-163 873.92,-166.5 873.92,-159.5"/>
</g>
<!-- AddressModule -->
<g id="node4" class="node">
<title>AddressModule</title>
<polygon fill="#8dd3c7" stroke="black" points="1300.92,-122 1297.92,-126 1276.92,-126 1273.92,-122 1195.08,-122 1195.08,-86 1300.92,-86 1300.92,-122"/>
<text text-anchor="middle" x="1248" y="-99.8" font-family="Times,serif" font-size="14.00">AddressModule</text>
</g>
<!-- AddressModule&#45;&gt;LibraryModule -->
<g id="edge3" class="edge">
<title>AddressModule&#45;&gt;LibraryModule</title>
<path fill="none" stroke="black" d="M1230.79,-122.03C1230.79,-138.4 1230.79,-160 1230.79,-160 1230.79,-160 873.81,-160 873.81,-160"/>
<polygon fill="black" stroke="black" points="873.81,-156.5 863.81,-160 873.81,-163.5 873.81,-156.5"/>
</g>
<!-- AuditModule -->
<g id="node5" class="node">
<title>AuditModule</title>
<polygon fill="#8dd3c7" stroke="black" points="1177.94,-122 1174.94,-126 1153.94,-126 1150.94,-122 1086.06,-122 1086.06,-86 1177.94,-86 1177.94,-122"/>
<text text-anchor="middle" x="1132" y="-99.8" font-family="Times,serif" font-size="14.00">AuditModule</text>
</g>
<!-- AuditModule&#45;&gt;LibraryModule -->
<g id="edge4" class="edge">
<title>AuditModule&#45;&gt;LibraryModule</title>
<path fill="none" stroke="black" d="M1114.2,-122.24C1114.2,-137.57 1114.2,-157 1114.2,-157 1114.2,-157 873.75,-157 873.75,-157"/>
<polygon fill="black" stroke="black" points="873.75,-153.5 863.75,-157 873.75,-160.5 873.75,-153.5"/>
</g>
<!-- ContainerModule -->
<g id="node6" class="node">
<title>ContainerModule</title>
<polygon fill="#8dd3c7" stroke="black" points="1068.26,-122 1065.26,-126 1044.26,-126 1041.26,-122 953.74,-122 953.74,-86 1068.26,-86 1068.26,-122"/>
<text text-anchor="middle" x="1011" y="-99.8" font-family="Times,serif" font-size="14.00">ContainerModule</text>
</g>
<!-- ContainerModule&#45;&gt;LibraryModule -->
<g id="edge5" class="edge">
<title>ContainerModule&#45;&gt;LibraryModule</title>
<path fill="none" stroke="black" d="M979.92,-122.05C979.92,-136.37 979.92,-154 979.92,-154 979.92,-154 873.54,-154 873.54,-154"/>
<polygon fill="black" stroke="black" points="873.54,-150.5 863.54,-154 873.54,-157.5 873.54,-150.5"/>
</g>
<!-- DatepickerModule -->
<g id="node7" class="node">
<title>DatepickerModule</title>
<polygon fill="#8dd3c7" stroke="black" points="935.46,-122 932.46,-126 911.46,-126 908.46,-122 814.54,-122 814.54,-86 935.46,-86 935.46,-122"/>
<text text-anchor="middle" x="875" y="-99.8" font-family="Times,serif" font-size="14.00">DatepickerModule</text>
</g>
<!-- DatepickerModule&#45;&gt;LibraryModule -->
<g id="edge6" class="edge">
<title>DatepickerModule&#45;&gt;LibraryModule</title>
<path fill="none" stroke="black" d="M839.14,-122.11C839.14,-122.11 839.14,-140.99 839.14,-140.99"/>
<polygon fill="black" stroke="black" points="835.64,-140.99 839.14,-150.99 842.64,-140.99 835.64,-140.99"/>
</g>
<!-- DialogModule -->
<g id="node8" class="node">
<title>DialogModule</title>
<polygon fill="#8dd3c7" stroke="black" points="796.65,-122 793.65,-126 772.65,-126 769.65,-122 699.35,-122 699.35,-86 796.65,-86 796.65,-122"/>
<text text-anchor="middle" x="748" y="-99.8" font-family="Times,serif" font-size="14.00">DialogModule</text>
</g>
<!-- DialogModule&#45;&gt;LibraryModule -->
<g id="edge7" class="edge">
<title>DialogModule&#45;&gt;LibraryModule</title>
<path fill="none" stroke="black" d="M779.53,-122.11C779.53,-122.11 779.53,-140.99 779.53,-140.99"/>
<polygon fill="black" stroke="black" points="776.03,-140.99 779.53,-150.99 783.03,-140.99 776.03,-140.99"/>
</g>
<!-- FileUploadModule -->
<g id="node9" class="node">
<title>FileUploadModule</title>
<polygon fill="#8dd3c7" stroke="black" points="681.04,-122 678.04,-126 657.04,-126 654.04,-122 558.96,-122 558.96,-86 681.04,-86 681.04,-122"/>
<text text-anchor="middle" x="620" y="-99.8" font-family="Times,serif" font-size="14.00">FileUploadModule</text>
</g>
<!-- FileUploadModule&#45;&gt;LibraryModule -->
<g id="edge8" class="edge">
<title>FileUploadModule&#45;&gt;LibraryModule</title>
<path fill="none" stroke="black" d="M649.62,-122.05C649.62,-136.37 649.62,-154 649.62,-154 649.62,-154 752.2,-154 752.2,-154"/>
<polygon fill="black" stroke="black" points="752.2,-157.5 762.2,-154 752.2,-150.5 752.2,-157.5"/>
</g>
<!-- NotFoundModule -->
<g id="node10" class="node">
<title>NotFoundModule</title>
<polygon fill="#8dd3c7" stroke="black" points="541.33,-122 538.33,-126 517.33,-126 514.33,-122 424.67,-122 424.67,-86 541.33,-86 541.33,-122"/>
<text text-anchor="middle" x="483" y="-99.8" font-family="Times,serif" font-size="14.00">NotFoundModule</text>
</g>
<!-- NotFoundModule&#45;&gt;LibraryModule -->
<g id="edge9" class="edge">
<title>NotFoundModule&#45;&gt;LibraryModule</title>
<path fill="none" stroke="black" d="M507.38,-122.24C507.38,-137.57 507.38,-157 507.38,-157 507.38,-157 752.19,-157 752.19,-157"/>
<polygon fill="black" stroke="black" points="752.19,-160.5 762.19,-157 752.19,-153.5 752.19,-160.5"/>
</g>
<!-- SharedModule -->
<g id="node11" class="node">
<title>SharedModule</title>
<polygon fill="#8dd3c7" stroke="black" points="407.42,-122 404.42,-126 383.42,-126 380.42,-122 308.58,-122 308.58,-86 407.42,-86 407.42,-122"/>
<text text-anchor="middle" x="358" y="-99.8" font-family="Times,serif" font-size="14.00">SharedModule</text>
</g>
<!-- SharedModule&#45;&gt;LibraryModule -->
<g id="edge10" class="edge">
<title>SharedModule&#45;&gt;LibraryModule</title>
<path fill="none" stroke="black" d="M380.62,-122.03C380.62,-138.4 380.62,-160 380.62,-160 380.62,-160 752.13,-160 752.13,-160"/>
<polygon fill="black" stroke="black" points="752.13,-163.5 762.13,-160 752.13,-156.5 752.13,-163.5"/>
</g>
<!-- TimeModule -->
<g id="node12" class="node">
<title>TimeModule</title>
<polygon fill="#8dd3c7" stroke="black" points="290.6,-122 287.6,-126 266.6,-126 263.6,-122 201.4,-122 201.4,-86 290.6,-86 290.6,-122"/>
<text text-anchor="middle" x="246" y="-99.8" font-family="Times,serif" font-size="14.00">TimeModule</text>
</g>
<!-- TimeModule&#45;&gt;LibraryModule -->
<g id="edge11" class="edge">
<title>TimeModule&#45;&gt;LibraryModule</title>
<path fill="none" stroke="black" d="M270.38,-122.02C270.38,-139.37 270.38,-163 270.38,-163 270.38,-163 752.44,-163 752.44,-163"/>
<polygon fill="black" stroke="black" points="752.44,-166.5 762.44,-163 752.44,-159.5 752.44,-166.5"/>
</g>
<!-- TimerModule -->
<g id="node13" class="node">
<title>TimerModule</title>
<polygon fill="#8dd3c7" stroke="black" points="183.76,-122 180.76,-126 159.76,-126 156.76,-122 90.24,-122 90.24,-86 183.76,-86 183.76,-122"/>
<text text-anchor="middle" x="137" y="-99.8" font-family="Times,serif" font-size="14.00">TimerModule</text>
</g>
<!-- TimerModule&#45;&gt;LibraryModule -->
<g id="edge12" class="edge">
<title>TimerModule&#45;&gt;LibraryModule</title>
<path fill="none" stroke="black" d="M161.79,-122.27C161.79,-140.56 161.79,-166 161.79,-166 161.79,-166 752.44,-166 752.44,-166"/>
<polygon fill="black" stroke="black" points="752.44,-169.5 762.44,-166 752.44,-162.5 752.44,-169.5"/>
</g>
</g>
</svg>
