<?xml version="1.0" encoding="UTF-8" standalone="no"?>
<!DOCTYPE svg PUBLIC "-//W3C//DTD SVG 1.1//EN"
 "http://www.w3.org/Graphics/SVG/1.1/DTD/svg11.dtd">
<!-- Generated by graphviz version 2.47.0 (20210316.0004)
 -->
<!-- Title: dependencies Pages: 1 -->
<svg width="698pt" height="284pt"
 viewBox="0.00 0.00 698.00 284.00" xmlns="http://www.w3.org/2000/svg" xmlns:xlink="http://www.w3.org/1999/xlink">
<g id="graph0" class="graph" transform="scale(1 1) rotate(0) translate(4 280)">
<title>dependencies</title>
<polygon fill="white" stroke="transparent" points="-4,4 -4,-280 694,-280 694,4 -4,4"/>
<text text-anchor="start" x="324.01" y="-42.4" font-family="sans-serif" font-weight="bold" font-size="14.00">Legend</text>
<polygon fill="#ffffb3" stroke="transparent" points="111,-10 111,-30 131,-30 131,-10 111,-10"/>
<text text-anchor="start" x="134.63" y="-15.4" font-family="sans-serif" font-size="14.00"> &#160;Declarations</text>
<polygon fill="#8dd3c7" stroke="transparent" points="224,-10 224,-30 244,-30 244,-10 224,-10"/>
<text text-anchor="start" x="247.73" y="-15.4" font-family="sans-serif" font-size="14.00"> &#160;Module</text>
<polygon fill="#80b1d3" stroke="transparent" points="310,-10 310,-30 330,-30 330,-10 310,-10"/>
<text text-anchor="start" x="333.78" y="-15.4" font-family="sans-serif" font-size="14.00"> &#160;Bootstrap</text>
<polygon fill="#fdb462" stroke="transparent" points="407,-10 407,-30 427,-30 427,-10 407,-10"/>
<text text-anchor="start" x="430.67" y="-15.4" font-family="sans-serif" font-size="14.00"> &#160;Providers</text>
<polygon fill="#fb8072" stroke="transparent" points="503,-10 503,-30 523,-30 523,-10 503,-10"/>
<text text-anchor="start" x="526.73" y="-15.4" font-family="sans-serif" font-size="14.00"> &#160;Exports</text>
<g id="clust1" class="cluster">
<title>cluster_AuditModule</title>
<polygon fill="none" stroke="black" stroke-dasharray="1,5" points="8,-70 8,-268 682,-268 682,-70 8,-70"/>
</g>
<g id="clust6" class="cluster">
<title>cluster_AuditModule_imports</title>
<polygon fill="none" stroke="black" points="560,-78 560,-130 674,-130 674,-78 560,-78"/>
</g>
<g id="clust7" class="cluster">
<title>cluster_AuditModule_exports</title>
<polygon fill="none" stroke="black" points="71,-208 71,-260 618,-260 618,-208 71,-208"/>
</g>
<g id="clust2" class="cluster">
<title>cluster_AuditModule_declarations</title>
<polygon fill="none" stroke="black" points="16,-78 16,-130 552,-130 552,-78 16,-78"/>
</g>
<!-- AuditFieldsComponent -->
<g id="node1" class="node">
<title>AuditFieldsComponent</title>
<polygon fill="#ffffb3" stroke="black" points="543.94,-122 396.06,-122 396.06,-86 543.94,-86 543.94,-122"/>
<text text-anchor="middle" x="470" y="-99.8" font-family="Times,serif" font-size="14.00">AuditFieldsComponent</text>
</g>
<!-- AuditModule -->
<g id="node4" class="node">
<title>AuditModule</title>
<polygon fill="#8dd3c7" stroke="black" points="407.94,-187 404.94,-191 383.94,-191 380.94,-187 316.06,-187 316.06,-151 407.94,-151 407.94,-187"/>
<text text-anchor="middle" x="362" y="-164.8" font-family="Times,serif" font-size="14.00">AuditModule</text>
</g>
<!-- AuditFieldsComponent&#45;&gt;AuditModule -->
<g id="edge1" class="edge">
<title>AuditFieldsComponent&#45;&gt;AuditModule</title>
<path fill="none" stroke="black" d="M402,-122.11C402,-122.11 402,-140.99 402,-140.99"/>
<polygon fill="black" stroke="black" points="398.5,-140.99 402,-150.99 405.5,-140.99 398.5,-140.99"/>
</g>
<!-- AuditHistoryComponent -->
<g id="node2" class="node">
<title>AuditHistoryComponent</title>
<polygon fill="#ffffb3" stroke="black" points="378.71,-122 223.29,-122 223.29,-86 378.71,-86 378.71,-122"/>
<text text-anchor="middle" x="301" y="-99.8" font-family="Times,serif" font-size="14.00">AuditHistoryComponent</text>
</g>
<!-- AuditHistoryComponent&#45;&gt;AuditModule -->
<g id="edge2" class="edge">
<title>AuditHistoryComponent&#45;&gt;AuditModule</title>
<path fill="none" stroke="black" d="M347.44,-122.11C347.44,-122.11 347.44,-140.99 347.44,-140.99"/>
<polygon fill="black" stroke="black" points="343.94,-140.99 347.44,-150.99 350.94,-140.99 343.94,-140.99"/>
</g>
<!-- AuditHistoryLinkComponent -->
<g id="node3" class="node">
<title>AuditHistoryLinkComponent</title>
<polygon fill="#ffffb3" stroke="black" points="205.66,-122 24.34,-122 24.34,-86 205.66,-86 205.66,-122"/>
<text text-anchor="middle" x="115" y="-99.8" font-family="Times,serif" font-size="14.00">AuditHistoryLinkComponent</text>
</g>
<!-- AuditHistoryLinkComponent&#45;&gt;AuditModule -->
<g id="edge3" class="edge">
<title>AuditHistoryLinkComponent&#45;&gt;AuditModule</title>
<path fill="none" stroke="black" d="M142.62,-122.02C142.62,-139.37 142.62,-163 142.62,-163 142.62,-163 306.28,-163 306.28,-163"/>
<polygon fill="black" stroke="black" points="306.28,-166.5 316.28,-163 306.28,-159.5 306.28,-166.5"/>
</g>
<!-- AuditFieldsComponent  -->
<g id="node6" class="node">
<title>AuditFieldsComponent </title>
<polygon fill="#fb8072" stroke="black" points="610.44,-252 459.56,-252 459.56,-216 610.44,-216 610.44,-252"/>
<text text-anchor="middle" x="535" y="-229.8" font-family="Times,serif" font-size="14.00">AuditFieldsComponent </text>
</g>
<!-- AuditModule&#45;&gt;AuditFieldsComponent  -->
<g id="edge5" class="edge">
<title>AuditModule&#45;&gt;AuditFieldsComponent </title>
<path fill="none" stroke="black" stroke-dasharray="5,2" d="M408.11,-175C448.78,-175 501.62,-175 501.62,-175 501.62,-175 501.62,-205.98 501.62,-205.98"/>
<polygon fill="black" stroke="black" points="498.13,-205.98 501.62,-215.98 505.13,-205.98 498.13,-205.98"/>
</g>
<!-- AuditHistoryComponent  -->
<g id="node7" class="node">
<title>AuditHistoryComponent </title>
<polygon fill="#fb8072" stroke="black" points="441.21,-252 282.79,-252 282.79,-216 441.21,-216 441.21,-252"/>
<text text-anchor="middle" x="362" y="-229.8" font-family="Times,serif" font-size="14.00">AuditHistoryComponent </text>
</g>
<!-- AuditModule&#45;&gt;AuditHistoryComponent  -->
<g id="edge6" class="edge">
<title>AuditModule&#45;&gt;AuditHistoryComponent </title>
<path fill="none" stroke="black" stroke-dasharray="5,2" d="M362,-187.11C362,-187.11 362,-205.99 362,-205.99"/>
<polygon fill="black" stroke="black" points="358.5,-205.99 362,-215.99 365.5,-205.99 358.5,-205.99"/>
</g>
<!-- AuditHistoryLinkComponent  -->
<g id="node8" class="node">
<title>AuditHistoryLinkComponent </title>
<polygon fill="#fb8072" stroke="black" points="264.66,-252 79.34,-252 79.34,-216 264.66,-216 264.66,-252"/>
<text text-anchor="middle" x="172" y="-229.8" font-family="Times,serif" font-size="14.00">AuditHistoryLinkComponent </text>
</g>
<!-- AuditModule&#45;&gt;AuditHistoryLinkComponent  -->
<g id="edge7" class="edge">
<title>AuditModule&#45;&gt;AuditHistoryLinkComponent </title>
<path fill="none" stroke="black" stroke-dasharray="5,2" d="M316.03,-175C282.9,-175 243.99,-175 243.99,-175 243.99,-175 243.99,-205.98 243.99,-205.98"/>
<polygon fill="black" stroke="black" points="240.49,-205.98 243.99,-215.98 247.49,-205.98 240.49,-205.98"/>
</g>
<!-- SharedModule -->
<g id="node5" class="node">
<title>SharedModule</title>
<polygon fill="#8dd3c7" stroke="black" points="666.42,-122 663.42,-126 642.42,-126 639.42,-122 567.58,-122 567.58,-86 666.42,-86 666.42,-122"/>
<text text-anchor="middle" x="617" y="-99.8" font-family="Times,serif" font-size="14.00">SharedModule</text>
</g>
<!-- SharedModule&#45;&gt;AuditModule -->
<g id="edge4" class="edge">
<title>SharedModule&#45;&gt;AuditModule</title>
<path fill="none" stroke="black" d="M589.13,-122.02C589.13,-139.37 589.13,-163 589.13,-163 589.13,-163 417.96,-163 417.96,-163"/>
<polygon fill="black" stroke="black" points="417.96,-159.5 407.96,-163 417.96,-166.5 417.96,-159.5"/>
</g>
</g>
</svg>
