<?xml version="1.0" encoding="UTF-8" standalone="no"?>
<!DOCTYPE svg PUBLIC "-//W3C//DTD SVG 1.1//EN"
 "http://www.w3.org/Graphics/SVG/1.1/DTD/svg11.dtd">
<!-- Generated by graphviz version 2.47.0 (20210316.0004)
 -->
<!-- Title: dependencies Pages: 1 -->
<svg width="698pt" height="284pt"
 viewBox="0.00 0.00 698.00 284.00" xmlns="http://www.w3.org/2000/svg" xmlns:xlink="http://www.w3.org/1999/xlink">
<g id="graph0" class="graph" transform="scale(1 1) rotate(0) translate(4 280)">
<title>dependencies</title>
<polygon fill="white" stroke="transparent" points="-4,4 -4,-280 694,-280 694,4 -4,4"/>
<text text-anchor="start" x="324.01" y="-42.4" font-family="sans-serif" font-weight="bold" font-size="14.00">Legend</text>
<polygon fill="#ffffb3" stroke="transparent" points="111,-10 111,-30 131,-30 131,-10 111,-10"/>
<text text-anchor="start" x="134.63" y="-15.4" font-family="sans-serif" font-size="14.00"> &#160;Declarations</text>
<polygon fill="#8dd3c7" stroke="transparent" points="224,-10 224,-30 244,-30 244,-10 224,-10"/>
<text text-anchor="start" x="247.73" y="-15.4" font-family="sans-serif" font-size="14.00"> &#160;Module</text>
<polygon fill="#80b1d3" stroke="transparent" points="310,-10 310,-30 330,-30 330,-10 310,-10"/>
<text text-anchor="start" x="333.78" y="-15.4" font-family="sans-serif" font-size="14.00"> &#160;Bootstrap</text>
<polygon fill="#fdb462" stroke="transparent" points="407,-10 407,-30 427,-30 427,-10 407,-10"/>
<text text-anchor="start" x="430.67" y="-15.4" font-family="sans-serif" font-size="14.00"> &#160;Providers</text>
<polygon fill="#fb8072" stroke="transparent" points="503,-10 503,-30 523,-30 523,-10 503,-10"/>
<text text-anchor="start" x="526.73" y="-15.4" font-family="sans-serif" font-size="14.00"> &#160;Exports</text>
<g id="clust1" class="cluster">
<title>cluster_AuditModule</title>
<polygon fill="none" stroke="black" stroke-dasharray="1,5" points="8,-70 8,-268 682,-268 682,-70 8,-70"/>
</g>
<g id="clust2" class="cluster">
<title>cluster_AuditModule_declarations</title>
<polygon fill="none" stroke="black" points="138,-78 138,-130 674,-130 674,-78 138,-78"/>
</g>
<g id="clust7" class="cluster">
<title>cluster_AuditModule_exports</title>
<polygon fill="none" stroke="black" points="71,-208 71,-260 618,-260 618,-208 71,-208"/>
</g>
<g id="clust6" class="cluster">
<title>cluster_AuditModule_imports</title>
<polygon fill="none" stroke="black" points="16,-78 16,-130 130,-130 130,-78 16,-78"/>
</g>
<!-- AuditFieldsComponent -->
<g id="node1" class="node">
<title>AuditFieldsComponent</title>
<polygon fill="#ffffb3" stroke="black" points="665.94,-122 518.06,-122 518.06,-86 665.94,-86 665.94,-122"/>
<text text-anchor="middle" x="592" y="-99.8" font-family="Times,serif" font-size="14.00">AuditFieldsComponent</text>
</g>
<!-- AuditModule -->
<g id="node4" class="node">
<title>AuditModule</title>
<polygon fill="#8dd3c7" stroke="black" points="407.94,-187 404.94,-191 383.94,-191 380.94,-187 316.06,-187 316.06,-151 407.94,-151 407.94,-187"/>
<text text-anchor="middle" x="362" y="-164.8" font-family="Times,serif" font-size="14.00">AuditModule</text>
</g>
<!-- AuditFieldsComponent&#45;&gt;AuditModule -->
<g id="edge1" class="edge">
<title>AuditFieldsComponent&#45;&gt;AuditModule</title>
<path fill="none" stroke="black" d="M564.38,-122.02C564.38,-139.37 564.38,-163 564.38,-163 564.38,-163 417.92,-163 417.92,-163"/>
<polygon fill="black" stroke="black" points="417.92,-159.5 407.92,-163 417.92,-166.5 417.92,-159.5"/>
</g>
<!-- AuditHistoryComponent -->
<g id="node2" class="node">
<title>AuditHistoryComponent</title>
<polygon fill="#ffffb3" stroke="black" points="500.71,-122 345.29,-122 345.29,-86 500.71,-86 500.71,-122"/>
<text text-anchor="middle" x="423" y="-99.8" font-family="Times,serif" font-size="14.00">AuditHistoryComponent</text>
</g>
<!-- AuditHistoryComponent&#45;&gt;AuditModule -->
<g id="edge2" class="edge">
<title>AuditHistoryComponent&#45;&gt;AuditModule</title>
<path fill="none" stroke="black" d="M376.56,-122.11C376.56,-122.11 376.56,-140.99 376.56,-140.99"/>
<polygon fill="black" stroke="black" points="373.06,-140.99 376.56,-150.99 380.06,-140.99 373.06,-140.99"/>
</g>
<!-- AuditHistoryLinkComponent -->
<g id="node3" class="node">
<title>AuditHistoryLinkComponent</title>
<polygon fill="#ffffb3" stroke="black" points="327.66,-122 146.34,-122 146.34,-86 327.66,-86 327.66,-122"/>
<text text-anchor="middle" x="237" y="-99.8" font-family="Times,serif" font-size="14.00">AuditHistoryLinkComponent</text>
</g>
<!-- AuditHistoryLinkComponent&#45;&gt;AuditModule -->
<g id="edge3" class="edge">
<title>AuditHistoryLinkComponent&#45;&gt;AuditModule</title>
<path fill="none" stroke="black" d="M322.05,-122.11C322.05,-122.11 322.05,-140.99 322.05,-140.99"/>
<polygon fill="black" stroke="black" points="318.55,-140.99 322.05,-150.99 325.55,-140.99 318.55,-140.99"/>
</g>
<!-- AuditFieldsComponent  -->
<g id="node6" class="node">
<title>AuditFieldsComponent </title>
<polygon fill="#fb8072" stroke="black" points="610.44,-252 459.56,-252 459.56,-216 610.44,-216 610.44,-252"/>
<text text-anchor="middle" x="535" y="-229.8" font-family="Times,serif" font-size="14.00">AuditFieldsComponent </text>
</g>
<!-- AuditModule&#45;&gt;AuditFieldsComponent  -->
<g id="edge5" class="edge">
<title>AuditModule&#45;&gt;AuditFieldsComponent </title>
<path fill="none" stroke="black" stroke-dasharray="5,2" d="M407.99,-175C441.14,-175 480.07,-175 480.07,-175 480.07,-175 480.07,-205.98 480.07,-205.98"/>
<polygon fill="black" stroke="black" points="476.57,-205.98 480.07,-215.98 483.57,-205.98 476.57,-205.98"/>
</g>
<!-- AuditHistoryComponent  -->
<g id="node7" class="node">
<title>AuditHistoryComponent </title>
<polygon fill="#fb8072" stroke="black" points="441.21,-252 282.79,-252 282.79,-216 441.21,-216 441.21,-252"/>
<text text-anchor="middle" x="362" y="-229.8" font-family="Times,serif" font-size="14.00">AuditHistoryComponent </text>
</g>
<!-- AuditModule&#45;&gt;AuditHistoryComponent  -->
<g id="edge6" class="edge">
<title>AuditModule&#45;&gt;AuditHistoryComponent </title>
<path fill="none" stroke="black" stroke-dasharray="5,2" d="M362,-187.11C362,-187.11 362,-205.99 362,-205.99"/>
<polygon fill="black" stroke="black" points="358.5,-205.99 362,-215.99 365.5,-205.99 358.5,-205.99"/>
</g>
<!-- AuditHistoryLinkComponent  -->
<g id="node8" class="node">
<title>AuditHistoryLinkComponent </title>
<polygon fill="#fb8072" stroke="black" points="264.66,-252 79.34,-252 79.34,-216 264.66,-216 264.66,-252"/>
<text text-anchor="middle" x="172" y="-229.8" font-family="Times,serif" font-size="14.00">AuditHistoryLinkComponent </text>
</g>
<!-- AuditModule&#45;&gt;AuditHistoryLinkComponent  -->
<g id="edge7" class="edge">
<title>AuditModule&#45;&gt;AuditHistoryLinkComponent </title>
<path fill="none" stroke="black" stroke-dasharray="5,2" d="M316.28,-175C270.05,-175 205.38,-175 205.38,-175 205.38,-175 205.38,-205.98 205.38,-205.98"/>
<polygon fill="black" stroke="black" points="201.88,-205.98 205.38,-215.98 208.88,-205.98 201.88,-205.98"/>
</g>
<!-- SharedModule -->
<g id="node5" class="node">
<title>SharedModule</title>
<polygon fill="#8dd3c7" stroke="black" points="122.42,-122 119.42,-126 98.42,-126 95.42,-122 23.58,-122 23.58,-86 122.42,-86 122.42,-122"/>
<text text-anchor="middle" x="73" y="-99.8" font-family="Times,serif" font-size="14.00">SharedModule</text>
</g>
<!-- SharedModule&#45;&gt;AuditModule -->
<g id="edge4" class="edge">
<title>SharedModule&#45;&gt;AuditModule</title>
<path fill="none" stroke="black" d="M100.82,-122.02C100.82,-139.37 100.82,-163 100.82,-163 100.82,-163 306.21,-163 306.21,-163"/>
<polygon fill="black" stroke="black" points="306.21,-166.5 316.21,-163 306.21,-159.5 306.21,-166.5"/>
</g>
</g>
</svg>
