<?xml version="1.0" encoding="UTF-8" standalone="no"?>
<!DOCTYPE svg PUBLIC "-//W3C//DTD SVG 1.1//EN"
 "http://www.w3.org/Graphics/SVG/1.1/DTD/svg11.dtd">
<!-- Generated by graphviz version 2.47.0 (20210316.0004)
 -->
<!-- Title: dependencies Pages: 1 -->
<svg width="644pt" height="284pt"
 viewBox="0.00 0.00 644.00 284.00" xmlns="http://www.w3.org/2000/svg" xmlns:xlink="http://www.w3.org/1999/xlink">
<g id="graph0" class="graph" transform="scale(1 1) rotate(0) translate(4 280)">
<title>dependencies</title>
<polygon fill="white" stroke="transparent" points="-4,4 -4,-280 640,-280 640,4 -4,4"/>
<text text-anchor="start" x="297.01" y="-42.4" font-family="sans-serif" font-weight="bold" font-size="14.00">Legend</text>
<polygon fill="#ffffb3" stroke="transparent" points="84,-10 84,-30 104,-30 104,-10 84,-10"/>
<text text-anchor="start" x="107.63" y="-15.4" font-family="sans-serif" font-size="14.00"> &#160;Declarations</text>
<polygon fill="#8dd3c7" stroke="transparent" points="197,-10 197,-30 217,-30 217,-10 197,-10"/>
<text text-anchor="start" x="220.73" y="-15.4" font-family="sans-serif" font-size="14.00"> &#160;Module</text>
<polygon fill="#80b1d3" stroke="transparent" points="283,-10 283,-30 303,-30 303,-10 283,-10"/>
<text text-anchor="start" x="306.78" y="-15.4" font-family="sans-serif" font-size="14.00"> &#160;Bootstrap</text>
<polygon fill="#fdb462" stroke="transparent" points="380,-10 380,-30 400,-30 400,-10 380,-10"/>
<text text-anchor="start" x="403.67" y="-15.4" font-family="sans-serif" font-size="14.00"> &#160;Providers</text>
<polygon fill="#fb8072" stroke="transparent" points="476,-10 476,-30 496,-30 496,-10 476,-10"/>
<text text-anchor="start" x="499.73" y="-15.4" font-family="sans-serif" font-size="14.00"> &#160;Exports</text>
<g id="clust1" class="cluster">
<title>cluster_TimeModule</title>
<polygon fill="none" stroke="black" stroke-dasharray="1,5" points="8,-70 8,-268 628,-268 628,-70 8,-70"/>
</g>
<g id="clust2" class="cluster">
<title>cluster_TimeModule_declarations</title>
<polygon fill="none" stroke="black" points="252,-78 252,-130 620,-130 620,-78 252,-78"/>
</g>
<g id="clust5" class="cluster">
<title>cluster_TimeModule_imports</title>
<polygon fill="none" stroke="black" points="16,-78 16,-130 244,-130 244,-78 16,-78"/>
</g>
<g id="clust6" class="cluster">
<title>cluster_TimeModule_exports</title>
<polygon fill="none" stroke="black" points="95,-208 95,-260 470,-260 470,-208 95,-208"/>
</g>
<!-- DateTimeControlComponent -->
<g id="node1" class="node">
<title>DateTimeControlComponent</title>
<polygon fill="#ffffb3" stroke="black" points="612.09,-122 431.91,-122 431.91,-86 612.09,-86 612.09,-122"/>
<text text-anchor="middle" x="522" y="-99.8" font-family="Times,serif" font-size="14.00">DateTimeControlComponent</text>
</g>
<!-- TimeModule -->
<g id="node3" class="node">
<title>TimeModule</title>
<polygon fill="#8dd3c7" stroke="black" points="304.6,-187 301.6,-191 280.6,-191 277.6,-187 215.4,-187 215.4,-151 304.6,-151 304.6,-187"/>
<text text-anchor="middle" x="260" y="-164.8" font-family="Times,serif" font-size="14.00">TimeModule</text>
</g>
<!-- DateTimeControlComponent&#45;&gt;TimeModule -->
<g id="edge1" class="edge">
<title>DateTimeControlComponent&#45;&gt;TimeModule</title>
<path fill="none" stroke="black" d="M446.88,-122.11C446.88,-141.34 446.88,-169 446.88,-169 446.88,-169 314.76,-169 314.76,-169"/>
<polygon fill="black" stroke="black" points="314.76,-165.5 304.76,-169 314.76,-172.5 314.76,-165.5"/>
</g>
<!-- TimeControlComponent -->
<g id="node2" class="node">
<title>TimeControlComponent</title>
<polygon fill="#ffffb3" stroke="black" points="413.66,-122 260.34,-122 260.34,-86 413.66,-86 413.66,-122"/>
<text text-anchor="middle" x="337" y="-99.8" font-family="Times,serif" font-size="14.00">TimeControlComponent</text>
</g>
<!-- TimeControlComponent&#45;&gt;TimeModule -->
<g id="edge2" class="edge">
<title>TimeControlComponent&#45;&gt;TimeModule</title>
<path fill="none" stroke="black" d="M282.36,-122.11C282.36,-122.11 282.36,-140.99 282.36,-140.99"/>
<polygon fill="black" stroke="black" points="278.86,-140.99 282.36,-150.99 285.86,-140.99 278.86,-140.99"/>
</g>
<!-- DateTimeControlComponent  -->
<g id="node6" class="node">
<title>DateTimeControlComponent </title>
<polygon fill="#fb8072" stroke="black" points="461.59,-252 278.41,-252 278.41,-216 461.59,-216 461.59,-252"/>
<text text-anchor="middle" x="370" y="-229.8" font-family="Times,serif" font-size="14.00">DateTimeControlComponent </text>
</g>
<!-- TimeModule&#45;&gt;DateTimeControlComponent  -->
<g id="edge5" class="edge">
<title>TimeModule&#45;&gt;DateTimeControlComponent </title>
<path fill="none" stroke="black" stroke-dasharray="5,2" d="M291.38,-187.11C291.38,-187.11 291.38,-205.99 291.38,-205.99"/>
<polygon fill="black" stroke="black" points="287.88,-205.99 291.38,-215.99 294.88,-205.99 287.88,-205.99"/>
</g>
<!-- TimeControlComponent  -->
<g id="node7" class="node">
<title>TimeControlComponent </title>
<polygon fill="#fb8072" stroke="black" points="260.66,-252 103.34,-252 103.34,-216 260.66,-216 260.66,-252"/>
<text text-anchor="middle" x="182" y="-229.8" font-family="Times,serif" font-size="14.00">TimeControlComponent </text>
</g>
<!-- TimeModule&#45;&gt;TimeControlComponent  -->
<g id="edge6" class="edge">
<title>TimeModule&#45;&gt;TimeControlComponent </title>
<path fill="none" stroke="black" stroke-dasharray="5,2" d="M238.02,-187.11C238.02,-187.11 238.02,-205.99 238.02,-205.99"/>
<polygon fill="black" stroke="black" points="234.52,-205.99 238.02,-215.99 241.52,-205.99 234.52,-205.99"/>
</g>
<!-- FormsModule -->
<g id="node4" class="node">
<title>FormsModule</title>
<polygon fill="#8dd3c7" stroke="black" points="235.83,-122 232.83,-126 211.83,-126 208.83,-122 140.17,-122 140.17,-86 235.83,-86 235.83,-122"/>
<text text-anchor="middle" x="188" y="-99.8" font-family="Times,serif" font-size="14.00">FormsModule</text>
</g>
<!-- FormsModule&#45;&gt;TimeModule -->
<g id="edge3" class="edge">
<title>FormsModule&#45;&gt;TimeModule</title>
<path fill="none" stroke="black" d="M225.56,-122.11C225.56,-122.11 225.56,-140.99 225.56,-140.99"/>
<polygon fill="black" stroke="black" points="222.06,-140.99 225.56,-150.99 229.06,-140.99 222.06,-140.99"/>
</g>
<!-- SharedModule -->
<g id="node5" class="node">
<title>SharedModule</title>
<polygon fill="#8dd3c7" stroke="black" points="122.42,-122 119.42,-126 98.42,-126 95.42,-122 23.58,-122 23.58,-86 122.42,-86 122.42,-122"/>
<text text-anchor="middle" x="73" y="-99.8" font-family="Times,serif" font-size="14.00">SharedModule</text>
</g>
<!-- SharedModule&#45;&gt;TimeModule -->
<g id="edge4" class="edge">
<title>SharedModule&#45;&gt;TimeModule</title>
<path fill="none" stroke="black" d="M112.82,-122.11C112.82,-141.34 112.82,-169 112.82,-169 112.82,-169 205.44,-169 205.44,-169"/>
<polygon fill="black" stroke="black" points="205.44,-172.5 215.44,-169 205.44,-165.5 205.44,-172.5"/>
</g>
</g>
</svg>
