<?xml version="1.0" encoding="UTF-8" standalone="no"?>
<!DOCTYPE svg PUBLIC "-//W3C//DTD SVG 1.1//EN"
 "http://www.w3.org/Graphics/SVG/1.1/DTD/svg11.dtd">
<!-- Generated by graphviz version 2.47.0 (20210316.0004)
 -->
<!-- Title: dependencies Pages: 1 -->
<svg width="504pt" height="284pt"
 viewBox="0.00 0.00 504.00 284.00" xmlns="http://www.w3.org/2000/svg" xmlns:xlink="http://www.w3.org/1999/xlink">
<g id="graph0" class="graph" transform="scale(1 1) rotate(0) translate(4 280)">
<title>dependencies</title>
<polygon fill="white" stroke="transparent" points="-4,4 -4,-280 500,-280 500,4 -4,4"/>
<text text-anchor="start" x="227.01" y="-42.4" font-family="sans-serif" font-weight="bold" font-size="14.00">Legend</text>
<polygon fill="#ffffb3" stroke="transparent" points="14,-10 14,-30 34,-30 34,-10 14,-10"/>
<text text-anchor="start" x="37.63" y="-15.4" font-family="sans-serif" font-size="14.00"> &#160;Declarations</text>
<polygon fill="#8dd3c7" stroke="transparent" points="127,-10 127,-30 147,-30 147,-10 127,-10"/>
<text text-anchor="start" x="150.73" y="-15.4" font-family="sans-serif" font-size="14.00"> &#160;Module</text>
<polygon fill="#80b1d3" stroke="transparent" points="213,-10 213,-30 233,-30 233,-10 213,-10"/>
<text text-anchor="start" x="236.78" y="-15.4" font-family="sans-serif" font-size="14.00"> &#160;Bootstrap</text>
<polygon fill="#fdb462" stroke="transparent" points="310,-10 310,-30 330,-30 330,-10 310,-10"/>
<text text-anchor="start" x="333.67" y="-15.4" font-family="sans-serif" font-size="14.00"> &#160;Providers</text>
<polygon fill="#fb8072" stroke="transparent" points="406,-10 406,-30 426,-30 426,-10 406,-10"/>
<text text-anchor="start" x="429.73" y="-15.4" font-family="sans-serif" font-size="14.00"> &#160;Exports</text>
<g id="clust1" class="cluster">
<title>cluster_WidgetsModule</title>
<polygon fill="none" stroke="black" stroke-dasharray="1,5" points="78,-70 78,-268 418,-268 418,-70 78,-70"/>
</g>
<g id="clust2" class="cluster">
<title>cluster_WidgetsModule_declarations</title>
<polygon fill="none" stroke="black" points="90,-78 90,-130 407,-130 407,-78 90,-78"/>
</g>
<g id="clust6" class="cluster">
<title>cluster_WidgetsModule_exports</title>
<polygon fill="none" stroke="black" points="86,-208 86,-260 410,-260 410,-208 86,-208"/>
</g>
<!-- WidgetComponent -->
<g id="node1" class="node">
<title>WidgetComponent</title>
<polygon fill="#ffffb3" stroke="black" points="399.04,-122 276.96,-122 276.96,-86 399.04,-86 399.04,-122"/>
<text text-anchor="middle" x="338" y="-99.8" font-family="Times,serif" font-size="14.00">WidgetComponent</text>
</g>
<!-- WidgetsModule -->
<g id="node3" class="node">
<title>WidgetsModule</title>
<polygon fill="#8dd3c7" stroke="black" points="232.2,-187 229.2,-191 208.2,-191 205.2,-187 125.8,-187 125.8,-151 232.2,-151 232.2,-187"/>
<text text-anchor="middle" x="179" y="-164.8" font-family="Times,serif" font-size="14.00">WidgetsModule</text>
</g>
<!-- WidgetComponent&#45;&gt;WidgetsModule -->
<g id="edge1" class="edge">
<title>WidgetComponent&#45;&gt;WidgetsModule</title>
<path fill="none" stroke="black" d="M358.42,-122.02C358.42,-139.37 358.42,-163 358.42,-163 358.42,-163 242.35,-163 242.35,-163"/>
<polygon fill="black" stroke="black" points="242.35,-159.5 232.35,-163 242.35,-166.5 242.35,-159.5"/>
</g>
<!-- WidgetsMenuComponent -->
<g id="node2" class="node">
<title>WidgetsMenuComponent</title>
<polygon fill="#ffffb3" stroke="black" points="258.15,-122 97.85,-122 97.85,-86 258.15,-86 258.15,-122"/>
<text text-anchor="middle" x="178" y="-99.8" font-family="Times,serif" font-size="14.00">WidgetsMenuComponent</text>
</g>
<!-- WidgetsMenuComponent&#45;&gt;WidgetsModule -->
<g id="edge2" class="edge">
<title>WidgetsMenuComponent&#45;&gt;WidgetsModule</title>
<path fill="none" stroke="black" d="M179,-122.11C179,-122.11 179,-140.99 179,-140.99"/>
<polygon fill="black" stroke="black" points="175.5,-140.99 179,-150.99 182.5,-140.99 175.5,-140.99"/>
</g>
<!-- WidgetComponent  -->
<g id="node4" class="node">
<title>WidgetComponent </title>
<polygon fill="#fb8072" stroke="black" points="402.04,-252 275.96,-252 275.96,-216 402.04,-216 402.04,-252"/>
<text text-anchor="middle" x="339" y="-229.8" font-family="Times,serif" font-size="14.00">WidgetComponent </text>
</g>
<!-- WidgetsModule&#45;&gt;WidgetComponent  -->
<g id="edge3" class="edge">
<title>WidgetsModule&#45;&gt;WidgetComponent </title>
<path fill="none" stroke="black" stroke-dasharray="5,2" d="M232.18,-175C271.26,-175 317.58,-175 317.58,-175 317.58,-175 317.58,-205.98 317.58,-205.98"/>
<polygon fill="black" stroke="black" points="314.08,-205.98 317.58,-215.98 321.08,-205.98 314.08,-205.98"/>
</g>
<!-- WidgetsMenuComponent  -->
<g id="node5" class="node">
<title>WidgetsMenuComponent </title>
<polygon fill="#fb8072" stroke="black" points="258.15,-252 93.85,-252 93.85,-216 258.15,-216 258.15,-252"/>
<text text-anchor="middle" x="176" y="-229.8" font-family="Times,serif" font-size="14.00">WidgetsMenuComponent </text>
</g>
<!-- WidgetsModule&#45;&gt;WidgetsMenuComponent  -->
<g id="edge4" class="edge">
<title>WidgetsModule&#45;&gt;WidgetsMenuComponent </title>
<path fill="none" stroke="black" stroke-dasharray="5,2" d="M179,-187.11C179,-187.11 179,-205.99 179,-205.99"/>
<polygon fill="black" stroke="black" points="175.5,-205.99 179,-215.99 182.5,-205.99 175.5,-205.99"/>
</g>
</g>
</svg>
