<?xml version="1.0" encoding="UTF-8" standalone="no"?>
<!DOCTYPE svg PUBLIC "-//W3C//DTD SVG 1.1//EN"
 "http://www.w3.org/Graphics/SVG/1.1/DTD/svg11.dtd">
<!-- Generated by graphviz version 2.47.0 (20210316.0004)
 -->
<!-- Title: dependencies Pages: 1 -->
<svg width="1254pt" height="349pt"
 viewBox="0.00 0.00 1254.00 349.00" xmlns="http://www.w3.org/2000/svg" xmlns:xlink="http://www.w3.org/1999/xlink">
<g id="graph0" class="graph" transform="scale(1 1) rotate(0) translate(4 345)">
<title>dependencies</title>
<polygon fill="white" stroke="transparent" points="-4,4 -4,-345 1250,-345 1250,4 -4,4"/>
<text text-anchor="start" x="602.01" y="-42.4" font-family="sans-serif" font-weight="bold" font-size="14.00">Legend</text>
<polygon fill="#ffffb3" stroke="transparent" points="389,-10 389,-30 409,-30 409,-10 389,-10"/>
<text text-anchor="start" x="412.63" y="-15.4" font-family="sans-serif" font-size="14.00"> &#160;Declarations</text>
<polygon fill="#8dd3c7" stroke="transparent" points="502,-10 502,-30 522,-30 522,-10 502,-10"/>
<text text-anchor="start" x="525.73" y="-15.4" font-family="sans-serif" font-size="14.00"> &#160;Module</text>
<polygon fill="#80b1d3" stroke="transparent" points="588,-10 588,-30 608,-30 608,-10 588,-10"/>
<text text-anchor="start" x="611.78" y="-15.4" font-family="sans-serif" font-size="14.00"> &#160;Bootstrap</text>
<polygon fill="#fdb462" stroke="transparent" points="685,-10 685,-30 705,-30 705,-10 685,-10"/>
<text text-anchor="start" x="708.67" y="-15.4" font-family="sans-serif" font-size="14.00"> &#160;Providers</text>
<polygon fill="#fb8072" stroke="transparent" points="781,-10 781,-30 801,-30 801,-10 781,-10"/>
<text text-anchor="start" x="804.73" y="-15.4" font-family="sans-serif" font-size="14.00"> &#160;Exports</text>
<g id="clust1" class="cluster">
<title>cluster_AddressModule</title>
<polygon fill="none" stroke="black" stroke-dasharray="1,5" points="8,-70 8,-333 1238,-333 1238,-70 8,-70"/>
</g>
<g id="clust3" class="cluster">
<title>cluster_AddressModule_AddressComponent_providers</title>
<polygon fill="none" stroke="black" points="994,-78 994,-195 1230,-195 1230,-78 994,-78"/>
</g>
<g id="clust2" class="cluster">
<title>cluster_AddressModule_declarations</title>
<polygon fill="none" stroke="black" points="367,-143 367,-195 986,-195 986,-143 367,-143"/>
</g>
<g id="clust8" class="cluster">
<title>cluster_AddressModule_imports</title>
<polygon fill="none" stroke="black" points="16,-143 16,-195 359,-195 359,-143 16,-143"/>
</g>
<g id="clust9" class="cluster">
<title>cluster_AddressModule_exports</title>
<polygon fill="none" stroke="black" points="132,-273 132,-325 914,-325 914,-273 132,-273"/>
</g>
<!-- AddressComponent -->
<g id="node1" class="node">
<title>AddressComponent</title>
<polygon fill="#ffffb3" stroke="black" points="1152.7,-187 1025.3,-187 1025.3,-151 1152.7,-151 1152.7,-187"/>
<text text-anchor="middle" x="1089" y="-164.8" font-family="Times,serif" font-size="14.00">AddressComponent</text>
</g>
<!-- AddressModule -->
<g id="node6" class="node">
<title>AddressModule</title>
<polygon fill="#8dd3c7" stroke="black" points="585.92,-252 582.92,-256 561.92,-256 558.92,-252 480.08,-252 480.08,-216 585.92,-216 585.92,-252"/>
<text text-anchor="middle" x="533" y="-229.8" font-family="Times,serif" font-size="14.00">AddressModule</text>
</g>
<!-- AddressComponent&#45;&gt;AddressModule -->
<g id="edge1" class="edge">
<title>AddressComponent&#45;&gt;AddressModule</title>
<path fill="none" stroke="black" d="M1089,-187.13C1089,-207.57 1089,-238 1089,-238 1089,-238 595.81,-238 595.81,-238"/>
<polygon fill="black" stroke="black" points="595.81,-234.5 585.81,-238 595.81,-241.5 595.81,-234.5"/>
</g>
<!-- AddressFormComponent -->
<g id="node2" class="node">
<title>AddressFormComponent</title>
<polygon fill="#ffffb3" stroke="black" points="977.54,-187 820.46,-187 820.46,-151 977.54,-151 977.54,-187"/>
<text text-anchor="middle" x="899" y="-164.8" font-family="Times,serif" font-size="14.00">AddressFormComponent</text>
</g>
<!-- AddressFormComponent&#45;&gt;AddressModule -->
<g id="edge3" class="edge">
<title>AddressFormComponent&#45;&gt;AddressModule</title>
<path fill="none" stroke="black" d="M863.29,-187.27C863.29,-205.56 863.29,-231 863.29,-231 863.29,-231 596.07,-231 596.07,-231"/>
<polygon fill="black" stroke="black" points="596.07,-227.5 586.07,-231 596.07,-234.5 596.07,-227.5"/>
</g>
<!-- AddressPipe -->
<g id="node3" class="node">
<title>AddressPipe</title>
<polygon fill="#ffffb3" stroke="black" points="802.26,-187 715.74,-187 715.74,-151 802.26,-151 802.26,-187"/>
<text text-anchor="middle" x="759" y="-164.8" font-family="Times,serif" font-size="14.00">AddressPipe</text>
</g>
<!-- AddressPipe&#45;&gt;AddressModule -->
<g id="edge4" class="edge">
<title>AddressPipe&#45;&gt;AddressModule</title>
<path fill="none" stroke="black" d="M736.57,-187.01C736.57,-203.05 736.57,-224 736.57,-224 736.57,-224 595.95,-224 595.95,-224"/>
<polygon fill="black" stroke="black" points="595.95,-220.5 585.95,-224 595.95,-227.5 595.95,-220.5"/>
</g>
<!-- InlineAddressComponent -->
<g id="node4" class="node">
<title>InlineAddressComponent</title>
<polygon fill="#ffffb3" stroke="black" points="697.86,-187 538.14,-187 538.14,-151 697.86,-151 697.86,-187"/>
<text text-anchor="middle" x="618" y="-164.8" font-family="Times,serif" font-size="14.00">InlineAddressComponent</text>
</g>
<!-- InlineAddressComponent&#45;&gt;AddressModule -->
<g id="edge5" class="edge">
<title>InlineAddressComponent&#45;&gt;AddressModule</title>
<path fill="none" stroke="black" d="M561.89,-187.11C561.89,-187.11 561.89,-205.99 561.89,-205.99"/>
<polygon fill="black" stroke="black" points="558.39,-205.99 561.89,-215.99 565.39,-205.99 558.39,-205.99"/>
</g>
<!-- StatePickerComponent -->
<g id="node5" class="node">
<title>StatePickerComponent</title>
<polygon fill="#ffffb3" stroke="black" points="520.59,-187 375.41,-187 375.41,-151 520.59,-151 520.59,-187"/>
<text text-anchor="middle" x="448" y="-164.8" font-family="Times,serif" font-size="14.00">StatePickerComponent</text>
</g>
<!-- StatePickerComponent&#45;&gt;AddressModule -->
<g id="edge6" class="edge">
<title>StatePickerComponent&#45;&gt;AddressModule</title>
<path fill="none" stroke="black" d="M500.42,-187.11C500.42,-187.11 500.42,-205.99 500.42,-205.99"/>
<polygon fill="black" stroke="black" points="496.92,-205.99 500.42,-215.99 503.92,-205.99 496.92,-205.99"/>
</g>
<!-- AddressComponent  -->
<g id="node11" class="node">
<title>AddressComponent </title>
<polygon fill="#fb8072" stroke="black" points="906.2,-317 775.8,-317 775.8,-281 906.2,-281 906.2,-317"/>
<text text-anchor="middle" x="841" y="-294.8" font-family="Times,serif" font-size="14.00">AddressComponent </text>
</g>
<!-- AddressModule&#45;&gt;AddressComponent  -->
<g id="edge10" class="edge">
<title>AddressModule&#45;&gt;AddressComponent </title>
<path fill="none" stroke="black" stroke-dasharray="5,2" d="M585.74,-245C660.68,-245 789.01,-245 789.01,-245 789.01,-245 789.01,-270.72 789.01,-270.72"/>
<polygon fill="black" stroke="black" points="785.51,-270.72 789.01,-280.72 792.51,-270.72 785.51,-270.72"/>
</g>
<!-- AddressFormComponent  -->
<g id="node12" class="node">
<title>AddressFormComponent </title>
<polygon fill="#fb8072" stroke="black" points="757.54,-317 596.46,-317 596.46,-281 757.54,-281 757.54,-317"/>
<text text-anchor="middle" x="677" y="-294.8" font-family="Times,serif" font-size="14.00">AddressFormComponent </text>
</g>
<!-- AddressModule&#45;&gt;AddressFormComponent  -->
<g id="edge11" class="edge">
<title>AddressModule&#45;&gt;AddressFormComponent </title>
<path fill="none" stroke="black" stroke-dasharray="5,2" d="M581.92,-252.11C581.92,-271.34 581.92,-299 581.92,-299 581.92,-299 586.36,-299 586.36,-299"/>
<polygon fill="black" stroke="black" points="586.36,-302.5 596.36,-299 586.36,-295.5 586.36,-302.5"/>
</g>
<!-- AddressPipe  -->
<g id="node13" class="node">
<title>AddressPipe </title>
<polygon fill="#fb8072" stroke="black" points="578.26,-317 487.74,-317 487.74,-281 578.26,-281 578.26,-317"/>
<text text-anchor="middle" x="533" y="-294.8" font-family="Times,serif" font-size="14.00">AddressPipe </text>
</g>
<!-- AddressModule&#45;&gt;AddressPipe  -->
<g id="edge12" class="edge">
<title>AddressModule&#45;&gt;AddressPipe </title>
<path fill="none" stroke="black" stroke-dasharray="5,2" d="M533,-252.11C533,-252.11 533,-270.99 533,-270.99"/>
<polygon fill="black" stroke="black" points="529.5,-270.99 533,-280.99 536.5,-270.99 529.5,-270.99"/>
</g>
<!-- InlineAddressComponent  -->
<g id="node14" class="node">
<title>InlineAddressComponent </title>
<polygon fill="#fb8072" stroke="black" points="469.86,-317 306.14,-317 306.14,-281 469.86,-281 469.86,-317"/>
<text text-anchor="middle" x="388" y="-294.8" font-family="Times,serif" font-size="14.00">InlineAddressComponent </text>
</g>
<!-- AddressModule&#45;&gt;InlineAddressComponent  -->
<g id="edge13" class="edge">
<title>AddressModule&#45;&gt;InlineAddressComponent </title>
<path fill="none" stroke="black" stroke-dasharray="5,2" d="M484.08,-252.11C484.08,-271.34 484.08,-299 484.08,-299 484.08,-299 479.9,-299 479.9,-299"/>
<polygon fill="black" stroke="black" points="479.9,-295.5 469.9,-299 479.9,-302.5 479.9,-295.5"/>
</g>
<!-- StatePickerComponent  -->
<g id="node15" class="node">
<title>StatePickerComponent </title>
<polygon fill="#fb8072" stroke="black" points="288.09,-317 139.91,-317 139.91,-281 288.09,-281 288.09,-317"/>
<text text-anchor="middle" x="214" y="-294.8" font-family="Times,serif" font-size="14.00">StatePickerComponent </text>
</g>
<!-- AddressModule&#45;&gt;StatePickerComponent  -->
<g id="edge14" class="edge">
<title>AddressModule&#45;&gt;StatePickerComponent </title>
<path fill="none" stroke="black" stroke-dasharray="5,2" d="M480.24,-245C403.66,-245 270.73,-245 270.73,-245 270.73,-245 270.73,-270.72 270.73,-270.72"/>
<polygon fill="black" stroke="black" points="267.23,-270.72 270.73,-280.72 274.23,-270.72 267.23,-270.72"/>
</g>
<!-- ADDRESS_ACCESSOR -->
<g id="node7" class="node">
<title>ADDRESS_ACCESSOR</title>
<ellipse fill="#fdb462" stroke="black" cx="1112" cy="-104" rx="109.51" ry="18"/>
<text text-anchor="middle" x="1112" y="-99.8" font-family="Times,serif" font-size="14.00">ADDRESS_ACCESSOR</text>
</g>
<!-- ADDRESS_ACCESSOR&#45;&gt;AddressComponent -->
<g id="edge2" class="edge">
<title>ADDRESS_ACCESSOR&#45;&gt;AddressComponent</title>
<path fill="none" stroke="black" d="M1089,-121.76C1089,-121.76 1089,-140.81 1089,-140.81"/>
<polygon fill="black" stroke="black" points="1085.5,-140.81 1089,-150.81 1092.5,-140.81 1085.5,-140.81"/>
</g>
<!-- DialogModule -->
<g id="node8" class="node">
<title>DialogModule</title>
<polygon fill="#8dd3c7" stroke="black" points="350.65,-187 347.65,-191 326.65,-191 323.65,-187 253.35,-187 253.35,-151 350.65,-151 350.65,-187"/>
<text text-anchor="middle" x="302" y="-164.8" font-family="Times,serif" font-size="14.00">DialogModule</text>
</g>
<!-- DialogModule&#45;&gt;AddressModule -->
<g id="edge7" class="edge">
<title>DialogModule&#45;&gt;AddressModule</title>
<path fill="none" stroke="black" d="M328.57,-187.01C328.57,-203.05 328.57,-224 328.57,-224 328.57,-224 470.09,-224 470.09,-224"/>
<polygon fill="black" stroke="black" points="470.09,-227.5 480.09,-224 470.09,-220.5 470.09,-227.5"/>
</g>
<!-- FormsModule -->
<g id="node9" class="node">
<title>FormsModule</title>
<polygon fill="#8dd3c7" stroke="black" points="235.83,-187 232.83,-191 211.83,-191 208.83,-187 140.17,-187 140.17,-151 235.83,-151 235.83,-187"/>
<text text-anchor="middle" x="188" y="-164.8" font-family="Times,serif" font-size="14.00">FormsModule</text>
</g>
<!-- FormsModule&#45;&gt;AddressModule -->
<g id="edge8" class="edge">
<title>FormsModule&#45;&gt;AddressModule</title>
<path fill="none" stroke="black" d="M188,-187.27C188,-205.56 188,-231 188,-231 188,-231 470.23,-231 470.23,-231"/>
<polygon fill="black" stroke="black" points="470.23,-234.5 480.23,-231 470.23,-227.5 470.23,-234.5"/>
</g>
<!-- SharedModule -->
<g id="node10" class="node">
<title>SharedModule</title>
<polygon fill="#8dd3c7" stroke="black" points="122.42,-187 119.42,-191 98.42,-191 95.42,-187 23.58,-187 23.58,-151 122.42,-151 122.42,-187"/>
<text text-anchor="middle" x="73" y="-164.8" font-family="Times,serif" font-size="14.00">SharedModule</text>
</g>
<!-- SharedModule&#45;&gt;AddressModule -->
<g id="edge9" class="edge">
<title>SharedModule&#45;&gt;AddressModule</title>
<path fill="none" stroke="black" d="M73,-187.13C73,-207.57 73,-238 73,-238 73,-238 470.23,-238 470.23,-238"/>
<polygon fill="black" stroke="black" points="470.23,-241.5 480.23,-238 470.23,-234.5 470.23,-241.5"/>
</g>
</g>
</svg>
