<?xml version="1.0" encoding="UTF-8" standalone="no"?>
<!DOCTYPE svg PUBLIC "-//W3C//DTD SVG 1.1//EN"
 "http://www.w3.org/Graphics/SVG/1.1/DTD/svg11.dtd">
<!-- Generated by graphviz version 2.47.0 (20210316.0004)
 -->
<!-- Title: dependencies Pages: 1 -->
<svg width="1155pt" height="284pt"
 viewBox="0.00 0.00 1155.00 284.00" xmlns="http://www.w3.org/2000/svg" xmlns:xlink="http://www.w3.org/1999/xlink">
<g id="graph0" class="graph" transform="scale(1 1) rotate(0) translate(4 280)">
<title>dependencies</title>
<polygon fill="white" stroke="transparent" points="-4,4 -4,-280 1151,-280 1151,4 -4,4"/>
<text text-anchor="start" x="552.51" y="-42.4" font-family="sans-serif" font-weight="bold" font-size="14.00">Legend</text>
<polygon fill="#ffffb3" stroke="transparent" points="339.5,-10 339.5,-30 359.5,-30 359.5,-10 339.5,-10"/>
<text text-anchor="start" x="363.13" y="-15.4" font-family="sans-serif" font-size="14.00"> &#160;Declarations</text>
<polygon fill="#8dd3c7" stroke="transparent" points="452.5,-10 452.5,-30 472.5,-30 472.5,-10 452.5,-10"/>
<text text-anchor="start" x="476.23" y="-15.4" font-family="sans-serif" font-size="14.00"> &#160;Module</text>
<polygon fill="#80b1d3" stroke="transparent" points="538.5,-10 538.5,-30 558.5,-30 558.5,-10 538.5,-10"/>
<text text-anchor="start" x="562.28" y="-15.4" font-family="sans-serif" font-size="14.00"> &#160;Bootstrap</text>
<polygon fill="#fdb462" stroke="transparent" points="635.5,-10 635.5,-30 655.5,-30 655.5,-10 635.5,-10"/>
<text text-anchor="start" x="659.17" y="-15.4" font-family="sans-serif" font-size="14.00"> &#160;Providers</text>
<polygon fill="#fb8072" stroke="transparent" points="731.5,-10 731.5,-30 751.5,-30 751.5,-10 731.5,-10"/>
<text text-anchor="start" x="755.23" y="-15.4" font-family="sans-serif" font-size="14.00"> &#160;Exports</text>
<g id="clust1" class="cluster">
<title>cluster_AddressModule</title>
<polygon fill="none" stroke="black" stroke-dasharray="1,5" points="8,-70 8,-268 1139,-268 1139,-70 8,-70"/>
</g>
<g id="clust2" class="cluster">
<title>cluster_AddressModule_declarations</title>
<polygon fill="none" stroke="black" points="367,-78 367,-130 1131,-130 1131,-78 367,-78"/>
</g>
<g id="clust9" class="cluster">
<title>cluster_AddressModule_exports</title>
<polygon fill="none" stroke="black" points="132,-208 132,-260 914,-260 914,-208 132,-208"/>
</g>
<g id="clust8" class="cluster">
<title>cluster_AddressModule_imports</title>
<polygon fill="none" stroke="black" points="16,-78 16,-130 359,-130 359,-78 16,-78"/>
</g>
<!-- AddressComponent -->
<g id="node1" class="node">
<title>AddressComponent</title>
<polygon fill="#ffffb3" stroke="black" points="1122.7,-122 995.3,-122 995.3,-86 1122.7,-86 1122.7,-122"/>
<text text-anchor="middle" x="1059" y="-99.8" font-family="Times,serif" font-size="14.00">AddressComponent</text>
</g>
<!-- AddressModule -->
<g id="node6" class="node">
<title>AddressModule</title>
<polygon fill="#8dd3c7" stroke="black" points="585.92,-187 582.92,-191 561.92,-191 558.92,-187 480.08,-187 480.08,-151 585.92,-151 585.92,-187"/>
<text text-anchor="middle" x="533" y="-164.8" font-family="Times,serif" font-size="14.00">AddressModule</text>
</g>
<!-- AddressComponent&#45;&gt;AddressModule -->
<g id="edge1" class="edge">
<title>AddressComponent&#45;&gt;AddressModule</title>
<path fill="none" stroke="black" d="M1059,-122.13C1059,-142.57 1059,-173 1059,-173 1059,-173 595.84,-173 595.84,-173"/>
<polygon fill="black" stroke="black" points="595.84,-169.5 585.84,-173 595.84,-176.5 595.84,-169.5"/>
</g>
<!-- AddressFormComponent -->
<g id="node2" class="node">
<title>AddressFormComponent</title>
<polygon fill="#ffffb3" stroke="black" points="977.54,-122 820.46,-122 820.46,-86 977.54,-86 977.54,-122"/>
<text text-anchor="middle" x="899" y="-99.8" font-family="Times,serif" font-size="14.00">AddressFormComponent</text>
</g>
<!-- AddressFormComponent&#45;&gt;AddressModule -->
<g id="edge2" class="edge">
<title>AddressFormComponent&#45;&gt;AddressModule</title>
<path fill="none" stroke="black" d="M863.29,-122.27C863.29,-140.56 863.29,-166 863.29,-166 863.29,-166 596.07,-166 596.07,-166"/>
<polygon fill="black" stroke="black" points="596.07,-162.5 586.07,-166 596.07,-169.5 596.07,-162.5"/>
</g>
<!-- AddressPipe -->
<g id="node3" class="node">
<title>AddressPipe</title>
<polygon fill="#ffffb3" stroke="black" points="802.26,-122 715.74,-122 715.74,-86 802.26,-86 802.26,-122"/>
<text text-anchor="middle" x="759" y="-99.8" font-family="Times,serif" font-size="14.00">AddressPipe</text>
</g>
<!-- AddressPipe&#45;&gt;AddressModule -->
<g id="edge3" class="edge">
<title>AddressPipe&#45;&gt;AddressModule</title>
<path fill="none" stroke="black" d="M736.57,-122.01C736.57,-138.05 736.57,-159 736.57,-159 736.57,-159 595.95,-159 595.95,-159"/>
<polygon fill="black" stroke="black" points="595.95,-155.5 585.95,-159 595.95,-162.5 595.95,-155.5"/>
</g>
<!-- InlineAddressComponent -->
<g id="node4" class="node">
<title>InlineAddressComponent</title>
<polygon fill="#ffffb3" stroke="black" points="697.86,-122 538.14,-122 538.14,-86 697.86,-86 697.86,-122"/>
<text text-anchor="middle" x="618" y="-99.8" font-family="Times,serif" font-size="14.00">InlineAddressComponent</text>
</g>
<!-- InlineAddressComponent&#45;&gt;AddressModule -->
<g id="edge4" class="edge">
<title>InlineAddressComponent&#45;&gt;AddressModule</title>
<path fill="none" stroke="black" d="M561.89,-122.11C561.89,-122.11 561.89,-140.99 561.89,-140.99"/>
<polygon fill="black" stroke="black" points="558.39,-140.99 561.89,-150.99 565.39,-140.99 558.39,-140.99"/>
</g>
<!-- StatePickerComponent -->
<g id="node5" class="node">
<title>StatePickerComponent</title>
<polygon fill="#ffffb3" stroke="black" points="520.59,-122 375.41,-122 375.41,-86 520.59,-86 520.59,-122"/>
<text text-anchor="middle" x="448" y="-99.8" font-family="Times,serif" font-size="14.00">StatePickerComponent</text>
</g>
<!-- StatePickerComponent&#45;&gt;AddressModule -->
<g id="edge5" class="edge">
<title>StatePickerComponent&#45;&gt;AddressModule</title>
<path fill="none" stroke="black" d="M500.42,-122.11C500.42,-122.11 500.42,-140.99 500.42,-140.99"/>
<polygon fill="black" stroke="black" points="496.92,-140.99 500.42,-150.99 503.92,-140.99 496.92,-140.99"/>
</g>
<!-- AddressComponent  -->
<g id="node10" class="node">
<title>AddressComponent </title>
<polygon fill="#fb8072" stroke="black" points="906.2,-252 775.8,-252 775.8,-216 906.2,-216 906.2,-252"/>
<text text-anchor="middle" x="841" y="-229.8" font-family="Times,serif" font-size="14.00">AddressComponent </text>
</g>
<!-- AddressModule&#45;&gt;AddressComponent  -->
<g id="edge9" class="edge">
<title>AddressModule&#45;&gt;AddressComponent </title>
<path fill="none" stroke="black" stroke-dasharray="5,2" d="M585.74,-180C660.68,-180 789.01,-180 789.01,-180 789.01,-180 789.01,-205.72 789.01,-205.72"/>
<polygon fill="black" stroke="black" points="785.51,-205.72 789.01,-215.72 792.51,-205.72 785.51,-205.72"/>
</g>
<!-- AddressFormComponent  -->
<g id="node11" class="node">
<title>AddressFormComponent </title>
<polygon fill="#fb8072" stroke="black" points="757.54,-252 596.46,-252 596.46,-216 757.54,-216 757.54,-252"/>
<text text-anchor="middle" x="677" y="-229.8" font-family="Times,serif" font-size="14.00">AddressFormComponent </text>
</g>
<!-- AddressModule&#45;&gt;AddressFormComponent  -->
<g id="edge10" class="edge">
<title>AddressModule&#45;&gt;AddressFormComponent </title>
<path fill="none" stroke="black" stroke-dasharray="5,2" d="M581.92,-187.11C581.92,-206.34 581.92,-234 581.92,-234 581.92,-234 586.36,-234 586.36,-234"/>
<polygon fill="black" stroke="black" points="586.36,-237.5 596.36,-234 586.36,-230.5 586.36,-237.5"/>
</g>
<!-- AddressPipe  -->
<g id="node12" class="node">
<title>AddressPipe </title>
<polygon fill="#fb8072" stroke="black" points="578.26,-252 487.74,-252 487.74,-216 578.26,-216 578.26,-252"/>
<text text-anchor="middle" x="533" y="-229.8" font-family="Times,serif" font-size="14.00">AddressPipe </text>
</g>
<!-- AddressModule&#45;&gt;AddressPipe  -->
<g id="edge11" class="edge">
<title>AddressModule&#45;&gt;AddressPipe </title>
<path fill="none" stroke="black" stroke-dasharray="5,2" d="M533,-187.11C533,-187.11 533,-205.99 533,-205.99"/>
<polygon fill="black" stroke="black" points="529.5,-205.99 533,-215.99 536.5,-205.99 529.5,-205.99"/>
</g>
<!-- InlineAddressComponent  -->
<g id="node13" class="node">
<title>InlineAddressComponent </title>
<polygon fill="#fb8072" stroke="black" points="469.86,-252 306.14,-252 306.14,-216 469.86,-216 469.86,-252"/>
<text text-anchor="middle" x="388" y="-229.8" font-family="Times,serif" font-size="14.00">InlineAddressComponent </text>
</g>
<!-- AddressModule&#45;&gt;InlineAddressComponent  -->
<g id="edge12" class="edge">
<title>AddressModule&#45;&gt;InlineAddressComponent </title>
<path fill="none" stroke="black" stroke-dasharray="5,2" d="M484.08,-187.11C484.08,-206.34 484.08,-234 484.08,-234 484.08,-234 479.9,-234 479.9,-234"/>
<polygon fill="black" stroke="black" points="479.9,-230.5 469.9,-234 479.9,-237.5 479.9,-230.5"/>
</g>
<!-- StatePickerComponent  -->
<g id="node14" class="node">
<title>StatePickerComponent </title>
<polygon fill="#fb8072" stroke="black" points="288.09,-252 139.91,-252 139.91,-216 288.09,-216 288.09,-252"/>
<text text-anchor="middle" x="214" y="-229.8" font-family="Times,serif" font-size="14.00">StatePickerComponent </text>
</g>
<!-- AddressModule&#45;&gt;StatePickerComponent  -->
<g id="edge13" class="edge">
<title>AddressModule&#45;&gt;StatePickerComponent </title>
<path fill="none" stroke="black" stroke-dasharray="5,2" d="M480.24,-180C403.66,-180 270.73,-180 270.73,-180 270.73,-180 270.73,-205.72 270.73,-205.72"/>
<polygon fill="black" stroke="black" points="267.23,-205.72 270.73,-215.72 274.23,-205.72 267.23,-205.72"/>
</g>
<!-- DialogModule -->
<g id="node7" class="node">
<title>DialogModule</title>
<polygon fill="#8dd3c7" stroke="black" points="350.65,-122 347.65,-126 326.65,-126 323.65,-122 253.35,-122 253.35,-86 350.65,-86 350.65,-122"/>
<text text-anchor="middle" x="302" y="-99.8" font-family="Times,serif" font-size="14.00">DialogModule</text>
</g>
<!-- DialogModule&#45;&gt;AddressModule -->
<g id="edge6" class="edge">
<title>DialogModule&#45;&gt;AddressModule</title>
<path fill="none" stroke="black" d="M328.57,-122.01C328.57,-138.05 328.57,-159 328.57,-159 328.57,-159 470.09,-159 470.09,-159"/>
<polygon fill="black" stroke="black" points="470.09,-162.5 480.09,-159 470.09,-155.5 470.09,-162.5"/>
</g>
<!-- FormsModule -->
<g id="node8" class="node">
<title>FormsModule</title>
<polygon fill="#8dd3c7" stroke="black" points="235.83,-122 232.83,-126 211.83,-126 208.83,-122 140.17,-122 140.17,-86 235.83,-86 235.83,-122"/>
<text text-anchor="middle" x="188" y="-99.8" font-family="Times,serif" font-size="14.00">FormsModule</text>
</g>
<!-- FormsModule&#45;&gt;AddressModule -->
<g id="edge7" class="edge">
<title>FormsModule&#45;&gt;AddressModule</title>
<path fill="none" stroke="black" d="M188,-122.27C188,-140.56 188,-166 188,-166 188,-166 470.23,-166 470.23,-166"/>
<polygon fill="black" stroke="black" points="470.23,-169.5 480.23,-166 470.23,-162.5 470.23,-169.5"/>
</g>
<!-- SharedModule -->
<g id="node9" class="node">
<title>SharedModule</title>
<polygon fill="#8dd3c7" stroke="black" points="122.42,-122 119.42,-126 98.42,-126 95.42,-122 23.58,-122 23.58,-86 122.42,-86 122.42,-122"/>
<text text-anchor="middle" x="73" y="-99.8" font-family="Times,serif" font-size="14.00">SharedModule</text>
</g>
<!-- SharedModule&#45;&gt;AddressModule -->
<g id="edge8" class="edge">
<title>SharedModule&#45;&gt;AddressModule</title>
<path fill="none" stroke="black" d="M73,-122.13C73,-142.57 73,-173 73,-173 73,-173 470.23,-173 470.23,-173"/>
<polygon fill="black" stroke="black" points="470.23,-176.5 480.23,-173 470.23,-169.5 470.23,-176.5"/>
</g>
</g>
</svg>
