<?xml version="1.0" encoding="UTF-8" standalone="no"?>
<!DOCTYPE svg PUBLIC "-//W3C//DTD SVG 1.1//EN"
 "http://www.w3.org/Graphics/SVG/1.1/DTD/svg11.dtd">
<!-- Generated by graphviz version 2.47.0 (20210316.0004)
 -->
<!-- Title: dependencies Pages: 1 -->
<svg width="2775pt" height="284pt"
 viewBox="0.00 0.00 2775.00 284.00" xmlns="http://www.w3.org/2000/svg" xmlns:xlink="http://www.w3.org/1999/xlink">
<g id="graph0" class="graph" transform="scale(1 1) rotate(0) translate(4 280)">
<title>dependencies</title>
<polygon fill="white" stroke="transparent" points="-4,4 -4,-280 2771,-280 2771,4 -4,4"/>
<text text-anchor="start" x="1362.51" y="-42.4" font-family="sans-serif" font-weight="bold" font-size="14.00">Legend</text>
<polygon fill="#ffffb3" stroke="transparent" points="1149.5,-10 1149.5,-30 1169.5,-30 1169.5,-10 1149.5,-10"/>
<text text-anchor="start" x="1173.13" y="-15.4" font-family="sans-serif" font-size="14.00"> &#160;Declarations</text>
<polygon fill="#8dd3c7" stroke="transparent" points="1262.5,-10 1262.5,-30 1282.5,-30 1282.5,-10 1262.5,-10"/>
<text text-anchor="start" x="1286.23" y="-15.4" font-family="sans-serif" font-size="14.00"> &#160;Module</text>
<polygon fill="#80b1d3" stroke="transparent" points="1348.5,-10 1348.5,-30 1368.5,-30 1368.5,-10 1348.5,-10"/>
<text text-anchor="start" x="1372.28" y="-15.4" font-family="sans-serif" font-size="14.00"> &#160;Bootstrap</text>
<polygon fill="#fdb462" stroke="transparent" points="1445.5,-10 1445.5,-30 1465.5,-30 1465.5,-10 1445.5,-10"/>
<text text-anchor="start" x="1469.17" y="-15.4" font-family="sans-serif" font-size="14.00"> &#160;Providers</text>
<polygon fill="#fb8072" stroke="transparent" points="1541.5,-10 1541.5,-30 1561.5,-30 1561.5,-10 1541.5,-10"/>
<text text-anchor="start" x="1565.23" y="-15.4" font-family="sans-serif" font-size="14.00"> &#160;Exports</text>
<g id="clust1" class="cluster">
<title>cluster_CalendarModule</title>
<polygon fill="none" stroke="black" stroke-dasharray="1,5" points="8,-70 8,-268 2759,-268 2759,-70 8,-70"/>
</g>
<g id="clust15" class="cluster">
<title>cluster_CalendarModule_imports</title>
<polygon fill="none" stroke="black" points="2279,-78 2279,-130 2751,-130 2751,-78 2279,-78"/>
</g>
<g id="clust2" class="cluster">
<title>cluster_CalendarModule_declarations</title>
<polygon fill="none" stroke="black" points="16,-78 16,-130 2271,-130 2271,-78 16,-78"/>
</g>
<g id="clust16" class="cluster">
<title>cluster_CalendarModule_exports</title>
<polygon fill="none" stroke="black" points="1177,-208 1177,-260 1873,-260 1873,-208 1177,-208"/>
</g>
<!-- CalendarComponent -->
<g id="node1" class="node">
<title>CalendarComponent</title>
<polygon fill="#ffffb3" stroke="black" points="2262.86,-122 2131.14,-122 2131.14,-86 2262.86,-86 2262.86,-122"/>
<text text-anchor="middle" x="2197" y="-99.8" font-family="Times,serif" font-size="14.00">CalendarComponent</text>
</g>
<!-- CalendarModule -->
<g id="node13" class="node">
<title>CalendarModule</title>
<polygon fill="#8dd3c7" stroke="black" points="1597.08,-187 1594.08,-191 1573.08,-191 1570.08,-187 1486.92,-187 1486.92,-151 1597.08,-151 1597.08,-187"/>
<text text-anchor="middle" x="1542" y="-164.8" font-family="Times,serif" font-size="14.00">CalendarModule</text>
</g>
<!-- CalendarComponent&#45;&gt;CalendarModule -->
<g id="edge1" class="edge">
<title>CalendarComponent&#45;&gt;CalendarModule</title>
<path fill="none" stroke="black" d="M2197,-122.02C2197,-139.37 2197,-163 2197,-163 2197,-163 1607.28,-163 1607.28,-163"/>
<polygon fill="black" stroke="black" points="1607.28,-159.5 1597.28,-163 1607.28,-166.5 1607.28,-159.5"/>
</g>
<!-- CalendarDayComponent -->
<g id="node2" class="node">
<title>CalendarDayComponent</title>
<polygon fill="#ffffb3" stroke="black" points="2112.69,-122 1957.31,-122 1957.31,-86 2112.69,-86 2112.69,-122"/>
<text text-anchor="middle" x="2035" y="-99.8" font-family="Times,serif" font-size="14.00">CalendarDayComponent</text>
</g>
<!-- CalendarDayComponent&#45;&gt;CalendarModule -->
<g id="edge2" class="edge">
<title>CalendarDayComponent&#45;&gt;CalendarModule</title>
<path fill="none" stroke="black" d="M2035,-122.01C2035,-138.05 2035,-159 2035,-159 2035,-159 1607.12,-159 1607.12,-159"/>
<polygon fill="black" stroke="black" points="1607.12,-155.5 1597.12,-159 1607.12,-162.5 1607.12,-155.5"/>
</g>
<!-- CalendarDayEditComponent -->
<g id="node3" class="node">
<title>CalendarDayEditComponent</title>
<polygon fill="#ffffb3" stroke="black" points="1939.02,-122 1760.98,-122 1760.98,-86 1939.02,-86 1939.02,-122"/>
<text text-anchor="middle" x="1850" y="-99.8" font-family="Times,serif" font-size="14.00">CalendarDayEditComponent</text>
</g>
<!-- CalendarDayEditComponent&#45;&gt;CalendarModule -->
<g id="edge3" class="edge">
<title>CalendarDayEditComponent&#45;&gt;CalendarModule</title>
<path fill="none" stroke="black" d="M1812.71,-122.12C1812.71,-136.78 1812.71,-155 1812.71,-155 1812.71,-155 1607.11,-155 1607.11,-155"/>
<polygon fill="black" stroke="black" points="1607.11,-151.5 1597.11,-155 1607.11,-158.5 1607.11,-151.5"/>
</g>
<!-- CalendarDayEventsComponent -->
<g id="node4" class="node">
<title>CalendarDayEventsComponent</title>
<polygon fill="#ffffb3" stroke="black" points="1742.79,-122 1549.21,-122 1549.21,-86 1742.79,-86 1742.79,-122"/>
<text text-anchor="middle" x="1646" y="-99.8" font-family="Times,serif" font-size="14.00">CalendarDayEventsComponent</text>
</g>
<!-- CalendarDayEventsComponent&#45;&gt;CalendarModule -->
<g id="edge4" class="edge">
<title>CalendarDayEventsComponent&#45;&gt;CalendarModule</title>
<path fill="none" stroke="black" d="M1573.2,-122.11C1573.2,-122.11 1573.2,-140.99 1573.2,-140.99"/>
<polygon fill="black" stroke="black" points="1569.7,-140.99 1573.2,-150.99 1576.7,-140.99 1569.7,-140.99"/>
</g>
<!-- CalendarDayViewComponent -->
<g id="node5" class="node">
<title>CalendarDayViewComponent</title>
<polygon fill="#ffffb3" stroke="black" points="1531.5,-122 1346.5,-122 1346.5,-86 1531.5,-86 1531.5,-122"/>
<text text-anchor="middle" x="1439" y="-99.8" font-family="Times,serif" font-size="14.00">CalendarDayViewComponent</text>
</g>
<!-- CalendarDayViewComponent&#45;&gt;CalendarModule -->
<g id="edge5" class="edge">
<title>CalendarDayViewComponent&#45;&gt;CalendarModule</title>
<path fill="none" stroke="black" d="M1509.36,-122.11C1509.36,-122.11 1509.36,-140.99 1509.36,-140.99"/>
<polygon fill="black" stroke="black" points="1505.86,-140.99 1509.36,-150.99 1512.86,-140.99 1505.86,-140.99"/>
</g>
<!-- CalendarDaysComponent -->
<g id="node6" class="node">
<title>CalendarDaysComponent</title>
<polygon fill="#ffffb3" stroke="black" points="1328.13,-122 1167.87,-122 1167.87,-86 1328.13,-86 1328.13,-122"/>
<text text-anchor="middle" x="1248" y="-99.8" font-family="Times,serif" font-size="14.00">CalendarDaysComponent</text>
</g>
<!-- CalendarDaysComponent&#45;&gt;CalendarModule -->
<g id="edge6" class="edge">
<title>CalendarDaysComponent&#45;&gt;CalendarModule</title>
<path fill="none" stroke="black" d="M1256.65,-122.12C1256.65,-136.78 1256.65,-155 1256.65,-155 1256.65,-155 1476.64,-155 1476.64,-155"/>
<polygon fill="black" stroke="black" points="1476.64,-158.5 1486.64,-155 1476.64,-151.5 1476.64,-158.5"/>
</g>
<!-- CalendarEventComponent -->
<g id="node7" class="node">
<title>CalendarEventComponent</title>
<polygon fill="#ffffb3" stroke="black" points="1149.02,-122 984.98,-122 984.98,-86 1149.02,-86 1149.02,-122"/>
<text text-anchor="middle" x="1067" y="-99.8" font-family="Times,serif" font-size="14.00">CalendarEventComponent</text>
</g>
<!-- CalendarEventComponent&#45;&gt;CalendarModule -->
<g id="edge7" class="edge">
<title>CalendarEventComponent&#45;&gt;CalendarModule</title>
<path fill="none" stroke="black" d="M1067,-122.01C1067,-138.05 1067,-159 1067,-159 1067,-159 1476.58,-159 1476.58,-159"/>
<polygon fill="black" stroke="black" points="1476.58,-162.5 1486.58,-159 1476.58,-155.5 1476.58,-162.5"/>
</g>
<!-- CalendarEventFormComponent -->
<g id="node8" class="node">
<title>CalendarEventFormComponent</title>
<polygon fill="#ffffb3" stroke="black" points="966.36,-122 771.64,-122 771.64,-86 966.36,-86 966.36,-122"/>
<text text-anchor="middle" x="869" y="-99.8" font-family="Times,serif" font-size="14.00">CalendarEventFormComponent</text>
</g>
<!-- CalendarEventFormComponent&#45;&gt;CalendarModule -->
<g id="edge8" class="edge">
<title>CalendarEventFormComponent&#45;&gt;CalendarModule</title>
<path fill="none" stroke="black" d="M869,-122.02C869,-139.37 869,-163 869,-163 869,-163 1476.93,-163 1476.93,-163"/>
<polygon fill="black" stroke="black" points="1476.93,-166.5 1486.93,-163 1476.93,-159.5 1476.93,-166.5"/>
</g>
<!-- CalendarEventViewComponent -->
<g id="node9" class="node">
<title>CalendarEventViewComponent</title>
<polygon fill="#ffffb3" stroke="black" points="753.34,-122 558.66,-122 558.66,-86 753.34,-86 753.34,-122"/>
<text text-anchor="middle" x="656" y="-99.8" font-family="Times,serif" font-size="14.00">CalendarEventViewComponent</text>
</g>
<!-- CalendarEventViewComponent&#45;&gt;CalendarModule -->
<g id="edge9" class="edge">
<title>CalendarEventViewComponent&#45;&gt;CalendarModule</title>
<path fill="none" stroke="black" d="M656,-122.22C656,-140.83 656,-167 656,-167 656,-167 1476.91,-167 1476.91,-167"/>
<polygon fill="black" stroke="black" points="1476.91,-170.5 1486.91,-167 1476.91,-163.5 1476.91,-170.5"/>
</g>
<!-- CalendarFormComponent -->
<g id="node10" class="node">
<title>CalendarFormComponent</title>
<polygon fill="#ffffb3" stroke="black" points="540.2,-122 377.8,-122 377.8,-86 540.2,-86 540.2,-122"/>
<text text-anchor="middle" x="459" y="-99.8" font-family="Times,serif" font-size="14.00">CalendarFormComponent</text>
</g>
<!-- CalendarFormComponent&#45;&gt;CalendarModule -->
<g id="edge10" class="edge">
<title>CalendarFormComponent&#45;&gt;CalendarModule</title>
<path fill="none" stroke="black" d="M459,-122.31C459,-142.15 459,-171 459,-171 459,-171 1476.8,-171 1476.8,-171"/>
<polygon fill="black" stroke="black" points="1476.8,-174.5 1486.8,-171 1476.8,-167.5 1476.8,-174.5"/>
</g>
<!-- CalendarKeyComponent -->
<g id="node11" class="node">
<title>CalendarKeyComponent</title>
<polygon fill="#ffffb3" stroke="black" points="359.69,-122 204.31,-122 204.31,-86 359.69,-86 359.69,-122"/>
<text text-anchor="middle" x="282" y="-99.8" font-family="Times,serif" font-size="14.00">CalendarKeyComponent</text>
</g>
<!-- CalendarKeyComponent&#45;&gt;CalendarModule -->
<g id="edge11" class="edge">
<title>CalendarKeyComponent&#45;&gt;CalendarModule</title>
<path fill="none" stroke="black" d="M282,-122.28C282,-143.32 282,-175 282,-175 282,-175 1476.64,-175 1476.64,-175"/>
<polygon fill="black" stroke="black" points="1476.64,-178.5 1486.64,-175 1476.64,-171.5 1476.64,-178.5"/>
</g>
<!-- CalendarViewComponent -->
<g id="node12" class="node">
<title>CalendarViewComponent</title>
<polygon fill="#ffffb3" stroke="black" points="186.18,-122 23.82,-122 23.82,-86 186.18,-86 186.18,-122"/>
<text text-anchor="middle" x="105" y="-99.8" font-family="Times,serif" font-size="14.00">CalendarViewComponent</text>
</g>
<!-- CalendarViewComponent&#45;&gt;CalendarModule -->
<g id="edge12" class="edge">
<title>CalendarViewComponent&#45;&gt;CalendarModule</title>
<path fill="none" stroke="black" d="M105,-122.16C105,-144.35 105,-179 105,-179 105,-179 1476.55,-179 1476.55,-179"/>
<polygon fill="black" stroke="black" points="1476.55,-182.5 1486.55,-179 1476.55,-175.5 1476.55,-182.5"/>
</g>
<!-- CalendarComponent  -->
<g id="node18" class="node">
<title>CalendarComponent </title>
<polygon fill="#fb8072" stroke="black" points="1864.86,-252 1729.14,-252 1729.14,-216 1864.86,-216 1864.86,-252"/>
<text text-anchor="middle" x="1797" y="-229.8" font-family="Times,serif" font-size="14.00">CalendarComponent </text>
</g>
<!-- CalendarModule&#45;&gt;CalendarComponent  -->
<g id="edge17" class="edge">
<title>CalendarModule&#45;&gt;CalendarComponent </title>
<path fill="none" stroke="black" stroke-dasharray="5,2" d="M1597.07,-183C1654.42,-183 1735.98,-183 1735.98,-183 1735.98,-183 1735.98,-205.88 1735.98,-205.88"/>
<polygon fill="black" stroke="black" points="1732.48,-205.88 1735.98,-215.88 1739.48,-205.88 1732.48,-205.88"/>
</g>
<!-- CalendarDayComponent  -->
<g id="node19" class="node">
<title>CalendarDayComponent </title>
<polygon fill="#fb8072" stroke="black" points="1711.19,-252 1552.81,-252 1552.81,-216 1711.19,-216 1711.19,-252"/>
<text text-anchor="middle" x="1632" y="-229.8" font-family="Times,serif" font-size="14.00">CalendarDayComponent </text>
</g>
<!-- CalendarModule&#45;&gt;CalendarDayComponent  -->
<g id="edge18" class="edge">
<title>CalendarModule&#45;&gt;CalendarDayComponent </title>
<path fill="none" stroke="black" stroke-dasharray="5,2" d="M1574.85,-187.11C1574.85,-187.11 1574.85,-205.99 1574.85,-205.99"/>
<polygon fill="black" stroke="black" points="1571.35,-205.99 1574.85,-215.99 1578.35,-205.99 1571.35,-205.99"/>
</g>
<!-- CalendarDaysComponent  -->
<g id="node20" class="node">
<title>CalendarDaysComponent </title>
<polygon fill="#fb8072" stroke="black" points="1535.13,-252 1370.87,-252 1370.87,-216 1535.13,-216 1535.13,-252"/>
<text text-anchor="middle" x="1453" y="-229.8" font-family="Times,serif" font-size="14.00">CalendarDaysComponent </text>
</g>
<!-- CalendarModule&#45;&gt;CalendarDaysComponent  -->
<g id="edge19" class="edge">
<title>CalendarModule&#45;&gt;CalendarDaysComponent </title>
<path fill="none" stroke="black" stroke-dasharray="5,2" d="M1511.01,-187.11C1511.01,-187.11 1511.01,-205.99 1511.01,-205.99"/>
<polygon fill="black" stroke="black" points="1507.51,-205.99 1511.01,-215.99 1514.51,-205.99 1507.51,-205.99"/>
</g>
<!-- CalendarEventComponent  -->
<g id="node21" class="node">
<title>CalendarEventComponent </title>
<polygon fill="#fb8072" stroke="black" points="1353.02,-252 1184.98,-252 1184.98,-216 1353.02,-216 1353.02,-252"/>
<text text-anchor="middle" x="1269" y="-229.8" font-family="Times,serif" font-size="14.00">CalendarEventComponent </text>
</g>
<!-- CalendarModule&#45;&gt;CalendarEventComponent  -->
<g id="edge20" class="edge">
<title>CalendarModule&#45;&gt;CalendarEventComponent </title>
<path fill="none" stroke="black" stroke-dasharray="5,2" d="M1486.87,-183C1426.24,-183 1337.28,-183 1337.28,-183 1337.28,-183 1337.28,-205.88 1337.28,-205.88"/>
<polygon fill="black" stroke="black" points="1333.78,-205.88 1337.28,-215.88 1340.78,-205.88 1333.78,-205.88"/>
</g>
<!-- AccordionModule -->
<g id="node14" class="node">
<title>AccordionModule</title>
<polygon fill="#8dd3c7" stroke="black" points="2743.14,-122 2740.14,-126 2719.14,-126 2716.14,-122 2624.86,-122 2624.86,-86 2743.14,-86 2743.14,-122"/>
<text text-anchor="middle" x="2684" y="-99.8" font-family="Times,serif" font-size="14.00">AccordionModule</text>
</g>
<!-- AccordionModule&#45;&gt;CalendarModule -->
<g id="edge13" class="edge">
<title>AccordionModule&#45;&gt;CalendarModule</title>
<path fill="none" stroke="black" d="M2684,-122.16C2684,-144.35 2684,-179 2684,-179 2684,-179 1607.08,-179 1607.08,-179"/>
<polygon fill="black" stroke="black" points="1607.08,-175.5 1597.08,-179 1607.08,-182.5 1607.08,-175.5"/>
</g>
<!-- FormsModule -->
<g id="node15" class="node">
<title>FormsModule</title>
<polygon fill="#8dd3c7" stroke="black" points="2606.83,-122 2603.83,-126 2582.83,-126 2579.83,-122 2511.17,-122 2511.17,-86 2606.83,-86 2606.83,-122"/>
<text text-anchor="middle" x="2559" y="-99.8" font-family="Times,serif" font-size="14.00">FormsModule</text>
</g>
<!-- FormsModule&#45;&gt;CalendarModule -->
<g id="edge14" class="edge">
<title>FormsModule&#45;&gt;CalendarModule</title>
<path fill="none" stroke="black" d="M2559,-122.28C2559,-143.32 2559,-175 2559,-175 2559,-175 1607.4,-175 1607.4,-175"/>
<polygon fill="black" stroke="black" points="1607.4,-171.5 1597.4,-175 1607.4,-178.5 1607.4,-171.5"/>
</g>
<!-- SharedModule -->
<g id="node16" class="node">
<title>SharedModule</title>
<polygon fill="#8dd3c7" stroke="black" points="2493.42,-122 2490.42,-126 2469.42,-126 2466.42,-122 2394.58,-122 2394.58,-86 2493.42,-86 2493.42,-122"/>
<text text-anchor="middle" x="2444" y="-99.8" font-family="Times,serif" font-size="14.00">SharedModule</text>
</g>
<!-- SharedModule&#45;&gt;CalendarModule -->
<g id="edge15" class="edge">
<title>SharedModule&#45;&gt;CalendarModule</title>
<path fill="none" stroke="black" d="M2444,-122.31C2444,-142.15 2444,-171 2444,-171 2444,-171 1607.07,-171 1607.07,-171"/>
<polygon fill="black" stroke="black" points="1607.07,-167.5 1597.07,-171 1607.07,-174.5 1607.07,-167.5"/>
</g>
<!-- TimeModule -->
<g id="node17" class="node">
<title>TimeModule</title>
<polygon fill="#8dd3c7" stroke="black" points="2376.6,-122 2373.6,-126 2352.6,-126 2349.6,-122 2287.4,-122 2287.4,-86 2376.6,-86 2376.6,-122"/>
<text text-anchor="middle" x="2332" y="-99.8" font-family="Times,serif" font-size="14.00">TimeModule</text>
</g>
<!-- TimeModule&#45;&gt;CalendarModule -->
<g id="edge16" class="edge">
<title>TimeModule&#45;&gt;CalendarModule</title>
<path fill="none" stroke="black" d="M2332,-122.22C2332,-140.83 2332,-167 2332,-167 2332,-167 1607.24,-167 1607.24,-167"/>
<polygon fill="black" stroke="black" points="1607.24,-163.5 1597.24,-167 1607.24,-170.5 1607.24,-163.5"/>
</g>
</g>
</svg>
