<?xml version="1.0" encoding="UTF-8" standalone="no"?>
<!DOCTYPE svg PUBLIC "-//W3C//DTD SVG 1.1//EN"
 "http://www.w3.org/Graphics/SVG/1.1/DTD/svg11.dtd">
<!-- Generated by graphviz version 2.47.0 (20210316.0004)
 -->
<!-- Title: dependencies Pages: 1 -->
<svg width="2114pt" height="284pt"
 viewBox="0.00 0.00 2114.00 284.00" xmlns="http://www.w3.org/2000/svg" xmlns:xlink="http://www.w3.org/1999/xlink">
<g id="graph0" class="graph" transform="scale(1 1) rotate(0) translate(4 280)">
<title>dependencies</title>
<polygon fill="white" stroke="transparent" points="-4,4 -4,-280 2110,-280 2110,4 -4,4"/>
<text text-anchor="start" x="1032.01" y="-42.4" font-family="sans-serif" font-weight="bold" font-size="14.00">Legend</text>
<polygon fill="#ffffb3" stroke="transparent" points="819,-10 819,-30 839,-30 839,-10 819,-10"/>
<text text-anchor="start" x="842.63" y="-15.4" font-family="sans-serif" font-size="14.00"> &#160;Declarations</text>
<polygon fill="#8dd3c7" stroke="transparent" points="932,-10 932,-30 952,-30 952,-10 932,-10"/>
<text text-anchor="start" x="955.73" y="-15.4" font-family="sans-serif" font-size="14.00"> &#160;Module</text>
<polygon fill="#80b1d3" stroke="transparent" points="1018,-10 1018,-30 1038,-30 1038,-10 1018,-10"/>
<text text-anchor="start" x="1041.78" y="-15.4" font-family="sans-serif" font-size="14.00"> &#160;Bootstrap</text>
<polygon fill="#fdb462" stroke="transparent" points="1115,-10 1115,-30 1135,-30 1135,-10 1115,-10"/>
<text text-anchor="start" x="1138.67" y="-15.4" font-family="sans-serif" font-size="14.00"> &#160;Providers</text>
<polygon fill="#fb8072" stroke="transparent" points="1211,-10 1211,-30 1231,-30 1231,-10 1211,-10"/>
<text text-anchor="start" x="1234.73" y="-15.4" font-family="sans-serif" font-size="14.00"> &#160;Exports</text>
<g id="clust1" class="cluster">
<title>cluster_AppModule</title>
<polygon fill="none" stroke="black" stroke-dasharray="1,5" points="8,-70 8,-268 2098,-268 2098,-70 8,-70"/>
</g>
<g id="clust2" class="cluster">
<title>cluster_AppModule_declarations</title>
<polygon fill="none" stroke="black" points="1064,-78 1064,-130 2090,-130 2090,-78 1064,-78"/>
</g>
<g id="clust9" class="cluster">
<title>cluster_AppModule_imports</title>
<polygon fill="none" stroke="black" points="16,-78 16,-130 1056,-130 1056,-78 16,-78"/>
</g>
<g id="clust11" class="cluster">
<title>cluster_AppModule_bootstrap</title>
<polygon fill="none" stroke="black" points="792,-208 792,-260 916,-260 916,-208 792,-208"/>
</g>
<!-- AccordionDemoComponent -->
<g id="node1" class="node">
<title>AccordionDemoComponent</title>
<polygon fill="#ffffb3" stroke="black" points="2082.13,-122 1907.87,-122 1907.87,-86 2082.13,-86 2082.13,-122"/>
<text text-anchor="middle" x="1995" y="-99.8" font-family="Times,serif" font-size="14.00">AccordionDemoComponent</text>
</g>
<!-- AppModule -->
<g id="node7" class="node">
<title>AppModule</title>
<polygon fill="#8dd3c7" stroke="black" points="895.66,-187 892.66,-191 871.66,-191 868.66,-187 812.34,-187 812.34,-151 895.66,-151 895.66,-187"/>
<text text-anchor="middle" x="854" y="-164.8" font-family="Times,serif" font-size="14.00">AppModule</text>
</g>
<!-- AccordionDemoComponent&#45;&gt;AppModule -->
<g id="edge1" class="edge">
<title>AccordionDemoComponent&#45;&gt;AppModule</title>
<path fill="none" stroke="black" d="M1995,-122.32C1995,-145.66 1995,-183 1995,-183 1995,-183 905.96,-183 905.96,-183"/>
<polygon fill="black" stroke="black" points="905.96,-179.5 895.96,-183 905.96,-186.5 905.96,-179.5"/>
</g>
<!-- AppComponent -->
<g id="node2" class="node">
<title>AppComponent</title>
<polygon fill="#ffffb3" stroke="black" points="1889.94,-122 1784.06,-122 1784.06,-86 1889.94,-86 1889.94,-122"/>
<text text-anchor="middle" x="1837" y="-99.8" font-family="Times,serif" font-size="14.00">AppComponent</text>
</g>
<!-- AppComponent&#45;&gt;AppModule -->
<g id="edge2" class="edge">
<title>AppComponent&#45;&gt;AppModule</title>
<path fill="none" stroke="black" d="M1837,-122.29C1837,-144.21 1837,-178 1837,-178 1837,-178 905.92,-178 905.92,-178"/>
<polygon fill="black" stroke="black" points="905.92,-174.5 895.92,-178 905.92,-181.5 905.92,-174.5"/>
</g>
<!-- CalendarDemoComponent -->
<g id="node3" class="node">
<title>CalendarDemoComponent</title>
<polygon fill="#ffffb3" stroke="black" points="1766.08,-122 1599.92,-122 1599.92,-86 1766.08,-86 1766.08,-122"/>
<text text-anchor="middle" x="1683" y="-99.8" font-family="Times,serif" font-size="14.00">CalendarDemoComponent</text>
</g>
<!-- CalendarDemoComponent&#45;&gt;AppModule -->
<g id="edge3" class="edge">
<title>CalendarDemoComponent&#45;&gt;AppModule</title>
<path fill="none" stroke="black" d="M1683,-122.03C1683,-142.77 1683,-174 1683,-174 1683,-174 905.68,-174 905.68,-174"/>
<polygon fill="black" stroke="black" points="905.68,-170.5 895.68,-174 905.68,-177.5 905.68,-170.5"/>
</g>
<!-- EditorDemoComponent -->
<g id="node4" class="node">
<title>EditorDemoComponent</title>
<polygon fill="#ffffb3" stroke="black" points="1582.04,-122 1431.96,-122 1431.96,-86 1582.04,-86 1582.04,-122"/>
<text text-anchor="middle" x="1507" y="-99.8" font-family="Times,serif" font-size="14.00">EditorDemoComponent</text>
</g>
<!-- EditorDemoComponent&#45;&gt;AppModule -->
<g id="edge4" class="edge">
<title>EditorDemoComponent&#45;&gt;AppModule</title>
<path fill="none" stroke="black" d="M1507,-122.11C1507,-141.34 1507,-169 1507,-169 1507,-169 905.84,-169 905.84,-169"/>
<polygon fill="black" stroke="black" points="905.84,-165.5 895.84,-169 905.84,-172.5 905.84,-165.5"/>
</g>
<!-- FileControlComponent -->
<g id="node5" class="node">
<title>FileControlComponent</title>
<polygon fill="#ffffb3" stroke="black" points="1413.89,-122 1268.11,-122 1268.11,-86 1413.89,-86 1413.89,-122"/>
<text text-anchor="middle" x="1341" y="-99.8" font-family="Times,serif" font-size="14.00">FileControlComponent</text>
</g>
<!-- FileControlComponent&#45;&gt;AppModule -->
<g id="edge5" class="edge">
<title>FileControlComponent&#45;&gt;AppModule</title>
<path fill="none" stroke="black" d="M1341,-122.3C1341,-140.27 1341,-165 1341,-165 1341,-165 905.94,-165 905.94,-165"/>
<polygon fill="black" stroke="black" points="905.94,-161.5 895.94,-165 905.94,-168.5 905.94,-161.5"/>
</g>
<!-- FileUploadDemoComponent -->
<g id="node6" class="node">
<title>FileUploadDemoComponent</title>
<polygon fill="#ffffb3" stroke="black" points="1250.04,-122 1071.96,-122 1071.96,-86 1250.04,-86 1250.04,-122"/>
<text text-anchor="middle" x="1161" y="-99.8" font-family="Times,serif" font-size="14.00">FileUploadDemoComponent</text>
</g>
<!-- FileUploadDemoComponent&#45;&gt;AppModule -->
<g id="edge6" class="edge">
<title>FileUploadDemoComponent&#45;&gt;AppModule</title>
<path fill="none" stroke="black" d="M1161,-122.03C1161,-138.4 1161,-160 1161,-160 1161,-160 905.72,-160 905.72,-160"/>
<polygon fill="black" stroke="black" points="905.72,-156.5 895.72,-160 905.72,-163.5 905.72,-156.5"/>
</g>
<!-- AppComponent  -->
<g id="node17" class="node">
<title>AppComponent </title>
<polygon fill="#80b1d3" stroke="black" points="908.44,-252 799.56,-252 799.56,-216 908.44,-216 908.44,-252"/>
<text text-anchor="middle" x="854" y="-229.8" font-family="Times,serif" font-size="14.00">AppComponent </text>
</g>
<!-- AppModule&#45;&gt;AppComponent  -->
<g id="edge16" class="edge">
<title>AppModule&#45;&gt;AppComponent </title>
<path fill="none" stroke="black" stroke-dasharray="1,5" d="M854,-187.11C854,-187.11 854,-205.99 854,-205.99"/>
<polygon fill="black" stroke="black" points="850.5,-205.99 854,-215.99 857.5,-205.99 850.5,-205.99"/>
</g>
<!-- AppRoutingModule -->
<g id="node8" class="node">
<title>AppRoutingModule</title>
<polygon fill="#8dd3c7" stroke="black" points="1048.27,-122 1045.27,-126 1024.27,-126 1021.27,-122 919.73,-122 919.73,-86 1048.27,-86 1048.27,-122"/>
<text text-anchor="middle" x="984" y="-99.8" font-family="Times,serif" font-size="14.00">AppRoutingModule</text>
</g>
<!-- AppRoutingModule&#45;&gt;AppModule -->
<g id="edge7" class="edge">
<title>AppRoutingModule&#45;&gt;AppModule</title>
<path fill="none" stroke="black" d="M984,-122.19C984,-137.18 984,-156 984,-156 984,-156 905.85,-156 905.85,-156"/>
<polygon fill="black" stroke="black" points="905.85,-152.5 895.85,-156 905.85,-159.5 905.85,-152.5"/>
</g>
<!-- EditorModule -->
<g id="node9" class="node">
<title>EditorModule</title>
<polygon fill="#8dd3c7" stroke="black" points="901.05,-122 898.05,-126 877.05,-126 874.05,-122 806.95,-122 806.95,-86 901.05,-86 901.05,-122"/>
<text text-anchor="middle" x="854" y="-99.8" font-family="Times,serif" font-size="14.00">EditorModule</text>
</g>
<!-- EditorModule&#45;&gt;AppModule -->
<g id="edge8" class="edge">
<title>EditorModule&#45;&gt;AppModule</title>
<path fill="none" stroke="black" d="M854,-122.11C854,-122.11 854,-140.99 854,-140.99"/>
<polygon fill="black" stroke="black" points="850.5,-140.99 854,-150.99 857.5,-140.99 850.5,-140.99"/>
</g>
<!-- FormsModule -->
<g id="node10" class="node">
<title>FormsModule</title>
<polygon fill="#8dd3c7" stroke="black" points="788.83,-122 785.83,-126 764.83,-126 761.83,-122 693.17,-122 693.17,-86 788.83,-86 788.83,-122"/>
<text text-anchor="middle" x="741" y="-99.8" font-family="Times,serif" font-size="14.00">FormsModule</text>
</g>
<!-- FormsModule&#45;&gt;AppModule -->
<g id="edge9" class="edge">
<title>FormsModule&#45;&gt;AppModule</title>
<path fill="none" stroke="black" d="M741,-122.19C741,-137.18 741,-156 741,-156 741,-156 802.24,-156 802.24,-156"/>
<polygon fill="black" stroke="black" points="802.24,-159.5 812.24,-156 802.24,-152.5 802.24,-159.5"/>
</g>
<!-- GridModule -->
<g id="node11" class="node">
<title>GridModule</title>
<polygon fill="#8dd3c7" stroke="black" points="675.71,-122 672.71,-126 651.71,-126 648.71,-122 590.29,-122 590.29,-86 675.71,-86 675.71,-122"/>
<text text-anchor="middle" x="633" y="-99.8" font-family="Times,serif" font-size="14.00">GridModule</text>
</g>
<!-- GridModule&#45;&gt;AppModule -->
<g id="edge10" class="edge">
<title>GridModule&#45;&gt;AppModule</title>
<path fill="none" stroke="black" d="M633,-122.03C633,-138.4 633,-160 633,-160 633,-160 802.17,-160 802.17,-160"/>
<polygon fill="black" stroke="black" points="802.17,-163.5 812.17,-160 802.17,-156.5 802.17,-163.5"/>
</g>
<!-- HttpModule -->
<g id="node12" class="node">
<title>HttpModule</title>
<polygon fill="#8dd3c7" stroke="black" points="572.44,-122 569.44,-126 548.44,-126 545.44,-122 487.56,-122 487.56,-86 572.44,-86 572.44,-122"/>
<text text-anchor="middle" x="530" y="-99.8" font-family="Times,serif" font-size="14.00">HttpModule</text>
</g>
<!-- HttpModule&#45;&gt;AppModule -->
<g id="edge11" class="edge">
<title>HttpModule&#45;&gt;AppModule</title>
<path fill="none" stroke="black" d="M530,-122.3C530,-140.27 530,-165 530,-165 530,-165 802.31,-165 802.31,-165"/>
<polygon fill="black" stroke="black" points="802.31,-168.5 812.31,-165 802.31,-161.5 802.31,-168.5"/>
</g>
<!-- LibraryModule -->
<g id="node13" class="node">
<title>LibraryModule</title>
<polygon fill="#8dd3c7" stroke="black" points="469.53,-122 466.53,-126 445.53,-126 442.53,-122 368.47,-122 368.47,-86 469.53,-86 469.53,-122"/>
<text text-anchor="middle" x="419" y="-99.8" font-family="Times,serif" font-size="14.00">LibraryModule</text>
</g>
<!-- LibraryModule&#45;&gt;AppModule -->
<g id="edge12" class="edge">
<title>LibraryModule&#45;&gt;AppModule</title>
<path fill="none" stroke="black" d="M419,-122.11C419,-141.34 419,-169 419,-169 419,-169 802.29,-169 802.29,-169"/>
<polygon fill="black" stroke="black" points="802.29,-172.5 812.29,-169 802.29,-165.5 802.29,-172.5"/>
</g>
<!-- RouterModule -->
<g id="node14" class="node">
<title>RouterModule</title>
<polygon fill="#8dd3c7" stroke="black" points="349.65,-122 346.65,-126 325.65,-126 322.65,-122 252.35,-122 252.35,-86 349.65,-86 349.65,-122"/>
<text text-anchor="middle" x="301" y="-99.8" font-family="Times,serif" font-size="14.00">RouterModule</text>
</g>
<!-- RouterModule&#45;&gt;AppModule -->
<g id="edge13" class="edge">
<title>RouterModule&#45;&gt;AppModule</title>
<path fill="none" stroke="black" d="M301,-122.03C301,-142.77 301,-174 301,-174 301,-174 801.98,-174 801.98,-174"/>
<polygon fill="black" stroke="black" points="801.98,-177.5 811.98,-174 801.98,-170.5 801.98,-177.5"/>
</g>
<!-- StorageModule -->
<g id="node15" class="node">
<title>StorageModule</title>
<polygon fill="#8dd3c7" stroke="black" points="234.31,-122 231.31,-126 210.31,-126 207.31,-122 131.69,-122 131.69,-86 234.31,-86 234.31,-122"/>
<text text-anchor="middle" x="183" y="-99.8" font-family="Times,serif" font-size="14.00">StorageModule</text>
</g>
<!-- StorageModule&#45;&gt;AppModule -->
<g id="edge14" class="edge">
<title>StorageModule&#45;&gt;AppModule</title>
<path fill="none" stroke="black" d="M183,-122.29C183,-144.21 183,-178 183,-178 183,-178 802.28,-178 802.28,-178"/>
<polygon fill="black" stroke="black" points="802.28,-181.5 812.28,-178 802.28,-174.5 802.28,-181.5"/>
</g>
<!-- StoreModule -->
<g id="node16" class="node">
<title>StoreModule</title>
<polygon fill="#8dd3c7" stroke="black" points="113.6,-122 110.6,-126 89.6,-126 86.6,-122 24.4,-122 24.4,-86 113.6,-86 113.6,-122"/>
<text text-anchor="middle" x="69" y="-99.8" font-family="Times,serif" font-size="14.00">StoreModule</text>
</g>
<!-- StoreModule&#45;&gt;AppModule -->
<g id="edge15" class="edge">
<title>StoreModule&#45;&gt;AppModule</title>
<path fill="none" stroke="black" d="M69,-122.32C69,-145.66 69,-183 69,-183 69,-183 802.07,-183 802.07,-183"/>
<polygon fill="black" stroke="black" points="802.07,-186.5 812.07,-183 802.07,-179.5 802.07,-186.5"/>
</g>
</g>
</svg>
