<?xml version="1.0" encoding="UTF-8" standalone="no"?>
<!DOCTYPE svg PUBLIC "-//W3C//DTD SVG 1.1//EN"
 "http://www.w3.org/Graphics/SVG/1.1/DTD/svg11.dtd">
<!-- Generated by graphviz version 2.47.0 (20210316.0004)
 -->
<!-- Title: dependencies Pages: 1 -->
<svg width="504pt" height="284pt"
 viewBox="0.00 0.00 504.00 284.00" xmlns="http://www.w3.org/2000/svg" xmlns:xlink="http://www.w3.org/1999/xlink">
<g id="graph0" class="graph" transform="scale(1 1) rotate(0) translate(4 280)">
<title>dependencies</title>
<polygon fill="white" stroke="transparent" points="-4,4 -4,-280 500,-280 500,4 -4,4"/>
<text text-anchor="start" x="227.01" y="-42.4" font-family="sans-serif" font-weight="bold" font-size="14.00">Legend</text>
<polygon fill="#ffffb3" stroke="transparent" points="14,-10 14,-30 34,-30 34,-10 14,-10"/>
<text text-anchor="start" x="37.63" y="-15.4" font-family="sans-serif" font-size="14.00"> &#160;Declarations</text>
<polygon fill="#8dd3c7" stroke="transparent" points="127,-10 127,-30 147,-30 147,-10 127,-10"/>
<text text-anchor="start" x="150.73" y="-15.4" font-family="sans-serif" font-size="14.00"> &#160;Module</text>
<polygon fill="#80b1d3" stroke="transparent" points="213,-10 213,-30 233,-30 233,-10 213,-10"/>
<text text-anchor="start" x="236.78" y="-15.4" font-family="sans-serif" font-size="14.00"> &#160;Bootstrap</text>
<polygon fill="#fdb462" stroke="transparent" points="310,-10 310,-30 330,-30 330,-10 310,-10"/>
<text text-anchor="start" x="333.67" y="-15.4" font-family="sans-serif" font-size="14.00"> &#160;Providers</text>
<polygon fill="#fb8072" stroke="transparent" points="406,-10 406,-30 426,-30 426,-10 406,-10"/>
<text text-anchor="start" x="429.73" y="-15.4" font-family="sans-serif" font-size="14.00"> &#160;Exports</text>
<g id="clust1" class="cluster">
<title>cluster_BreadcrumbsModule</title>
<polygon fill="none" stroke="black" stroke-dasharray="1,5" points="93,-70 93,-268 403,-268 403,-70 93,-70"/>
</g>
<g id="clust4" class="cluster">
<title>cluster_BreadcrumbsModule_imports</title>
<polygon fill="none" stroke="black" points="281,-78 281,-130 395,-130 395,-78 281,-78"/>
</g>
<g id="clust2" class="cluster">
<title>cluster_BreadcrumbsModule_declarations</title>
<polygon fill="none" stroke="black" points="101,-78 101,-130 273,-130 273,-78 101,-78"/>
</g>
<g id="clust5" class="cluster">
<title>cluster_BreadcrumbsModule_exports</title>
<polygon fill="none" stroke="black" points="160,-208 160,-260 336,-260 336,-208 160,-208"/>
</g>
<!-- BreadcrumbsComponent -->
<g id="node1" class="node">
<title>BreadcrumbsComponent</title>
<polygon fill="#ffffb3" stroke="black" points="264.97,-122 109.03,-122 109.03,-86 264.97,-86 264.97,-122"/>
<text text-anchor="middle" x="187" y="-99.8" font-family="Times,serif" font-size="14.00">BreadcrumbsComponent</text>
</g>
<!-- BreadcrumbsModule -->
<g id="node2" class="node">
<title>BreadcrumbsModule</title>
<polygon fill="#8dd3c7" stroke="black" points="315.19,-187 312.19,-191 291.19,-191 288.19,-187 180.81,-187 180.81,-151 315.19,-151 315.19,-187"/>
<text text-anchor="middle" x="248" y="-164.8" font-family="Times,serif" font-size="14.00">BreadcrumbsModule</text>
</g>
<!-- BreadcrumbsComponent&#45;&gt;BreadcrumbsModule -->
<g id="edge1" class="edge">
<title>BreadcrumbsComponent&#45;&gt;BreadcrumbsModule</title>
<path fill="none" stroke="black" d="M222.95,-122.11C222.95,-122.11 222.95,-140.99 222.95,-140.99"/>
<polygon fill="black" stroke="black" points="219.45,-140.99 222.95,-150.99 226.45,-140.99 219.45,-140.99"/>
</g>
<!-- BreadcrumbsComponent  -->
<g id="node4" class="node">
<title>BreadcrumbsComponent </title>
<polygon fill="#fb8072" stroke="black" points="327.97,-252 168.03,-252 168.03,-216 327.97,-216 327.97,-252"/>
<text text-anchor="middle" x="248" y="-229.8" font-family="Times,serif" font-size="14.00">BreadcrumbsComponent </text>
</g>
<!-- BreadcrumbsModule&#45;&gt;BreadcrumbsComponent  -->
<g id="edge3" class="edge">
<title>BreadcrumbsModule&#45;&gt;BreadcrumbsComponent </title>
<path fill="none" stroke="black" stroke-dasharray="5,2" d="M248,-187.11C248,-187.11 248,-205.99 248,-205.99"/>
<polygon fill="black" stroke="black" points="244.5,-205.99 248,-215.99 251.5,-205.99 244.5,-205.99"/>
</g>
<!-- SharedModule -->
<g id="node3" class="node">
<title>SharedModule</title>
<polygon fill="#8dd3c7" stroke="black" points="387.42,-122 384.42,-126 363.42,-126 360.42,-122 288.58,-122 288.58,-86 387.42,-86 387.42,-122"/>
<text text-anchor="middle" x="338" y="-99.8" font-family="Times,serif" font-size="14.00">SharedModule</text>
</g>
<!-- SharedModule&#45;&gt;BreadcrumbsModule -->
<g id="edge2" class="edge">
<title>SharedModule&#45;&gt;BreadcrumbsModule</title>
<path fill="none" stroke="black" d="M301.94,-122.11C301.94,-122.11 301.94,-140.99 301.94,-140.99"/>
<polygon fill="black" stroke="black" points="298.44,-140.99 301.94,-150.99 305.44,-140.99 298.44,-140.99"/>
</g>
</g>
</svg>
