<?xml version="1.0" encoding="UTF-8" standalone="no"?>
<!DOCTYPE svg PUBLIC "-//W3C//DTD SVG 1.1//EN"
 "http://www.w3.org/Graphics/SVG/1.1/DTD/svg11.dtd">
<!-- Generated by graphviz version 2.47.0 (20210316.0004)
 -->
<!-- Title: dependencies Pages: 1 -->
<svg width="504pt" height="284pt"
 viewBox="0.00 0.00 504.00 284.00" xmlns="http://www.w3.org/2000/svg" xmlns:xlink="http://www.w3.org/1999/xlink">
<g id="graph0" class="graph" transform="scale(1 1) rotate(0) translate(4 280)">
<title>dependencies</title>
<polygon fill="white" stroke="transparent" points="-4,4 -4,-280 500,-280 500,4 -4,4"/>
<text text-anchor="start" x="227.01" y="-42.4" font-family="sans-serif" font-weight="bold" font-size="14.00">Legend</text>
<polygon fill="#ffffb3" stroke="transparent" points="14,-10 14,-30 34,-30 34,-10 14,-10"/>
<text text-anchor="start" x="37.63" y="-15.4" font-family="sans-serif" font-size="14.00"> &#160;Declarations</text>
<polygon fill="#8dd3c7" stroke="transparent" points="127,-10 127,-30 147,-30 147,-10 127,-10"/>
<text text-anchor="start" x="150.73" y="-15.4" font-family="sans-serif" font-size="14.00"> &#160;Module</text>
<polygon fill="#80b1d3" stroke="transparent" points="213,-10 213,-30 233,-30 233,-10 213,-10"/>
<text text-anchor="start" x="236.78" y="-15.4" font-family="sans-serif" font-size="14.00"> &#160;Bootstrap</text>
<polygon fill="#fdb462" stroke="transparent" points="310,-10 310,-30 330,-30 330,-10 310,-10"/>
<text text-anchor="start" x="333.67" y="-15.4" font-family="sans-serif" font-size="14.00"> &#160;Providers</text>
<polygon fill="#fb8072" stroke="transparent" points="406,-10 406,-30 426,-30 426,-10 406,-10"/>
<text text-anchor="start" x="429.73" y="-15.4" font-family="sans-serif" font-size="14.00"> &#160;Exports</text>
<g id="clust1" class="cluster">
<title>cluster_SidenavModule</title>
<polygon fill="none" stroke="black" stroke-dasharray="1,5" points="36.5,-70 36.5,-268 459.5,-268 459.5,-70 36.5,-70"/>
</g>
<g id="clust5" class="cluster">
<title>cluster_SidenavModule_exports</title>
<polygon fill="none" stroke="black" points="171.5,-208 171.5,-260 317.5,-260 317.5,-208 171.5,-208"/>
</g>
<g id="clust2" class="cluster">
<title>cluster_SidenavModule_declarations</title>
<polygon fill="none" stroke="black" points="309.5,-78 309.5,-130 451.5,-130 451.5,-78 309.5,-78"/>
</g>
<g id="clust4" class="cluster">
<title>cluster_SidenavModule_imports</title>
<polygon fill="none" stroke="black" points="44.5,-78 44.5,-130 301.5,-130 301.5,-78 44.5,-78"/>
</g>
<!-- SidenavComponent -->
<g id="node1" class="node">
<title>SidenavComponent</title>
<polygon fill="#ffffb3" stroke="black" points="443.94,-122 317.06,-122 317.06,-86 443.94,-86 443.94,-122"/>
<text text-anchor="middle" x="380.5" y="-99.8" font-family="Times,serif" font-size="14.00">SidenavComponent</text>
</g>
<!-- SidenavModule -->
<g id="node2" class="node">
<title>SidenavModule</title>
<polygon fill="#8dd3c7" stroke="black" points="296.65,-187 293.65,-191 272.65,-191 269.65,-187 192.35,-187 192.35,-151 296.65,-151 296.65,-187"/>
<text text-anchor="middle" x="244.5" y="-164.8" font-family="Times,serif" font-size="14.00">SidenavModule</text>
</g>
<!-- SidenavComponent&#45;&gt;SidenavModule -->
<g id="edge1" class="edge">
<title>SidenavComponent&#45;&gt;SidenavModule</title>
<path fill="none" stroke="black" d="M380.5,-122.11C380.5,-141.34 380.5,-169 380.5,-169 380.5,-169 306.69,-169 306.69,-169"/>
<polygon fill="black" stroke="black" points="306.69,-165.5 296.69,-169 306.69,-172.5 306.69,-165.5"/>
</g>
<!-- SidenavComponent  -->
<g id="node5" class="node">
<title>SidenavComponent </title>
<polygon fill="#fb8072" stroke="black" points="309.43,-252 179.57,-252 179.57,-216 309.43,-216 309.43,-252"/>
<text text-anchor="middle" x="244.5" y="-229.8" font-family="Times,serif" font-size="14.00">SidenavComponent </text>
</g>
<!-- SidenavModule&#45;&gt;SidenavComponent  -->
<g id="edge4" class="edge">
<title>SidenavModule&#45;&gt;SidenavComponent </title>
<path fill="none" stroke="black" stroke-dasharray="5,2" d="M244.5,-187.11C244.5,-187.11 244.5,-205.99 244.5,-205.99"/>
<polygon fill="black" stroke="black" points="241,-205.99 244.5,-215.99 248,-205.99 241,-205.99"/>
</g>
<!-- SharedModule -->
<g id="node3" class="node">
<title>SharedModule</title>
<polygon fill="#8dd3c7" stroke="black" points="293.92,-122 290.92,-126 269.92,-126 266.92,-122 195.08,-122 195.08,-86 293.92,-86 293.92,-122"/>
<text text-anchor="middle" x="244.5" y="-99.8" font-family="Times,serif" font-size="14.00">SharedModule</text>
</g>
<!-- SharedModule&#45;&gt;SidenavModule -->
<g id="edge2" class="edge">
<title>SharedModule&#45;&gt;SidenavModule</title>
<path fill="none" stroke="black" d="M244.5,-122.11C244.5,-122.11 244.5,-140.99 244.5,-140.99"/>
<polygon fill="black" stroke="black" points="241,-140.99 244.5,-150.99 248,-140.99 241,-140.99"/>
</g>
<!-- SocialIconsModule -->
<g id="node4" class="node">
<title>SocialIconsModule</title>
<polygon fill="#8dd3c7" stroke="black" points="176.86,-122 173.86,-126 152.86,-126 149.86,-122 52.14,-122 52.14,-86 176.86,-86 176.86,-122"/>
<text text-anchor="middle" x="114.5" y="-99.8" font-family="Times,serif" font-size="14.00">SocialIconsModule</text>
</g>
<!-- SocialIconsModule&#45;&gt;SidenavModule -->
<g id="edge3" class="edge">
<title>SocialIconsModule&#45;&gt;SidenavModule</title>
<path fill="none" stroke="black" d="M114.5,-122.11C114.5,-141.34 114.5,-169 114.5,-169 114.5,-169 182,-169 182,-169"/>
<polygon fill="black" stroke="black" points="182,-172.5 192,-169 182,-165.5 182,-172.5"/>
</g>
</g>
</svg>
