<?xml version="1.0" encoding="UTF-8" standalone="no"?>
<!DOCTYPE svg PUBLIC "-//W3C//DTD SVG 1.1//EN"
 "http://www.w3.org/Graphics/SVG/1.1/DTD/svg11.dtd">
<!-- Generated by graphviz version 2.47.0 (20210316.0004)
 -->
<!-- Title: dependencies Pages: 1 -->
<svg width="797pt" height="349pt"
 viewBox="0.00 0.00 797.00 349.00" xmlns="http://www.w3.org/2000/svg" xmlns:xlink="http://www.w3.org/1999/xlink">
<g id="graph0" class="graph" transform="scale(1 1) rotate(0) translate(4 345)">
<title>dependencies</title>
<polygon fill="white" stroke="transparent" points="-4,4 -4,-345 793,-345 793,4 -4,4"/>
<text text-anchor="start" x="373.51" y="-42.4" font-family="sans-serif" font-weight="bold" font-size="14.00">Legend</text>
<polygon fill="#ffffb3" stroke="transparent" points="160.5,-10 160.5,-30 180.5,-30 180.5,-10 160.5,-10"/>
<text text-anchor="start" x="184.13" y="-15.4" font-family="sans-serif" font-size="14.00"> &#160;Declarations</text>
<polygon fill="#8dd3c7" stroke="transparent" points="273.5,-10 273.5,-30 293.5,-30 293.5,-10 273.5,-10"/>
<text text-anchor="start" x="297.23" y="-15.4" font-family="sans-serif" font-size="14.00"> &#160;Module</text>
<polygon fill="#80b1d3" stroke="transparent" points="359.5,-10 359.5,-30 379.5,-30 379.5,-10 359.5,-10"/>
<text text-anchor="start" x="383.28" y="-15.4" font-family="sans-serif" font-size="14.00"> &#160;Bootstrap</text>
<polygon fill="#fdb462" stroke="transparent" points="456.5,-10 456.5,-30 476.5,-30 476.5,-10 456.5,-10"/>
<text text-anchor="start" x="480.17" y="-15.4" font-family="sans-serif" font-size="14.00"> &#160;Providers</text>
<polygon fill="#fb8072" stroke="transparent" points="552.5,-10 552.5,-30 572.5,-30 572.5,-10 552.5,-10"/>
<text text-anchor="start" x="576.23" y="-15.4" font-family="sans-serif" font-size="14.00"> &#160;Exports</text>
<g id="clust1" class="cluster">
<title>cluster_EditorModule</title>
<polygon fill="none" stroke="black" stroke-dasharray="1,5" points="8,-70 8,-333 781,-333 781,-70 8,-70"/>
</g>
<g id="clust3" class="cluster">
<title>cluster_EditorModule_EditorComponent_providers</title>
<polygon fill="none" stroke="black" points="555,-78 555,-195 773,-195 773,-78 555,-78"/>
</g>
<g id="clust6" class="cluster">
<title>cluster_EditorModule_exports</title>
<polygon fill="none" stroke="black" points="129,-273 129,-325 451,-325 451,-273 129,-273"/>
</g>
<g id="clust2" class="cluster">
<title>cluster_EditorModule_declarations</title>
<polygon fill="none" stroke="black" points="367,-143 367,-195 547,-195 547,-143 367,-143"/>
</g>
<g id="clust5" class="cluster">
<title>cluster_EditorModule_imports</title>
<polygon fill="none" stroke="black" points="16,-143 16,-195 359,-195 359,-143 16,-143"/>
</g>
<!-- EditorComponent -->
<g id="node1" class="node">
<title>EditorComponent</title>
<polygon fill="#ffffb3" stroke="black" points="700.33,-187 583.67,-187 583.67,-151 700.33,-151 700.33,-187"/>
<text text-anchor="middle" x="642" y="-164.8" font-family="Times,serif" font-size="14.00">EditorComponent</text>
</g>
<!-- EditorModule -->
<g id="node3" class="node">
<title>EditorModule</title>
<polygon fill="#8dd3c7" stroke="black" points="349.05,-252 346.05,-256 325.05,-256 322.05,-252 254.95,-252 254.95,-216 349.05,-216 349.05,-252"/>
<text text-anchor="middle" x="302" y="-229.8" font-family="Times,serif" font-size="14.00">EditorModule</text>
</g>
<!-- EditorComponent&#45;&gt;EditorModule -->
<g id="edge1" class="edge">
<title>EditorComponent&#45;&gt;EditorModule</title>
<path fill="none" stroke="black" d="M642,-187.28C642,-208.32 642,-240 642,-240 642,-240 359.28,-240 359.28,-240"/>
<polygon fill="black" stroke="black" points="359.28,-236.5 349.28,-240 359.28,-243.5 359.28,-236.5"/>
</g>
<!-- EditorWindowComponent -->
<g id="node2" class="node">
<title>EditorWindowComponent</title>
<polygon fill="#ffffb3" stroke="black" points="539.04,-187 374.96,-187 374.96,-151 539.04,-151 539.04,-187"/>
<text text-anchor="middle" x="457" y="-164.8" font-family="Times,serif" font-size="14.00">EditorWindowComponent</text>
</g>
<!-- EditorWindowComponent&#45;&gt;EditorModule -->
<g id="edge3" class="edge">
<title>EditorWindowComponent&#45;&gt;EditorModule</title>
<path fill="none" stroke="black" d="M408.82,-187.02C408.82,-204.37 408.82,-228 408.82,-228 408.82,-228 359.16,-228 359.16,-228"/>
<polygon fill="black" stroke="black" points="359.16,-224.5 349.16,-228 359.16,-231.5 359.16,-224.5"/>
</g>
<!-- EditorComponent  -->
<g id="node8" class="node">
<title>EditorComponent </title>
<polygon fill="#fb8072" stroke="black" points="442.83,-317 323.17,-317 323.17,-281 442.83,-281 442.83,-317"/>
<text text-anchor="middle" x="383" y="-294.8" font-family="Times,serif" font-size="14.00">EditorComponent </text>
</g>
<!-- EditorModule&#45;&gt;EditorComponent  -->
<g id="edge7" class="edge">
<title>EditorModule&#45;&gt;EditorComponent </title>
<path fill="none" stroke="black" stroke-dasharray="5,2" d="M336.18,-252.11C336.18,-252.11 336.18,-270.99 336.18,-270.99"/>
<polygon fill="black" stroke="black" points="332.68,-270.99 336.18,-280.99 339.68,-270.99 332.68,-270.99"/>
</g>
<!-- EditorWindowComponent  -->
<g id="node9" class="node">
<title>EditorWindowComponent </title>
<polygon fill="#fb8072" stroke="black" points="305.04,-317 136.96,-317 136.96,-281 305.04,-281 305.04,-317"/>
<text text-anchor="middle" x="221" y="-294.8" font-family="Times,serif" font-size="14.00">EditorWindowComponent </text>
</g>
<!-- EditorModule&#45;&gt;EditorWindowComponent  -->
<g id="edge8" class="edge">
<title>EditorModule&#45;&gt;EditorWindowComponent </title>
<path fill="none" stroke="black" stroke-dasharray="5,2" d="M279.87,-252.11C279.87,-252.11 279.87,-270.99 279.87,-270.99"/>
<polygon fill="black" stroke="black" points="276.37,-270.99 279.87,-280.99 283.37,-270.99 276.37,-270.99"/>
</g>
<!-- EDITOR_ACCESSOR -->
<g id="node4" class="node">
<title>EDITOR_ACCESSOR</title>
<ellipse fill="#fdb462" stroke="black" cx="664" cy="-104" rx="101.32" ry="18"/>
<text text-anchor="middle" x="664" y="-99.8" font-family="Times,serif" font-size="14.00">EDITOR_ACCESSOR</text>
</g>
<!-- EDITOR_ACCESSOR&#45;&gt;EditorComponent -->
<g id="edge2" class="edge">
<title>EDITOR_ACCESSOR&#45;&gt;EditorComponent</title>
<path fill="none" stroke="black" d="M642,-121.76C642,-121.76 642,-140.81 642,-140.81"/>
<polygon fill="black" stroke="black" points="638.5,-140.81 642,-150.81 645.5,-140.81 638.5,-140.81"/>
</g>
<!-- DialogModule -->
<g id="node5" class="node">
<title>DialogModule</title>
<polygon fill="#8dd3c7" stroke="black" points="350.65,-187 347.65,-191 326.65,-191 323.65,-187 253.35,-187 253.35,-151 350.65,-151 350.65,-187"/>
<text text-anchor="middle" x="302" y="-164.8" font-family="Times,serif" font-size="14.00">DialogModule</text>
</g>
<!-- DialogModule&#45;&gt;EditorModule -->
<g id="edge4" class="edge">
<title>DialogModule&#45;&gt;EditorModule</title>
<path fill="none" stroke="black" d="M302,-187.11C302,-187.11 302,-205.99 302,-205.99"/>
<polygon fill="black" stroke="black" points="298.5,-205.99 302,-215.99 305.5,-205.99 298.5,-205.99"/>
</g>
<!-- FormsModule -->
<g id="node6" class="node">
<title>FormsModule</title>
<polygon fill="#8dd3c7" stroke="black" points="235.83,-187 232.83,-191 211.83,-191 208.83,-187 140.17,-187 140.17,-151 235.83,-151 235.83,-187"/>
<text text-anchor="middle" x="188" y="-164.8" font-family="Times,serif" font-size="14.00">FormsModule</text>
</g>
<!-- FormsModule&#45;&gt;EditorModule -->
<g id="edge5" class="edge">
<title>FormsModule&#45;&gt;EditorModule</title>
<path fill="none" stroke="black" d="M188,-187.02C188,-204.37 188,-228 188,-228 188,-228 244.64,-228 244.64,-228"/>
<polygon fill="black" stroke="black" points="244.64,-231.5 254.64,-228 244.64,-224.5 244.64,-231.5"/>
</g>
<!-- SharedModule -->
<g id="node7" class="node">
<title>SharedModule</title>
<polygon fill="#8dd3c7" stroke="black" points="122.42,-187 119.42,-191 98.42,-191 95.42,-187 23.58,-187 23.58,-151 122.42,-151 122.42,-187"/>
<text text-anchor="middle" x="73" y="-164.8" font-family="Times,serif" font-size="14.00">SharedModule</text>
</g>
<!-- SharedModule&#45;&gt;EditorModule -->
<g id="edge6" class="edge">
<title>SharedModule&#45;&gt;EditorModule</title>
<path fill="none" stroke="black" d="M73,-187.28C73,-208.32 73,-240 73,-240 73,-240 244.83,-240 244.83,-240"/>
<polygon fill="black" stroke="black" points="244.83,-243.5 254.83,-240 244.83,-236.5 244.83,-243.5"/>
</g>
</g>
</svg>
