<?xml version="1.0" encoding="UTF-8" standalone="no"?>
<!DOCTYPE svg PUBLIC "-//W3C//DTD SVG 1.1//EN"
 "http://www.w3.org/Graphics/SVG/1.1/DTD/svg11.dtd">
<!-- Generated by graphviz version 2.47.0 (20210316.0004)
 -->
<!-- Title: dependencies Pages: 1 -->
<svg width="504pt" height="284pt"
 viewBox="0.00 0.00 504.00 284.00" xmlns="http://www.w3.org/2000/svg" xmlns:xlink="http://www.w3.org/1999/xlink">
<g id="graph0" class="graph" transform="scale(1 1) rotate(0) translate(4 280)">
<title>dependencies</title>
<polygon fill="white" stroke="transparent" points="-4,4 -4,-280 500,-280 500,4 -4,4"/>
<text text-anchor="start" x="227.01" y="-42.4" font-family="sans-serif" font-weight="bold" font-size="14.00">Legend</text>
<polygon fill="#ffffb3" stroke="transparent" points="14,-10 14,-30 34,-30 34,-10 14,-10"/>
<text text-anchor="start" x="37.63" y="-15.4" font-family="sans-serif" font-size="14.00"> &#160;Declarations</text>
<polygon fill="#8dd3c7" stroke="transparent" points="127,-10 127,-30 147,-30 147,-10 127,-10"/>
<text text-anchor="start" x="150.73" y="-15.4" font-family="sans-serif" font-size="14.00"> &#160;Module</text>
<polygon fill="#80b1d3" stroke="transparent" points="213,-10 213,-30 233,-30 233,-10 213,-10"/>
<text text-anchor="start" x="236.78" y="-15.4" font-family="sans-serif" font-size="14.00"> &#160;Bootstrap</text>
<polygon fill="#fdb462" stroke="transparent" points="310,-10 310,-30 330,-30 330,-10 310,-10"/>
<text text-anchor="start" x="333.67" y="-15.4" font-family="sans-serif" font-size="14.00"> &#160;Providers</text>
<polygon fill="#fb8072" stroke="transparent" points="406,-10 406,-30 426,-30 426,-10 406,-10"/>
<text text-anchor="start" x="429.73" y="-15.4" font-family="sans-serif" font-size="14.00"> &#160;Exports</text>
<g id="clust1" class="cluster">
<title>cluster_DatepickerModule</title>
<polygon fill="none" stroke="black" stroke-dasharray="1,5" points="21.5,-70 21.5,-268 474.5,-268 474.5,-70 21.5,-70"/>
</g>
<g id="clust6" class="cluster">
<title>cluster_DatepickerModule_exports</title>
<polygon fill="none" stroke="black" points="87.5,-208 87.5,-260 409.5,-260 409.5,-208 87.5,-208"/>
</g>
<g id="clust2" class="cluster">
<title>cluster_DatepickerModule_declarations</title>
<polygon fill="none" stroke="black" points="151.5,-78 151.5,-130 466.5,-130 466.5,-78 151.5,-78"/>
</g>
<g id="clust5" class="cluster">
<title>cluster_DatepickerModule_imports</title>
<polygon fill="none" stroke="black" points="29.5,-78 29.5,-130 143.5,-130 143.5,-78 29.5,-78"/>
</g>
<!-- DatepickerComponent -->
<g id="node1" class="node">
<title>DatepickerComponent</title>
<polygon fill="#ffffb3" stroke="black" points="458.74,-122 316.26,-122 316.26,-86 458.74,-86 458.74,-122"/>
<text text-anchor="middle" x="387.5" y="-99.8" font-family="Times,serif" font-size="14.00">DatepickerComponent</text>
</g>
<!-- DatepickerModule -->
<g id="node3" class="node">
<title>DatepickerModule</title>
<polygon fill="#8dd3c7" stroke="black" points="288.96,-187 285.96,-191 264.96,-191 261.96,-187 168.04,-187 168.04,-151 288.96,-151 288.96,-187"/>
<text text-anchor="middle" x="228.5" y="-164.8" font-family="Times,serif" font-size="14.00">DatepickerModule</text>
</g>
<!-- DatepickerComponent&#45;&gt;DatepickerModule -->
<g id="edge1" class="edge">
<title>DatepickerComponent&#45;&gt;DatepickerModule</title>
<path fill="none" stroke="black" d="M358.88,-122.11C358.88,-141.34 358.88,-169 358.88,-169 358.88,-169 299.11,-169 299.11,-169"/>
<polygon fill="black" stroke="black" points="299.11,-165.5 289.11,-169 299.11,-172.5 299.11,-165.5"/>
</g>
<!-- DaterangeComponent -->
<g id="node2" class="node">
<title>DaterangeComponent</title>
<polygon fill="#ffffb3" stroke="black" points="297.85,-122 159.15,-122 159.15,-86 297.85,-86 297.85,-122"/>
<text text-anchor="middle" x="228.5" y="-99.8" font-family="Times,serif" font-size="14.00">DaterangeComponent</text>
</g>
<!-- DaterangeComponent&#45;&gt;DatepickerModule -->
<g id="edge2" class="edge">
<title>DaterangeComponent&#45;&gt;DatepickerModule</title>
<path fill="none" stroke="black" d="M228.5,-122.11C228.5,-122.11 228.5,-140.99 228.5,-140.99"/>
<polygon fill="black" stroke="black" points="225,-140.99 228.5,-150.99 232,-140.99 225,-140.99"/>
</g>
<!-- DatepickerComponent  -->
<g id="node5" class="node">
<title>DatepickerComponent </title>
<polygon fill="#fb8072" stroke="black" points="401.74,-252 255.26,-252 255.26,-216 401.74,-216 401.74,-252"/>
<text text-anchor="middle" x="328.5" y="-229.8" font-family="Times,serif" font-size="14.00">DatepickerComponent </text>
</g>
<!-- DatepickerModule&#45;&gt;DatepickerComponent  -->
<g id="edge4" class="edge">
<title>DatepickerModule&#45;&gt;DatepickerComponent </title>
<path fill="none" stroke="black" stroke-dasharray="5,2" d="M272.18,-187.11C272.18,-187.11 272.18,-205.99 272.18,-205.99"/>
<polygon fill="black" stroke="black" points="268.68,-205.99 272.18,-215.99 275.68,-205.99 268.68,-205.99"/>
</g>
<!-- DaterangeComponent  -->
<g id="node6" class="node">
<title>DaterangeComponent </title>
<polygon fill="#fb8072" stroke="black" points="237.85,-252 95.15,-252 95.15,-216 237.85,-216 237.85,-252"/>
<text text-anchor="middle" x="166.5" y="-229.8" font-family="Times,serif" font-size="14.00">DaterangeComponent </text>
</g>
<!-- DatepickerModule&#45;&gt;DaterangeComponent  -->
<g id="edge5" class="edge">
<title>DatepickerModule&#45;&gt;DaterangeComponent </title>
<path fill="none" stroke="black" stroke-dasharray="5,2" d="M202.85,-187.11C202.85,-187.11 202.85,-205.99 202.85,-205.99"/>
<polygon fill="black" stroke="black" points="199.35,-205.99 202.85,-215.99 206.35,-205.99 199.35,-205.99"/>
</g>
<!-- SharedModule -->
<g id="node4" class="node">
<title>SharedModule</title>
<polygon fill="#8dd3c7" stroke="black" points="135.92,-122 132.92,-126 111.92,-126 108.92,-122 37.08,-122 37.08,-86 135.92,-86 135.92,-122"/>
<text text-anchor="middle" x="86.5" y="-99.8" font-family="Times,serif" font-size="14.00">SharedModule</text>
</g>
<!-- SharedModule&#45;&gt;DatepickerModule -->
<g id="edge3" class="edge">
<title>SharedModule&#45;&gt;DatepickerModule</title>
<path fill="none" stroke="black" d="M115.52,-122.11C115.52,-141.34 115.52,-169 115.52,-169 115.52,-169 158.04,-169 158.04,-169"/>
<polygon fill="black" stroke="black" points="158.04,-172.5 168.04,-169 158.04,-165.5 158.04,-172.5"/>
</g>
</g>
</svg>
