<?xml version="1.0" encoding="UTF-8" standalone="no"?>
<!DOCTYPE svg PUBLIC "-//W3C//DTD SVG 1.1//EN"
 "http://www.w3.org/Graphics/SVG/1.1/DTD/svg11.dtd">
<!-- Generated by graphviz version 2.47.0 (20210316.0004)
 -->
<!-- Title: dependencies Pages: 1 -->
<svg width="504pt" height="349pt"
 viewBox="0.00 0.00 504.00 349.00" xmlns="http://www.w3.org/2000/svg" xmlns:xlink="http://www.w3.org/1999/xlink">
<g id="graph0" class="graph" transform="scale(1 1) rotate(0) translate(4 345)">
<title>dependencies</title>
<polygon fill="white" stroke="transparent" points="-4,4 -4,-345 500,-345 500,4 -4,4"/>
<text text-anchor="start" x="227.01" y="-42.4" font-family="sans-serif" font-weight="bold" font-size="14.00">Legend</text>
<polygon fill="#ffffb3" stroke="transparent" points="14,-10 14,-30 34,-30 34,-10 14,-10"/>
<text text-anchor="start" x="37.63" y="-15.4" font-family="sans-serif" font-size="14.00"> &#160;Declarations</text>
<polygon fill="#8dd3c7" stroke="transparent" points="127,-10 127,-30 147,-30 147,-10 127,-10"/>
<text text-anchor="start" x="150.73" y="-15.4" font-family="sans-serif" font-size="14.00"> &#160;Module</text>
<polygon fill="#80b1d3" stroke="transparent" points="213,-10 213,-30 233,-30 233,-10 213,-10"/>
<text text-anchor="start" x="236.78" y="-15.4" font-family="sans-serif" font-size="14.00"> &#160;Bootstrap</text>
<polygon fill="#fdb462" stroke="transparent" points="310,-10 310,-30 330,-30 330,-10 310,-10"/>
<text text-anchor="start" x="333.67" y="-15.4" font-family="sans-serif" font-size="14.00"> &#160;Providers</text>
<polygon fill="#fb8072" stroke="transparent" points="406,-10 406,-30 426,-30 426,-10 406,-10"/>
<text text-anchor="start" x="429.73" y="-15.4" font-family="sans-serif" font-size="14.00"> &#160;Exports</text>
<g id="clust1" class="cluster">
<title>cluster_DatepickerModule</title>
<polygon fill="none" stroke="black" stroke-dasharray="1,5" points="21.5,-70 21.5,-333 474.5,-333 474.5,-70 21.5,-70"/>
</g>
<g id="clust2" class="cluster">
<title>cluster_DatepickerModule_declarations</title>
<polygon fill="none" stroke="black" points="29.5,-143 29.5,-195 344.5,-195 344.5,-143 29.5,-143"/>
</g>
<g id="clust5" class="cluster">
<title>cluster_DatepickerModule_imports</title>
<polygon fill="none" stroke="black" points="352.5,-143 352.5,-195 466.5,-195 466.5,-143 352.5,-143"/>
</g>
<g id="clust3" class="cluster">
<title>cluster_DatepickerModule_DatepickerComponent_providers</title>
<polygon fill="none" stroke="black" points="131.5,-78 131.5,-130 399.5,-130 399.5,-78 131.5,-78"/>
</g>
<g id="clust6" class="cluster">
<title>cluster_DatepickerModule_exports</title>
<polygon fill="none" stroke="black" points="87.5,-273 87.5,-325 409.5,-325 409.5,-273 87.5,-273"/>
</g>
<!-- DatepickerComponent -->
<g id="node1" class="node">
<title>DatepickerComponent</title>
<polygon fill="#ffffb3" stroke="black" points="336.74,-187 194.26,-187 194.26,-151 336.74,-151 336.74,-187"/>
<text text-anchor="middle" x="265.5" y="-164.8" font-family="Times,serif" font-size="14.00">DatepickerComponent</text>
</g>
<!-- DatepickerModule -->
<g id="node3" class="node">
<title>DatepickerModule</title>
<polygon fill="#8dd3c7" stroke="black" points="325.96,-252 322.96,-256 301.96,-256 298.96,-252 205.04,-252 205.04,-216 325.96,-216 325.96,-252"/>
<text text-anchor="middle" x="265.5" y="-229.8" font-family="Times,serif" font-size="14.00">DatepickerModule</text>
</g>
<!-- DatepickerComponent&#45;&gt;DatepickerModule -->
<g id="edge1" class="edge">
<title>DatepickerComponent&#45;&gt;DatepickerModule</title>
<path fill="none" stroke="black" d="M265.5,-187.11C265.5,-187.11 265.5,-205.99 265.5,-205.99"/>
<polygon fill="black" stroke="black" points="262,-205.99 265.5,-215.99 269,-205.99 262,-205.99"/>
</g>
<!-- DaterangeComponent -->
<g id="node2" class="node">
<title>DaterangeComponent</title>
<polygon fill="#ffffb3" stroke="black" points="175.85,-187 37.15,-187 37.15,-151 175.85,-151 175.85,-187"/>
<text text-anchor="middle" x="106.5" y="-164.8" font-family="Times,serif" font-size="14.00">DaterangeComponent</text>
</g>
<!-- DaterangeComponent&#45;&gt;DatepickerModule -->
<g id="edge3" class="edge">
<title>DaterangeComponent&#45;&gt;DatepickerModule</title>
<path fill="none" stroke="black" d="M135.62,-187.11C135.62,-206.34 135.62,-234 135.62,-234 135.62,-234 194.75,-234 194.75,-234"/>
<polygon fill="black" stroke="black" points="194.75,-237.5 204.75,-234 194.75,-230.5 194.75,-237.5"/>
</g>
<!-- DatepickerComponent  -->
<g id="node6" class="node">
<title>DatepickerComponent </title>
<polygon fill="#fb8072" stroke="black" points="401.74,-317 255.26,-317 255.26,-281 401.74,-281 401.74,-317"/>
<text text-anchor="middle" x="328.5" y="-294.8" font-family="Times,serif" font-size="14.00">DatepickerComponent </text>
</g>
<!-- DatepickerModule&#45;&gt;DatepickerComponent  -->
<g id="edge5" class="edge">
<title>DatepickerModule&#45;&gt;DatepickerComponent </title>
<path fill="none" stroke="black" stroke-dasharray="5,2" d="M290.68,-252.11C290.68,-252.11 290.68,-270.99 290.68,-270.99"/>
<polygon fill="black" stroke="black" points="287.18,-270.99 290.68,-280.99 294.18,-270.99 287.18,-270.99"/>
</g>
<!-- DaterangeComponent  -->
<g id="node7" class="node">
<title>DaterangeComponent </title>
<polygon fill="#fb8072" stroke="black" points="237.85,-317 95.15,-317 95.15,-281 237.85,-281 237.85,-317"/>
<text text-anchor="middle" x="166.5" y="-294.8" font-family="Times,serif" font-size="14.00">DaterangeComponent </text>
</g>
<!-- DatepickerModule&#45;&gt;DaterangeComponent  -->
<g id="edge6" class="edge">
<title>DatepickerModule&#45;&gt;DaterangeComponent </title>
<path fill="none" stroke="black" stroke-dasharray="5,2" d="M221.35,-252.11C221.35,-252.11 221.35,-270.99 221.35,-270.99"/>
<polygon fill="black" stroke="black" points="217.85,-270.99 221.35,-280.99 224.85,-270.99 217.85,-270.99"/>
</g>
<!-- DATEPICKER_ACCESSOR -->
<g id="node4" class="node">
<title>DATEPICKER_ACCESSOR</title>
<ellipse fill="#fdb462" stroke="black" cx="265.5" cy="-104" rx="125.68" ry="18"/>
<text text-anchor="middle" x="265.5" y="-99.8" font-family="Times,serif" font-size="14.00">DATEPICKER_ACCESSOR</text>
</g>
<!-- DATEPICKER_ACCESSOR&#45;&gt;DatepickerComponent -->
<g id="edge2" class="edge">
<title>DATEPICKER_ACCESSOR&#45;&gt;DatepickerComponent</title>
<path fill="none" stroke="black" d="M265.5,-122.11C265.5,-122.11 265.5,-140.99 265.5,-140.99"/>
<polygon fill="black" stroke="black" points="262,-140.99 265.5,-150.99 269,-140.99 262,-140.99"/>
</g>
<!-- SharedModule -->
<g id="node5" class="node">
<title>SharedModule</title>
<polygon fill="#8dd3c7" stroke="black" points="458.92,-187 455.92,-191 434.92,-191 431.92,-187 360.08,-187 360.08,-151 458.92,-151 458.92,-187"/>
<text text-anchor="middle" x="409.5" y="-164.8" font-family="Times,serif" font-size="14.00">SharedModule</text>
</g>
<!-- SharedModule&#45;&gt;DatepickerModule -->
<g id="edge4" class="edge">
<title>SharedModule&#45;&gt;DatepickerModule</title>
<path fill="none" stroke="black" d="M380.95,-187.11C380.95,-206.34 380.95,-234 380.95,-234 380.95,-234 336.27,-234 336.27,-234"/>
<polygon fill="black" stroke="black" points="336.27,-230.5 326.27,-234 336.27,-237.5 336.27,-230.5"/>
</g>
</g>
</svg>
